<svg width="70" height="70" viewBox="0 0 70 70" fill="none" xmlns="http://www.w3.org/2000/svg">
<circle cx="35" cy="35" r="35" fill="#ECF6FF"/>
<path d="M45.9538 30.0703C46.0266 30.1606 46.0938 30.2572 46.1732 30.3402C47.4008 31.6171 48.5396 32.9765 49.5815 34.4089C50.5119 35.6782 51.3559 37.0085 52.1078 38.3909C52.8747 39.807 53.5368 41.2703 54.0549 42.7974C54.5207 44.1704 54.8655 45.5722 55.0184 47.0142C55.1934 48.6592 55.1199 50.2853 54.5865 51.8683C54.2365 52.9043 53.7045 53.835 52.9436 54.6228C52.3304 55.2576 51.5991 55.7664 50.7908 56.1208C49.9179 56.5058 49.003 56.7158 48.0548 56.7953C46.3573 56.937 44.7099 56.6682 43.0876 56.1922C41.7293 55.7939 40.4318 55.2444 39.1771 54.5941C37.7721 53.8597 36.4264 53.0171 35.1521 52.0741C33.7143 51.02 32.3567 49.8608 31.0903 48.606C30.9832 48.501 30.8726 48.396 30.7683 48.2868C30.6738 48.1877 30.6038 48.1846 30.4971 48.2889C29.9595 48.8139 29.431 49.3511 28.864 49.8429C28.0474 50.5506 27.1322 51.0896 26.0374 51.2429C24.9293 51.3965 23.9139 51.147 23.0214 50.4704C21.7702 49.5216 21.1538 48.2042 20.9088 46.6932C20.8346 46.2358 20.8343 45.7661 20.8003 45.302C20.7965 45.2456 20.7954 45.1889 20.7919 45.1088C20.5886 45.2043 20.4097 45.296 20.2246 45.3741C18.5537 46.0765 16.8247 46.2876 15.0831 45.7566C13.0881 45.148 11.8942 43.7487 11.4893 41.7026C11.2628 40.5584 11.4504 39.4419 11.8064 38.3464C12.1615 37.2649 12.6794 36.2437 13.3422 35.3182C13.8896 34.5409 14.5388 33.8405 15.2724 33.2357C16.1765 32.4941 17.1603 31.8928 18.2733 31.5158C18.3063 31.5043 18.3385 31.4903 18.3696 31.4742C18.3901 31.4589 18.4093 31.4419 18.427 31.4234C18.3747 31.3804 18.3203 31.3401 18.2639 31.3027C17.098 30.6181 16.0179 29.8211 15.0838 28.8397C14.1622 27.8716 13.4552 26.773 13.108 25.4671C12.723 24.022 12.7668 22.594 13.4027 21.2321C14.0936 19.7509 15.2665 18.8948 16.9122 18.7307C18.1613 18.6061 19.3457 18.8896 20.5007 19.3274C22.0383 19.9098 23.3952 20.7694 24.5149 21.9853C24.5936 22.0711 24.6706 22.1603 24.7427 22.2503C24.8148 22.3402 24.895 22.3553 25.0007 22.2968C25.2051 22.1852 25.4207 22.0945 25.6195 21.9727C25.68 21.9353 25.7245 21.8261 25.728 21.748C25.7455 21.2475 25.728 20.7453 25.7609 20.2462C25.8809 18.479 26.3772 16.8312 27.4115 15.3756C28.0649 14.4561 28.8752 13.711 29.9777 13.3599C31.0035 13.0334 31.9898 13.158 32.932 13.6732C33.933 14.2206 34.6561 15.0452 35.2508 15.9958C36.2129 17.5337 36.7208 19.2361 37.019 21.0067C37.153 21.804 37.229 22.6108 37.3396 23.4126C37.349 23.4798 37.3879 23.5694 37.4411 23.5999C37.7284 23.7647 38.0249 23.9149 38.3182 24.0682C38.2783 24.114 38.245 24.1693 38.1971 24.2043C37.7498 24.5291 37.3021 24.8536 36.8499 25.1717C36.6889 25.2848 36.5269 25.408 36.3463 25.479C35.8251 25.6841 35.4342 26.039 35.1451 26.5024C34.6992 27.2182 34.6127 28.0043 34.7405 28.8254C34.8486 29.5194 35.1003 30.1596 35.4496 30.7654C36.1275 31.9411 37.0711 32.8259 38.3084 33.3922C38.6584 33.5521 39.0238 33.683 39.3486 33.8822C39.6534 34.0691 39.9555 34.1741 40.3055 34.1142C40.6457 34.0561 41.0324 34.0729 41.2606 33.7621C41.493 33.4471 41.8224 33.2634 42.1195 33.0348C42.5297 32.7198 42.9508 32.4178 43.3564 32.0961C43.9584 31.6187 44.5464 31.1245 45.1488 30.6471C45.406 30.4403 45.6846 30.2611 45.9538 30.0703ZM26.5445 35.1733C26.5795 35.5265 26.5988 35.8817 26.6544 36.2314C26.8102 37.2075 27.1633 38.0948 27.9004 38.7864C28.6995 39.5371 29.6378 39.8014 30.7046 39.5245C31.7959 39.2393 32.5624 38.5176 33.1714 37.6072C33.6397 36.9072 33.9348 36.1348 34.1094 35.3109C34.3929 33.9735 34.3716 32.66 33.8193 31.3888C33.4413 30.519 32.8585 29.8379 31.9524 29.4823C31.0935 29.1453 30.2451 29.2485 29.4474 29.644C28.5192 30.1039 27.8787 30.8774 27.4013 31.779C26.8413 32.8371 26.5697 33.9728 26.5445 35.1733ZM45.2016 52.7713C45.5541 52.7538 45.8992 52.6548 46.2033 52.4248C46.574 52.1476 46.8603 51.7726 47.03 51.3419C47.3258 50.5985 47.3219 49.8681 46.89 49.1684C46.4032 48.3806 45.3822 48.2045 44.6644 48.7908C44.4439 48.9707 44.2342 49.1642 44.0228 49.3553C43.7582 49.5947 43.6158 49.9059 43.5402 50.2454C43.4086 50.8372 43.4873 51.4046 43.7971 51.9282C44.1068 52.4518 44.5643 52.7409 45.2016 52.7703V52.7713ZM53.2569 48.6802C53.2506 48.6067 53.2495 48.5248 53.2348 48.445C53.1267 47.85 52.8036 47.3873 52.3391 47.0149C51.9254 46.6838 51.2955 46.6845 50.8842 47.0205C50.6865 47.1825 50.494 47.3512 50.3032 47.5217C50.0891 47.7066 49.9487 47.9624 49.9077 48.2423C49.787 49.0925 50.0809 49.7918 50.7431 50.322C51.5051 50.9328 52.5877 50.6643 53.0157 49.7879C53.1869 49.4376 53.2243 49.0655 53.2569 48.6802Z" fill="#307BF6"/>
<path d="M45.9538 30.0703C45.6846 30.2611 45.406 30.4406 45.1487 30.645C44.5464 31.1224 43.9587 31.6166 43.3564 32.094C42.9508 32.4157 42.5297 32.717 42.1195 33.0327C41.8224 33.2613 41.493 33.4436 41.2606 33.76C41.0324 34.0708 40.6457 34.054 40.3055 34.1121C39.9555 34.172 39.6534 34.067 39.3486 33.8801C39.0238 33.6809 38.657 33.55 38.3084 33.3901C37.0711 32.8238 36.1275 31.939 35.4495 30.7633C35.0995 30.1575 34.8486 29.5173 34.7405 28.8233C34.6127 28.0022 34.6992 27.2161 35.1451 26.5003C35.4342 26.0359 35.8251 25.682 36.3463 25.4769C36.5268 25.4069 36.6889 25.2827 36.8499 25.1696C37.3021 24.8515 37.7497 24.527 38.197 24.2022C38.245 24.1672 38.2782 24.1119 38.3181 24.0661C39.5554 23.2009 40.8399 22.4113 42.1486 21.6588C43.5964 20.8221 45.087 20.0616 46.6142 19.3803C48.619 18.4934 50.6904 17.7653 52.8092 17.2026C53.8917 16.9135 54.9827 16.6685 56.103 16.5852C56.6679 16.5429 57.2349 16.5299 57.7792 16.7304C58.5439 17.0125 58.8954 17.7227 58.6598 18.5029C58.4988 19.0366 58.1827 19.4853 57.8646 19.9312C57.1674 20.9095 56.306 21.7379 55.4454 22.566C53.9908 23.966 52.4004 25.2046 50.796 26.423C49.4597 27.4366 48.1235 28.4504 46.7874 29.4645C46.5127 29.6727 46.2313 29.8691 45.9538 30.0703Z" fill="#313131"/>
<path d="M45.2016 52.7703C44.5643 52.7398 44.1054 52.449 43.7963 51.9271C43.4873 51.4053 43.4079 50.8362 43.5395 50.2443C43.6151 49.9048 43.7575 49.5937 44.0221 49.3543C44.2321 49.1632 44.4421 48.9693 44.6637 48.7897C45.3815 48.2035 46.4025 48.3795 46.8893 49.1674C47.3219 49.8674 47.3257 50.5975 47.0293 51.3409C46.8596 51.7716 46.5733 52.1465 46.2026 52.4238C45.8991 52.6548 45.5541 52.7538 45.2016 52.7703Z" fill="#313131"/>
<path d="M53.2569 48.6802C53.2243 49.0652 53.1869 49.4376 53.0157 49.7879C52.5877 50.6629 51.5051 50.9328 50.7431 50.322C50.0809 49.7918 49.787 49.0925 49.9077 48.2423C49.9487 47.9624 50.0891 47.7066 50.3032 47.5217C50.494 47.3512 50.6865 47.1825 50.8842 47.0205C51.2955 46.6845 51.9254 46.6838 52.3391 47.0149C52.8036 47.3873 53.1267 47.8496 53.2348 48.445C53.2495 48.5248 53.2506 48.6053 53.2569 48.6802Z" fill="#313131"/>
<path d="M30.1708 34.586C30.0809 34.7236 29.9983 34.8268 29.9405 34.9423C29.8005 35.2223 29.6955 35.5244 29.5328 35.7893C29.4029 36.0036 29.2003 36.1639 28.9619 36.241C28.7236 36.3182 28.4654 36.3069 28.2347 36.2093C27.752 36.0081 27.4622 35.5034 27.6047 34.9815C27.8497 34.089 28.2697 33.2861 29.0316 32.7195C29.8695 32.0979 30.9839 32.2333 31.6884 32.9995C32.2484 33.6088 32.5284 34.3477 32.7129 35.1306C32.7863 35.4178 32.8292 35.7119 32.841 36.0081C32.8519 36.5103 32.4942 36.9181 32.001 37.0262C31.546 37.1256 31.0266 36.8897 30.8439 36.447C30.714 36.132 30.6651 35.7862 30.5615 35.46C30.4838 35.2167 30.3781 34.9826 30.2815 34.7463C30.2629 34.7012 30.2261 34.6641 30.1708 34.586Z" fill="#313131"/>
</svg>
