<svg width="70" height="70" viewBox="0 0 70 70" fill="none" xmlns="http://www.w3.org/2000/svg">
<circle cx="35" cy="35" r="35" fill="#ECF6FF"/>
<path d="M42.736 27.9472C42.2722 29.1864 41.8785 30.4507 41.5568 31.7342C41.5173 31.8889 41.5449 31.9477 41.7059 31.9841C42.9659 32.2693 44.1969 32.6421 45.3879 33.1391C46.5853 33.6396 47.7273 34.2426 48.7563 35.0434C48.9121 35.1642 48.9226 35.1554 49.0692 34.9454C49.7489 33.9706 50.4304 32.997 51.1136 32.0247C51.1383 31.9852 51.1669 31.9482 51.199 31.9144C51.3187 31.8021 51.3012 31.7044 51.2186 31.5644C50.4178 30.2166 50.1637 28.7963 50.7314 27.2962C50.9564 26.7012 51.3582 26.2378 51.9788 26.0278C52.7859 25.7544 53.4789 26.0092 54.0889 26.5528C54.4459 26.8709 54.7126 27.2584 54.9261 27.6843C54.9538 27.74 54.9842 27.7942 55.0224 27.8656C55.1179 27.7988 55.1974 27.7445 55.2775 27.6878C56.5592 26.7652 57.9725 26.1615 59.5451 25.9711C60.3987 25.8661 61.2485 25.8955 62.0465 26.2731C63.2201 26.8282 63.6915 27.9248 63.3016 29.1652C63.1144 29.7602 62.7924 30.2799 62.3731 30.7328C60.9307 32.2903 59.1261 33.1657 57.0475 33.4957C56.4012 33.6038 55.7402 33.5871 55.1001 33.4467C54.973 33.418 54.923 33.467 54.8775 33.5727C54.5164 34.4074 54.0742 35.2046 53.5573 35.9527C52.9763 36.806 52.3085 37.5969 51.5647 38.3128C51.4436 38.4286 51.4149 38.5326 51.4597 38.696C51.8941 40.2325 51.6144 41.6598 50.7762 42.9947C50.0293 44.1847 48.9912 45.0741 47.8232 45.8242C46.4194 46.7254 44.8937 47.3571 43.3051 47.8443C41.86 48.282 40.3809 48.5981 38.8832 48.7893C37.2536 49.0076 35.6094 49.0982 33.9657 49.0603C32.0928 49.013 30.234 48.824 28.3972 48.4393C26.9104 48.1282 25.4572 47.7043 24.0572 47.1093C22.9099 46.6225 21.82 46.0317 20.8319 45.268C19.8439 44.5043 18.9983 43.6104 18.4558 42.468C17.8398 41.1709 17.739 39.8381 18.2458 38.4804C18.3189 38.2837 18.2934 38.1612 18.1432 38.0093C16.9429 36.7976 15.9612 35.3873 15.2417 33.8408C15.1784 33.7054 15.1413 33.5167 15.0338 33.4558C14.9348 33.3995 14.757 33.4824 14.6138 33.5017C13.6436 33.6322 12.6955 33.5139 11.7631 33.2392C10.4544 32.8542 9.26654 32.2382 8.23684 31.3359C7.59844 30.7759 7.06224 30.135 6.76019 29.3279C6.44519 28.4862 6.48018 27.6763 7.05803 26.9479C7.47803 26.4229 8.05555 26.151 8.70025 26.0229C9.84685 25.7947 10.9619 25.9672 12.0581 26.3218C13.0641 26.6474 14.0088 27.1383 14.8536 27.7743C14.8886 27.8012 14.9285 27.8233 14.9873 27.8614C15.0597 27.7214 15.1206 27.5909 15.1924 27.467C15.5602 26.8314 16.0285 26.2983 16.7383 26.0376C17.705 25.6823 18.7008 26.1153 19.1778 27.0809C19.6678 28.0749 19.6521 29.1071 19.398 30.1522C19.277 30.6703 19.0611 31.1615 18.761 31.6008C18.6871 31.7076 18.7071 31.78 18.7785 31.8791C19.3936 32.7289 20.0046 33.5813 20.6118 34.4362C20.7168 34.5832 20.8116 34.7372 20.9072 34.8912C20.9653 34.985 21.0195 35.0007 21.1172 34.9297C22.115 34.1992 23.2018 33.628 24.3407 33.1545C25.614 32.6253 26.9307 32.2336 28.2782 31.9407C28.45 31.9036 28.4805 31.843 28.4381 31.6817C28.1189 30.463 27.7637 29.2562 27.3181 28.0767C27.3017 28.0333 27.2898 27.9881 27.2758 27.9437C27.4476 27.8936 27.6275 27.8618 27.7889 27.7893C28.1627 27.6213 28.5274 27.4334 28.8956 27.2535C29.1091 27.8569 29.3415 28.4543 29.5308 29.0654C29.7702 29.8382 29.9774 30.6208 30.1909 31.4013C30.2259 31.5298 30.2816 31.57 30.4111 31.5518C30.8948 31.4818 31.3785 31.4027 31.865 31.3635C32.5198 31.3107 33.1775 31.2872 33.8344 31.2585C34.2124 31.2424 34.5911 31.2372 34.9698 31.2372C36.5134 31.2393 38.0547 31.3534 39.5818 31.5784C39.727 31.5994 39.7736 31.5469 39.8068 31.4153C40.1344 30.1161 40.5068 28.8299 40.979 27.5741C41.0199 27.4652 41.0679 27.3592 41.1127 27.2521C41.3927 27.3998 41.6688 27.5646 41.9604 27.6903C42.2089 27.8037 42.4766 27.8653 42.736 27.9472Z" fill="#307BF6"/>
<path d="M42.736 27.9472C42.4766 27.8653 42.2089 27.8037 41.9608 27.6966C41.6692 27.5709 41.3948 27.4061 41.113 27.2584C40.803 26.9525 40.448 26.6812 40.1915 26.3351C39.3452 25.1878 39.0879 23.9327 39.7365 22.6086C40.2265 21.6125 41.0836 21.0686 42.1767 20.9636C43.5718 20.8292 44.7345 21.3136 45.6417 22.3958C46.2017 23.0647 46.5363 23.8256 46.5836 24.6985C46.691 26.6795 45.0785 28.1656 43.0461 27.9724C42.9442 27.9633 42.8399 27.9559 42.736 27.9472ZM43.156 22.1288C43.0002 22.1459 42.8438 22.1571 42.6891 22.1809C41.4991 22.365 40.4806 23.3324 40.2436 24.52C40.1642 24.9186 40.1964 25.3113 40.5331 25.5959C41.0581 26.0404 41.8477 25.7439 41.9467 25.0523C42.0265 24.4976 42.3209 24.1539 42.8326 23.9782C42.9535 23.9372 43.0805 23.9173 43.2081 23.9194C43.478 23.925 43.5988 24.1035 43.5036 24.3544C43.4595 24.472 43.3807 24.5767 43.3145 24.6852C43.2421 24.8042 43.1521 24.9144 43.0944 25.0394C43.0109 25.2145 42.989 25.4127 43.0322 25.6018C43.0755 25.791 43.1814 25.96 43.3327 26.0813C43.6281 26.32 44.0775 26.3389 44.3862 26.0925C44.5624 25.9509 44.7172 25.7845 44.8458 25.5987C45.2833 24.9687 45.4317 24.2746 45.2059 23.5274C44.9595 22.7129 44.1174 22.1214 43.1553 22.1288H43.156Z" fill="#313131"/>
<path d="M28.8959 27.2587C28.5277 27.4386 28.163 27.6266 27.7892 27.7946C27.6279 27.867 27.448 27.8996 27.2761 27.9489C27.1949 27.9545 27.1137 27.958 27.0329 27.9661C25.93 28.0746 24.9455 27.8051 24.2035 26.9539C23.2585 25.8689 23.1986 24.632 23.7576 23.3576C24.2126 22.3206 24.9826 21.5586 26.0546 21.1831C27.3118 20.7431 28.5326 20.8191 29.5896 21.727C30.2816 22.322 30.6099 23.106 30.6113 24.016C30.613 25.3236 30.0219 26.3375 29.0272 27.1443C28.9817 27.1803 28.9393 27.2206 28.8959 27.2587ZM24.6819 24.1815C24.7054 24.3541 24.7103 24.5315 24.7551 24.6981C24.9021 25.2487 25.1453 25.7499 25.6182 26.0946C25.9209 26.3155 26.2615 26.3396 26.5873 26.1391C26.8999 25.9487 27.0518 25.6519 26.9765 25.2928C26.9345 25.0912 26.8078 24.9078 26.7119 24.717C26.6493 24.5935 26.5565 24.4832 26.5072 24.3555C26.4099 24.1042 26.5352 23.9005 26.8008 23.9243C27.0301 23.9446 27.2534 24.0082 27.4588 24.1119C27.8319 24.303 27.9957 24.6432 28.064 25.0551C28.1791 25.7516 28.9544 26.0407 29.4769 25.5941C29.8224 25.2991 29.8364 24.9025 29.7597 24.5014C29.6218 23.7773 29.2267 23.2064 28.6432 22.7675C27.9667 22.2586 27.21 22.0325 26.363 22.1855C25.8932 22.2682 25.4673 22.5134 25.16 22.8783C24.8527 23.2432 24.6835 23.7045 24.6819 24.1815Z" fill="#313131"/>
</svg>
