<svg width="70" height="70" viewBox="0 0 70 70" fill="none" xmlns="http://www.w3.org/2000/svg">
<circle cx="35" cy="35" r="35" fill="#307BF6"/>
<path d="M61.1077 29.3758C61.0433 30.9008 61.0195 32.4292 60.9036 33.9507C60.7682 35.7325 60.562 37.5095 60.3678 39.2864C60.2691 40.1891 60.1497 41.0907 59.9964 41.9856C59.9415 42.3062 59.9786 42.5705 60.0895 42.8694C60.6737 44.4444 60.3401 45.8821 59.3685 47.203C58.6024 48.2443 57.5982 49.0168 56.5041 49.6789C54.6547 50.7989 52.6485 51.5434 50.5828 52.144C48.5339 52.736 46.4434 53.1735 44.329 53.4526C42.95 53.6371 41.564 53.7697 40.1777 53.8919C38.1561 54.0647 36.1261 54.1184 34.0982 54.0529C32.5092 54.0056 30.9209 53.9069 29.3357 53.7865C27.1615 53.6213 25.0083 53.2895 22.8754 52.8373C20.4359 52.32 18.0475 51.6355 15.7704 50.603C14.4548 50.0062 13.2025 49.3023 12.0954 48.3654C11.2127 47.6195 10.4651 46.7673 10.0416 45.6704C9.65661 44.6718 9.65416 43.6698 10.0087 42.6604C10.0357 42.5837 10.015 42.4854 10.0003 42.4004C9.94395 42.0745 9.86766 41.7515 9.82216 41.4242C9.67096 40.3392 9.51906 39.2542 9.38851 38.1692C9.28106 37.2792 9.18271 36.3867 9.11796 35.4924C9.01296 34.0347 8.89396 32.5752 8.85896 31.1146C8.82396 29.6124 8.85335 28.1071 8.90655 26.6049C8.94155 25.6172 9.03885 24.6288 9.1603 23.647C9.35945 22.037 9.68076 20.4494 10.3136 18.943C10.6363 18.173 11.0514 17.4622 11.6436 16.8647C12.5574 15.9428 13.8346 15.6842 15.0449 16.1714C15.8317 16.4864 16.4935 16.9869 17.0994 17.5668C18.2078 18.628 19.0744 19.8768 19.8549 21.1855C21.3221 23.647 22.453 26.2661 23.4599 28.9418C24.1998 30.9057 24.847 32.9007 25.4343 34.9149C25.4731 35.0483 25.513 35.1011 25.6709 35.0812C26.7454 34.9447 27.8202 34.8099 28.8975 34.6993C29.6042 34.6269 30.3143 34.5716 31.0241 34.5499C32.6026 34.5019 34.1818 34.4526 35.7607 34.4557C36.9717 34.4582 38.1858 34.5016 39.393 34.5957C40.8493 34.7112 42.2997 34.9002 43.7526 35.0591C43.909 35.0759 44.0651 35.0969 44.2191 35.1291C44.3444 35.1543 44.4032 35.1239 44.4438 34.9923C44.8232 33.7617 45.1918 32.5276 45.5988 31.3064C46.3982 28.9117 47.3138 26.5618 48.4013 24.2809C49.1517 22.7059 49.9763 21.1732 50.9755 19.7389C51.5597 18.8989 52.2005 18.1069 52.9579 17.4174C53.5743 16.8574 54.2403 16.3674 55.0429 16.1052C56.1874 15.7293 57.2146 15.9449 58.1159 16.744C58.804 17.354 59.2432 18.1328 59.5936 18.9668C60.1658 20.3318 60.4668 21.7668 60.6817 23.2214C60.8867 24.6227 61.005 26.0353 61.0359 27.4512C61.051 28.0917 61.0384 28.7329 61.0384 29.3741L61.1077 29.3758ZM26.3215 48.5992C26.7464 48.5572 27.3988 48.5191 28.0425 48.4242C29.0092 48.2818 29.9227 47.9762 30.7336 47.4092C31.9789 46.5384 32.3713 45.1647 31.7647 43.7755C31.4455 43.0447 30.9331 42.4606 30.343 41.938C29.2843 41.0011 28.046 40.3721 26.7415 39.865C25.8107 39.5076 24.8447 39.2495 23.8596 39.095C22.5296 38.8794 21.1965 38.7943 19.8553 38.9599C18.8462 39.0844 17.8729 39.3316 16.9972 39.873C16.2856 40.313 15.7372 40.8936 15.517 41.7235C15.2783 42.6167 15.5086 43.4311 15.9797 44.1927C16.5117 45.053 17.2534 45.7075 18.0937 46.2469C20.529 47.8093 23.2212 48.5093 26.3215 48.5992ZM43.79 48.58C45.1028 48.5723 46.4089 48.3926 47.675 48.0455C49.3312 47.5989 50.8933 46.9451 52.2775 45.9123C53.0227 45.3561 53.6747 44.7104 54.0975 43.8689C54.5525 42.9688 54.6327 42.0528 54.1441 41.1365C53.8 40.4911 53.2572 40.048 52.6219 39.7134C51.5849 39.1671 50.4607 38.9462 49.3046 38.8944C47.0132 38.7926 44.8008 39.1657 42.6809 40.0592C41.6228 40.5051 40.6211 41.0448 39.7349 41.7819C39.0374 42.3622 38.4417 43.0241 38.0857 43.8749C37.6122 45.0065 37.8407 46.1642 38.7119 47.0284C39.1627 47.4757 39.7031 47.7809 40.2893 48.0084C41.4167 48.4449 42.5909 48.5814 43.79 48.5793V48.58ZM34.9326 52.627C35.0187 52.627 35.0946 52.627 35.1702 52.627C35.9374 52.6119 36.579 52.0869 36.7102 51.332C36.8933 50.276 36.4838 49.4357 35.7218 48.7312C35.1643 48.2156 34.7418 48.211 34.1703 48.735C33.4867 49.3629 33.0916 50.1171 33.1486 51.0629C33.1836 51.6228 33.4185 52.0814 33.9057 52.388C34.2228 52.5875 34.5759 52.6459 34.9326 52.627Z" fill="#313131"/>
<path d="M26.3215 48.5992C23.2212 48.5075 20.529 47.8093 18.0937 46.2465C17.2537 45.7072 16.5117 45.0527 15.9797 44.1924C15.5086 43.4308 15.2797 42.6174 15.517 41.7231C15.7386 40.8933 16.287 40.3126 16.9972 39.8727C17.8722 39.3312 18.8462 39.0841 19.8553 38.9595C21.1965 38.794 22.5289 38.879 23.8596 39.0946C24.8446 39.2492 25.8106 39.5073 26.7415 39.8646C28.046 40.3718 29.2843 41.0007 30.343 41.9377C30.9331 42.4602 31.4455 43.0444 31.7647 43.7752C32.3713 45.1643 31.9789 46.5381 30.7336 47.4089C29.9227 47.9759 29.0092 48.2814 28.0425 48.4239C27.3988 48.5191 26.7464 48.5572 26.3215 48.5992ZM29.9041 46.9542C29.8485 46.2175 29.6378 45.4604 29.1849 44.7863C28.7484 44.1367 28.1699 43.6726 27.3799 43.5459C26.5224 43.4084 25.8105 43.7262 25.2204 44.332C24.8075 44.748 24.5092 45.2636 24.3545 45.829C24.3027 46.008 24.3209 46.2001 24.4054 46.3662C24.4899 46.5324 24.6343 46.6602 24.8095 46.7239C25.1546 46.8555 25.5347 46.7057 25.7293 46.3557C25.7739 46.2675 25.8136 46.177 25.8483 46.0845C25.9883 45.753 26.171 45.451 26.4608 45.227C26.8287 44.9428 27.2382 44.9508 27.5973 45.2438C27.8521 45.4517 28.0214 45.7205 28.1544 46.0155C28.3224 46.3869 28.3841 46.782 28.4268 47.1842C28.4719 47.614 28.7614 47.9027 29.1373 47.9164C29.6098 47.9339 29.9356 47.5555 29.9041 46.9542Z" fill="#ECF6FF"/>
<path d="M43.79 48.5793C42.5923 48.5793 41.4167 48.4441 40.29 48.0077C39.7038 47.7802 39.1634 47.475 38.7126 47.0277C37.8421 46.1635 37.6129 45.0058 38.0864 43.8742C38.4424 43.0234 39.0381 42.3615 39.7356 41.7812C40.6218 41.0441 41.6235 40.5044 42.6816 40.0585C44.8015 39.165 47.0139 38.7919 49.3053 38.8937C50.4603 38.9455 51.5856 39.1663 52.6226 39.7127C53.2579 40.0473 53.8007 40.4904 54.1448 41.1358C54.6348 42.0521 54.5518 42.968 54.0982 43.8682C53.6744 44.7082 53.0223 45.3554 52.2782 45.9116C50.894 46.9444 49.3319 47.5982 47.6757 48.0448C46.4094 48.3919 45.103 48.5716 43.79 48.5793ZM39.9859 47.0119C39.9901 47.0798 39.9908 47.1614 40.0006 47.2423C40.0464 47.6105 40.3135 47.8848 40.6509 47.9135C41.0156 47.9443 41.3225 47.7386 41.4289 47.3749C41.4727 47.2258 41.4818 47.0659 41.5028 46.9105C41.577 46.3505 41.7478 45.8311 42.1328 45.4034C42.6039 44.8808 43.2059 44.8815 43.6423 45.431C43.831 45.668 43.9696 45.9508 44.0994 46.2276C44.2744 46.6004 44.5733 46.809 44.9307 46.761C45.4252 46.6949 45.6912 46.201 45.5036 45.6809C45.3552 45.2688 45.1398 44.8841 44.8659 44.5423C43.8303 43.2473 42.1709 43.1623 41.0509 44.3589C40.3607 45.0995 40.0786 46.012 39.9859 47.0126V47.0119Z" fill="#ECF6FF"/>
<path d="M29.9041 46.9542C29.9356 47.5555 29.6098 47.9342 29.1362 47.9164C28.7603 47.9027 28.4712 47.614 28.4257 47.1842C28.383 46.782 28.3207 46.3869 28.1534 46.0155C28.0204 45.7205 27.851 45.4517 27.5962 45.2438C27.2371 44.9508 26.8262 44.9428 26.4598 45.227C26.17 45.451 25.9876 45.752 25.8473 46.0845C25.8125 46.177 25.7728 46.2675 25.7283 46.3557C25.5337 46.7057 25.1536 46.8555 24.8085 46.7239C24.6333 46.6602 24.4888 46.5324 24.4043 46.3662C24.3199 46.2001 24.3017 46.008 24.3535 45.829C24.5082 45.2636 24.8064 44.748 25.2194 44.332C25.8095 43.7262 26.5214 43.4084 27.3789 43.5459C28.1692 43.6726 28.7474 44.1367 29.1838 44.7863C29.6378 45.4604 29.8485 46.2175 29.9041 46.9542Z" fill="#313131"/>
<path d="M39.9859 47.0126C40.0786 46.012 40.3607 45.0996 41.0527 44.3597C42.1709 43.163 43.831 43.2474 44.8677 44.5431C45.1415 44.8848 45.357 45.2695 45.5054 45.6816C45.693 46.2003 45.427 46.6966 44.9324 46.7617C44.5751 46.8097 44.2758 46.6011 44.1012 46.2283C43.9713 45.9515 43.8327 45.6683 43.6441 45.4317C43.2076 44.8822 42.6056 44.8815 42.1345 45.4041C41.7495 45.8318 41.578 46.3515 41.5045 46.9112C41.4835 47.0666 41.4744 47.2262 41.4307 47.3756C41.3257 47.7407 41.0173 47.9451 40.6526 47.9143C40.3152 47.8856 40.0482 47.6112 40.0023 47.243C39.9908 47.1621 39.9901 47.0805 39.9859 47.0126Z" fill="#313131"/>
</svg>
