<svg width="70" height="70" viewBox="0 0 70 70" fill="none" xmlns="http://www.w3.org/2000/svg">
<circle cx="35" cy="35" r="35" fill="#307BF6"/>
<path d="M44.7733 54.6795C44.2833 54.6609 43.7933 54.6522 43.3061 54.6214C42.4275 54.5657 41.5531 54.458 40.6874 54.2987C39.5514 54.0917 38.4333 53.7961 37.3435 53.4146C36.6391 53.1676 35.9481 52.8842 35.2732 52.5655C35.247 52.5533 35.22 52.5417 35.1945 52.5277C35.0944 52.4714 34.9978 52.477 34.8942 52.526C34.652 52.6408 34.4079 52.7518 34.162 52.8592C33.2366 53.2609 32.284 53.5965 31.3112 53.8637C30.4738 54.0949 29.6235 54.2763 28.7646 54.4068C28.188 54.4943 27.609 54.5599 27.0276 54.6035C26.266 54.6611 25.502 54.6804 24.7386 54.6613C24.2318 54.649 23.726 54.6155 23.2206 54.5689C22.0303 54.4587 20.8512 54.2501 19.6954 53.9452C18.584 53.6529 17.5002 53.2645 16.4562 52.7843C15.5762 52.3805 14.7312 51.9045 13.9299 51.3612C13.3512 50.9678 12.7998 50.5358 12.2796 50.0679C11.4082 49.2911 10.6412 48.4046 9.99762 47.4307C9.41894 46.5534 8.95866 45.6036 8.62876 44.6058C8.40136 43.9191 8.24182 43.2117 8.15241 42.4939C8.08737 41.9909 8.05755 41.4839 8.06317 40.9767C8.07635 39.9435 8.23637 38.9174 8.53845 37.9292C8.85627 36.897 9.32611 35.9179 9.93251 35.0242C10.465 34.2429 11.0934 33.5314 11.8029 32.9064C12.6001 32.2045 13.4807 31.6035 14.4248 31.1168C15.3784 30.6241 16.3781 30.2262 17.4096 29.9289C18.3393 29.6596 19.2866 29.4548 20.2446 29.3161C20.8616 29.2254 21.4822 29.1635 22.1048 29.1197C22.7971 29.0707 23.4901 29.0518 24.1842 29.0543C24.2367 29.0543 24.2892 29.0543 24.3413 29.0508C24.3531 29.0517 24.3649 29.05 24.376 29.0459C24.3871 29.0418 24.3971 29.0354 24.4055 29.027C24.4139 29.0187 24.4204 29.0086 24.4245 28.9976C24.4286 28.9865 24.4304 28.9747 24.4295 28.9629C24.4316 28.9221 24.4316 28.8812 24.4295 28.8404C24.4222 28.6598 24.4054 28.4792 24.4078 28.299C24.411 28.0309 24.4201 27.7628 24.4404 27.4957C24.4783 26.9954 24.5676 26.5003 24.7071 26.0184C24.7396 25.906 24.7134 25.836 24.6266 25.7601C24.3543 25.5228 24.0785 25.2876 23.8251 25.031C22.9351 24.1361 22.2005 23.0991 21.6516 21.9626C21.3104 21.2652 21.0625 20.526 20.9145 19.7639C20.8436 19.3973 20.8066 19.0249 20.8039 18.6516C20.8021 18.1476 20.8648 17.6509 21.0443 17.1753C21.4202 16.1806 22.1384 15.5912 23.1758 15.3843C23.7628 15.2671 24.3476 15.308 24.9293 15.4284C25.5733 15.5614 26.1809 15.7959 26.7668 16.0903C27.4798 16.4518 28.1512 16.8901 28.7692 17.3972C29.1227 17.6833 29.4602 17.9887 29.78 18.3121C30.4391 18.9733 31.0182 19.7099 31.5051 20.5066C31.6063 20.6746 31.6073 20.6795 31.8135 20.6602C32.3656 20.6156 32.9201 20.6051 33.4735 20.6291C33.8871 20.6472 34.2994 20.6865 34.709 20.7467C34.8536 20.766 35 20.7669 35.1448 20.7495C35.7876 20.6731 36.4355 20.6477 37.0824 20.6735C37.4082 20.6875 37.733 20.7239 38.0582 20.7505C38.0757 20.7505 38.0932 20.7554 38.11 20.7579C38.1416 20.7651 38.1746 20.7617 38.2041 20.7482C38.2336 20.7347 38.2578 20.7119 38.2731 20.6833C38.3081 20.6231 38.3473 20.5647 38.384 20.5052C38.6834 20.0252 39.0213 19.5703 39.3945 19.1451C39.9707 18.4785 40.6199 17.8787 41.33 17.3569C42.03 16.8442 42.7723 16.4119 43.5794 16.0903C44.1394 15.868 44.7169 15.7053 45.3175 15.6391C45.8425 15.581 46.3675 15.5964 46.8796 15.7322C47.3916 15.868 47.8547 16.1151 48.2285 16.5043C48.5475 16.8396 48.782 17.2461 48.9124 17.6901C49.0856 18.2613 49.1224 18.8451 49.0674 19.438C48.9589 20.5958 48.5704 21.6619 48.0192 22.6762C47.6836 23.2906 47.29 23.8714 46.8439 24.4108C46.3884 24.9653 45.8785 25.4726 45.3217 25.9253C45.1499 26.0653 45.1723 26.0653 45.2199 26.2319C45.4375 26.9896 45.5405 27.7757 45.5254 28.5639C45.5226 28.7389 45.5149 28.9139 45.5121 29.0889C45.5121 29.1806 45.5328 29.2051 45.6227 29.2079C45.8499 29.2153 46.0777 29.2163 46.3045 29.2244C46.7529 29.2398 47.2019 29.2489 47.6499 29.2779C48.4642 29.3311 49.2748 29.4214 50.0817 29.5488C51.1366 29.712 52.1778 29.9539 53.1967 30.2723C54.0486 30.5383 54.8773 30.8735 55.6747 31.2743C56.5768 31.7273 57.4234 32.2833 58.1975 32.9312C59.1893 33.7587 60.0241 34.7581 60.6619 35.8814C61.2883 36.9844 61.7074 38.1928 61.8984 39.4468C61.9981 40.0806 62.0405 40.722 62.0251 41.3634C61.9986 42.4081 61.8269 43.4439 61.5152 44.4413C61.3053 45.1153 61.0346 45.7687 60.7063 46.3936C60.2385 47.2818 59.6675 48.1115 59.005 48.8657C58.6425 49.2768 58.2579 49.6679 57.8528 50.0371C57.244 50.59 56.5908 51.092 55.8998 51.5379C54.7145 52.3057 53.4444 52.9339 52.1149 53.41C51.0998 53.7759 50.0577 54.062 48.9981 54.2658C48.306 54.4013 47.6074 54.5018 46.9051 54.5668C46.1201 54.6382 45.4082 54.6711 44.7733 54.6795ZM36.5654 29.2566C36.57 29.3731 36.5745 29.5303 36.5833 29.6874C36.5894 29.81 36.6189 29.9304 36.6701 30.042C36.7182 30.1486 36.7902 30.2427 36.8804 30.3173C36.9706 30.3918 37.0766 30.4447 37.1904 30.4719C37.3042 30.4991 37.4227 30.4998 37.5368 30.4742C37.6509 30.4485 37.7577 30.397 37.8489 30.3237C37.9337 30.2561 38.0032 30.1712 38.0526 30.0746C38.1021 29.9781 38.1305 29.8721 38.1359 29.7637C38.1409 29.6587 38.1396 29.5535 38.132 29.4487C38.1081 29.0118 38.1583 28.5739 38.2804 28.1537C38.3956 27.7642 38.5678 27.4033 38.8334 27.0918C38.9672 26.9293 39.132 26.7951 39.3182 26.697C39.616 26.5451 39.9132 26.5479 40.2033 26.7145C40.2785 26.7589 40.3498 26.8094 40.4165 26.8657C40.5407 26.972 40.6483 27.0964 40.7357 27.2346C40.9414 27.5535 41.0805 27.9106 41.1448 28.2846C41.177 28.4621 41.1938 28.6423 41.2148 28.8219C41.2238 28.9498 41.2502 29.0759 41.2932 29.1967C41.3602 29.373 41.4907 29.5178 41.6592 29.6026C41.8277 29.6873 42.0218 29.7058 42.2032 29.6545C42.4692 29.5758 42.6393 29.3955 42.7237 29.133C42.7645 28.9927 42.7787 28.846 42.7657 28.7004C42.7336 28.0464 42.5703 27.4056 42.2855 26.816C42.0405 26.3169 41.7167 25.8791 41.2663 25.5469C40.5383 25.0104 39.7438 24.877 38.8863 25.1815C38.5899 25.2898 38.3148 25.4493 38.0736 25.6526C37.6613 25.9914 37.3526 26.4111 37.1146 26.8853C36.7467 27.6196 36.5822 28.4001 36.5654 29.2566ZM31.8278 29.3199C31.8243 29.3794 31.8145 29.4669 31.8152 29.5541C31.8121 29.6586 31.8183 29.7632 31.8338 29.8666C31.863 30.0317 31.9461 30.1824 32.07 30.2953C32.1939 30.4082 32.3517 30.4769 32.5187 30.4907C32.6887 30.5057 32.8588 30.4634 33.0019 30.3704C33.145 30.2775 33.2529 30.1393 33.3083 29.9779C33.344 29.8732 33.3655 29.7642 33.372 29.6538C33.4198 28.9954 33.3487 28.3337 33.162 27.7005C33.0137 27.1844 32.7755 26.6986 32.4582 26.2655C32.204 25.9159 31.8827 25.6205 31.5132 25.3964C30.6105 24.8578 29.5476 24.9113 28.7044 25.5364C28.4288 25.743 28.1882 25.9926 27.9918 26.2756C27.61 26.8195 27.3786 27.4257 27.2659 28.0767C27.2264 28.306 27.2085 28.5391 27.1896 28.7711C27.1756 28.9289 27.203 29.0877 27.2691 29.2317C27.3916 29.4963 27.5988 29.6538 27.8889 29.6811C28.1791 29.7084 28.4111 29.5912 28.5802 29.3535C28.6627 29.2324 28.7134 29.0926 28.7279 28.9468C28.7412 28.8369 28.7447 28.7256 28.7629 28.6164C28.7947 28.4211 28.8238 28.2244 28.8721 28.033C28.9514 27.7091 29.0941 27.4042 29.2921 27.1359C29.4175 26.9593 29.5802 26.8125 29.7688 26.7058C29.8957 26.6323 30.039 26.5916 30.1857 26.5873C30.3323 26.5831 30.4777 26.6153 30.6088 26.6813C30.7559 26.7527 30.8901 26.8483 31.0057 26.9641C31.2084 27.1664 31.3732 27.4035 31.4922 27.6641C31.7312 28.1786 31.8275 28.7253 31.8278 29.3203V29.3199ZM34.9239 36.8222C35.2039 36.8264 35.402 36.7427 35.5686 36.5772C35.6564 36.4912 35.7257 36.3883 35.7725 36.2747C35.8192 36.1611 35.8424 36.0392 35.8406 35.9164C35.8398 35.8586 35.8522 35.8014 35.8769 35.7492C35.9016 35.697 35.9379 35.6511 35.983 35.615C36.2315 35.3935 36.4888 35.1849 36.7835 35.0267C36.8928 34.9713 36.9922 34.8981 37.0775 34.81C37.2122 34.6695 37.2862 34.4816 37.2835 34.287C37.2808 34.0923 37.2017 33.9065 37.0631 33.7698C36.8503 33.557 36.5924 33.5045 36.3061 33.5654C36.1302 33.6087 35.9634 33.683 35.8136 33.7849C35.5775 33.9347 35.3523 34.101 35.1395 34.2826C34.9799 34.4184 34.9824 34.4152 34.82 34.2896C34.6131 34.1289 34.4038 33.9711 34.19 33.8181C34.0665 33.7302 33.9317 33.6596 33.7892 33.6081C33.6582 33.5579 33.518 33.5364 33.378 33.5451C32.9681 33.5745 32.6542 33.9242 32.6734 34.3151C32.6756 34.4261 32.7023 34.5352 32.7516 34.6346C32.8008 34.7341 32.8714 34.8215 32.9583 34.8905C33.0169 34.9386 33.0801 34.9808 33.147 35.0165C33.427 35.1635 33.672 35.3613 33.9121 35.565C33.9565 35.6028 33.9975 35.6444 34.0395 35.6843C34.0633 35.7059 34.0823 35.7324 34.095 35.762C34.1076 35.7916 34.1138 35.8236 34.113 35.8558C34.113 35.9024 34.113 35.9489 34.1165 35.9958C34.1543 36.468 34.5179 36.8204 34.9239 36.8222Z" fill="#313131"/>
<path d="M36.5654 29.2566C36.5822 28.4001 36.7464 27.6196 37.1135 26.8874C37.3515 26.4132 37.6602 25.9935 38.0725 25.6547C38.3138 25.4514 38.5889 25.2919 38.8852 25.1836C39.7434 24.8791 40.5379 25.0125 41.2652 25.549C41.7157 25.8812 42.0401 26.319 42.2844 26.8181C42.5692 27.4077 42.7325 28.0485 42.7646 28.7025C42.7777 28.8481 42.7634 28.9948 42.7226 29.1351C42.6383 29.3976 42.4682 29.5779 42.2022 29.6566C42.0207 29.7079 41.8266 29.6894 41.6581 29.6047C41.4897 29.5199 41.3591 29.3751 41.2922 29.1988C41.2492 29.078 41.2228 28.9519 41.2138 28.824C41.1938 28.6444 41.177 28.4642 41.1438 28.2867C41.0795 27.9127 40.9403 27.5556 40.7346 27.2367C40.6473 27.0985 40.5397 26.9741 40.4154 26.8678C40.3487 26.8115 40.2774 26.761 40.2023 26.7166C39.9114 26.55 39.615 26.5472 39.3171 26.6991C39.1309 26.7972 38.9661 26.9314 38.8324 27.0939C38.5667 27.4054 38.3945 27.7663 38.2794 28.1558C38.1572 28.576 38.1071 29.0139 38.131 29.4508C38.1386 29.5556 38.1399 29.6608 38.1348 29.7658C38.1294 29.8742 38.1011 29.9802 38.0516 30.0767C38.0021 30.1733 37.9326 30.2582 37.8478 30.3258C37.7566 30.3991 37.6499 30.4506 37.5358 30.4763C37.4216 30.5019 37.3031 30.5012 37.1893 30.474C37.0755 30.4468 36.9695 30.3939 36.8793 30.3194C36.7891 30.2448 36.7172 30.1507 36.669 30.0441C36.6178 29.9325 36.5884 29.8121 36.5822 29.6895C36.5745 29.5303 36.5717 29.3731 36.5654 29.2566Z" fill="#ECF6FF"/>
<path d="M31.8278 29.3203C31.8278 28.7253 31.7312 28.1789 31.4866 27.6637C31.3676 27.4032 31.2028 27.1661 31.0001 26.9637C30.8845 26.8479 30.7503 26.7523 30.6032 26.6809C30.4721 26.615 30.3267 26.5827 30.1801 26.587C30.0334 26.5913 29.8902 26.632 29.7632 26.7054C29.5746 26.8121 29.4119 26.959 29.2865 27.1356C29.0885 27.4039 28.9458 27.7088 28.8665 28.0326C28.8182 28.2241 28.7891 28.4208 28.7573 28.6161C28.7398 28.7253 28.7363 28.8366 28.7223 28.9465C28.7079 29.0923 28.6571 29.2321 28.5746 29.3532C28.4055 29.5908 28.1738 29.7084 27.8833 29.6808C27.5928 29.6531 27.386 29.496 27.2635 29.2314C27.1974 29.0873 27.17 28.9286 27.184 28.7708C27.2029 28.5387 27.2208 28.3056 27.2603 28.0764C27.373 27.4254 27.6044 26.8192 27.9862 26.2753C28.1826 25.9922 28.4232 25.7426 28.6988 25.5361C29.542 24.9092 30.6049 24.8557 31.5076 25.3961C31.8771 25.6201 32.1984 25.9156 32.4526 26.2651C32.7699 26.6983 33.0081 27.1841 33.1564 27.7001C33.3431 28.3333 33.4142 28.995 33.3664 29.6535C33.3599 29.7639 33.3384 29.8729 33.3027 29.9776C33.2473 30.139 33.1394 30.2771 32.9963 30.3701C32.8532 30.463 32.6831 30.5053 32.5131 30.4903C32.3461 30.4765 32.1883 30.4078 32.0644 30.2949C31.9405 30.182 31.8574 30.0313 31.8282 29.8663C31.8127 29.7628 31.8065 29.6582 31.8096 29.5537C31.8145 29.4669 31.8243 29.3794 31.8278 29.3203Z" fill="#ECF6FF"/>
</svg>
