<svg width="70" height="70" viewBox="0 0 70 70" fill="none" xmlns="http://www.w3.org/2000/svg">
<circle cx="35" cy="35" r="35" fill="#307BF6"/>
<path d="M19.4686 41.4272C19.3986 41.4471 19.3615 41.5021 19.3198 41.5493C18.9706 41.9496 18.672 42.3913 18.4308 42.8646C18.0668 43.5748 17.8215 44.3266 17.6363 45.1001C17.2902 46.5459 17.1813 48.011 17.2692 49.4936C17.2919 49.8657 17.3042 50.2388 17.322 50.6115C17.328 50.7337 17.3381 50.8565 17.3458 50.978C17.3639 51.1756 17.3561 51.3748 17.3227 51.5705C17.2936 51.7255 17.2359 51.8737 17.1526 52.0077C17.1316 52.0427 17.1076 52.0758 17.0809 52.1067C16.9584 52.2446 16.8152 52.2691 16.6581 52.1767C16.6036 52.1429 16.5526 52.1039 16.5058 52.0602C16.3447 51.9147 16.2262 51.7282 16.1632 51.5205C16.1002 51.3147 16.048 51.1047 16.0053 50.8936C15.7953 49.8468 15.753 48.7891 15.8041 47.7254C15.8345 47.0497 15.9087 46.3766 16.026 45.7105C16.201 44.7263 16.4502 43.7624 16.8394 42.8387C17.1813 42.0271 17.6241 41.2774 18.2068 40.6134C18.2338 40.583 18.2593 40.5508 18.2842 40.5186C18.2903 40.5084 18.2951 40.4974 18.2985 40.486C18.3041 40.4248 18.2562 40.395 18.2201 40.3583C17.9919 40.1252 17.7567 39.8984 17.5362 39.6583C16.9436 39.0138 16.4341 38.2976 16.0197 37.5264C15.8178 37.1511 15.6399 36.7633 15.487 36.3655C15.4646 36.307 15.452 36.2412 15.3949 36.1971C15.3302 36.1947 15.2882 36.2384 15.243 36.2724C14.9122 36.5214 14.5979 36.7917 14.3022 37.0816C13.4031 37.9636 12.6163 38.9348 11.9775 40.0216C11.6477 40.5855 11.3653 41.1759 11.1333 41.7866C10.7553 42.7662 10.4564 43.7745 10.2398 44.8019C10.1079 45.4415 10.0276 46.0908 9.99967 46.7433C9.97272 47.3495 9.97798 47.9557 9.99268 48.5633C9.99863 48.7964 10.0025 49.0295 10.0004 49.2633C9.99946 49.3739 9.98975 49.4843 9.97132 49.5934C9.94395 49.7921 9.84638 49.9745 9.69622 50.1075C9.46977 50.3025 9.21463 50.3627 8.93253 50.2447C8.66233 50.132 8.50587 49.8821 8.50797 49.5797C8.50707 49.5389 8.50989 49.4982 8.51637 49.4579C8.54892 49.2962 8.54542 49.1331 8.54402 48.97C8.53877 48.4219 8.53072 47.8738 8.53107 47.325C8.52872 46.4204 8.61523 45.5177 8.78937 44.63C8.93612 43.9041 9.12308 43.1869 9.34937 42.4817C9.55844 41.8078 9.80715 41.1467 10.0942 40.5021C10.5458 39.509 11.1145 38.5735 11.7882 37.7154C12.2457 37.1256 12.7432 36.5679 13.2771 36.0463C13.7519 35.5804 14.268 35.1587 14.8192 34.7863C14.8433 34.7698 14.8664 34.7513 14.892 34.7376C14.9816 34.6893 15.0043 34.6214 14.9865 34.5192C14.8933 33.9848 14.8473 33.4433 14.8489 32.9008C14.8503 31.6622 15.0652 30.4331 15.4842 29.2675C15.6467 28.8115 15.8361 28.3657 16.0515 27.9322C16.0743 27.8864 16.1096 27.8437 16.097 27.7779C16.054 27.7317 15.9878 27.7254 15.9273 27.7114C15.5923 27.634 15.2584 27.5514 14.921 27.4846C13.626 27.227 12.3163 27.0873 10.9933 27.1223C10.2825 27.1412 9.57197 27.1734 8.86357 27.2427C8.56747 27.2714 8.27066 27.2938 7.97351 27.2588C7.86361 27.2459 7.75337 27.2312 7.64522 27.2091C7.5764 27.1964 7.50964 27.1744 7.44677 27.1437C7.39248 27.1177 7.34498 27.0795 7.30805 27.032C7.27112 26.9845 7.24577 26.929 7.23402 26.87C7.22226 26.811 7.22443 26.7501 7.24034 26.692C7.25625 26.634 7.28546 26.5805 7.32567 26.5357C7.38494 26.4717 7.45292 26.4163 7.52762 26.3712C7.7933 26.2008 8.08527 26.0755 8.39177 26.0002C8.96805 25.8524 9.55601 25.7546 10.1491 25.708C11.3247 25.6252 12.5055 25.6592 13.6743 25.8095C14.7047 25.9363 15.7244 26.139 16.7249 26.416C16.9062 26.4664 16.9031 26.4724 17.0119 26.3166C17.3322 25.8576 17.6786 25.4172 18.0493 24.9978C18.5488 24.4353 19.0855 23.907 19.6558 23.4165C20.737 22.4834 21.914 21.6893 23.1583 20.991C24.4568 20.2655 25.8166 19.6553 27.2218 19.1675C28.7574 18.6282 30.3424 18.2413 31.9538 18.0125C32.5313 17.931 33.1116 17.8802 33.6929 17.8312C34.0534 17.8008 34.4146 17.7962 34.7748 17.7728C34.8504 17.77 34.9262 17.7717 35.0016 17.778C35.1181 17.784 35.234 17.7983 35.3516 17.7997C36.5007 17.8135 37.6465 17.927 38.776 18.1389C40.4403 18.4485 42.0574 18.9728 43.5867 19.6988C44.9106 20.3254 46.1622 21.0943 47.3195 21.992C48.5122 22.9117 49.5929 23.9681 50.5395 25.1396C50.9494 25.6481 51.33 26.1795 51.6794 26.7314C51.7071 26.7751 51.7393 26.8154 51.7729 26.8619C51.8141 26.8545 51.8549 26.8448 51.895 26.8329C53.2362 26.3383 54.6219 26.0279 56.0352 25.8343C56.815 25.7259 57.601 25.6687 58.3882 25.6632C59.0767 25.66 59.7651 25.6747 60.4459 25.7881C60.7959 25.8466 61.1459 25.9183 61.4917 25.9981C61.8053 26.0694 62.104 26.1952 62.374 26.3698C62.444 26.4116 62.5084 26.4619 62.5658 26.5196C62.7622 26.7296 62.6981 27.0394 62.4349 27.1584C62.3707 27.1859 62.3036 27.2057 62.2347 27.2175C61.9541 27.2732 61.6672 27.291 61.3818 27.2707C60.9226 27.2375 60.4634 27.2007 60.0038 27.1713C59.1537 27.1188 58.3032 27.0926 57.4523 27.1552C55.8287 27.2749 54.2393 27.5696 52.6962 28.096C52.6363 28.1163 52.5712 28.1268 52.5212 28.1779C52.5026 28.2392 52.5436 28.2871 52.566 28.3382C52.6888 28.6217 52.8208 28.9014 52.9352 29.188C53.2831 30.0484 53.5254 30.9478 53.6566 31.8666C53.7503 32.5252 53.7715 33.1921 53.7196 33.8553C53.715 33.9123 53.7196 33.9701 53.7196 34.0345C53.763 34.0576 53.8025 34.0817 53.8442 34.0999C54.6194 34.4405 55.3166 34.9049 55.9627 35.4464C56.9235 36.2535 57.7477 37.1876 58.4827 38.2016C59.2755 39.296 59.8754 40.4899 60.3202 41.7639C60.6821 42.8002 60.9852 43.8527 61.1767 44.9345C61.2863 45.5371 61.3495 46.1472 61.3657 46.7594C61.3793 47.3597 61.3716 47.9603 61.3723 48.5609C61.3723 48.724 61.3639 48.8874 61.3667 49.0509C61.3692 49.1786 61.3846 49.306 61.3905 49.4338C61.4003 49.5268 61.4003 49.6207 61.3905 49.7138C61.3461 49.9822 61.1945 50.1726 60.9355 50.2647C60.6692 50.3595 60.4291 50.2958 60.2187 50.117C60.0672 49.9852 59.9679 49.8036 59.9387 49.6049C59.9193 49.4959 59.9092 49.3855 59.9083 49.2749C59.9058 49.0358 59.9083 48.7968 59.916 48.5577C59.9328 47.9106 59.9359 47.2627 59.9027 46.617C59.8524 45.7532 59.7152 44.8968 59.4932 44.0606C59.2883 43.2583 59.0351 42.4691 58.7351 41.6974C58.368 40.7565 57.8833 39.8659 57.2924 39.0468C56.7658 38.3117 56.1719 37.6273 55.5182 37.0025C55.0055 36.5146 54.4528 36.0781 53.8382 35.726C53.7423 35.6711 53.6443 35.6193 53.5456 35.5692C53.5116 35.5543 53.4765 35.5419 53.4406 35.5321C53.3731 35.5699 53.3706 35.6333 53.35 35.6858C53.245 35.9511 53.1505 36.2216 53.0329 36.4817C52.7266 37.1603 52.3206 37.7767 51.8471 38.3521C51.5272 38.7383 51.181 39.1019 50.8107 39.4402C50.7642 39.4826 50.7078 39.5183 50.6865 39.583C50.6949 39.6495 50.7505 39.6782 50.7932 39.7153C51.0446 39.9327 51.2848 40.1627 51.5128 40.4045C52.1025 41.0371 52.5848 41.7618 52.9408 42.55C53.3153 43.3644 53.5708 44.2174 53.7602 45.0913C54.0363 46.3693 54.1556 47.6761 54.1154 48.983C54.0959 49.712 54.0066 50.4375 53.8487 51.1495C53.8197 51.2798 53.7832 51.4083 53.7395 51.5345C53.6728 51.7348 53.556 51.9147 53.4004 52.0574C53.3493 52.1051 53.2931 52.147 53.2327 52.1823C53.0871 52.2639 52.9527 52.2404 52.8376 52.1176C52.8026 52.0784 52.7716 52.036 52.7448 51.9909C52.6245 51.7896 52.559 51.5603 52.5548 51.3259C52.5499 51.2153 52.5548 51.1043 52.5597 50.9937C52.5912 50.3417 52.6297 49.69 52.6556 49.0376C52.7121 47.6136 52.5578 46.1891 52.1978 44.8103C52.0359 44.1708 51.8098 43.5493 51.523 42.9553C51.127 42.1526 50.5714 41.4392 49.8902 40.8588C49.7852 40.7674 49.6767 40.6778 49.5672 40.591C49.4884 40.5291 49.4643 40.5312 49.3789 40.5844C49.3642 40.5938 49.3502 40.604 49.3358 40.6141C48.4279 41.2543 47.463 41.7961 46.4658 42.2794C46.4091 42.3067 46.3447 42.3239 46.2964 42.3904C46.3086 42.4314 46.323 42.4717 46.3398 42.5111C46.6127 43.0856 46.8251 43.687 46.9733 44.3056C47.1379 44.9679 47.2397 45.6443 47.2775 46.3258C47.3475 47.6481 47.183 48.9441 46.8515 50.2216C46.7488 50.6108 46.6125 50.9903 46.4441 51.356C46.3682 51.5276 46.2587 51.6823 46.1221 51.811C46.0211 51.9092 45.8976 51.9813 45.7623 52.021C45.5908 52.0686 45.4701 52.0273 45.364 51.8834C45.2724 51.7542 45.2168 51.603 45.203 51.4452C45.1837 51.271 45.1927 51.0947 45.2296 50.9234C45.3419 50.3991 45.4545 49.8748 45.5674 49.3505C45.7606 48.4461 45.8673 47.5326 45.8337 46.6068C45.7945 45.5313 45.5887 44.4893 45.181 43.4918C45.1281 43.3627 45.0686 43.2356 45.006 43.1107C44.9405 42.9801 44.9216 42.9749 44.7883 43.0253C44.5265 43.1247 44.2661 43.2272 44.0039 43.3249C42.9431 43.7177 41.8617 44.0529 40.7647 44.329C39.7924 44.5761 38.8107 44.7787 37.8198 44.9366C37.221 45.03 36.6201 45.1086 36.0169 45.1725C35.2161 45.2565 34.4132 45.3048 33.6093 45.3269C32.8221 45.3486 32.0343 45.3269 31.2492 45.2835C30.6962 45.2523 30.145 45.2023 29.5948 45.1379C28.6799 45.0297 27.7714 44.8728 26.8732 44.6678C26.1564 44.5051 25.4504 44.3035 24.7515 44.0756C24.5415 44.0056 24.5324 44.0102 24.4715 44.2184C24.159 45.2595 24.028 46.3466 24.084 47.4321C24.1225 48.1857 24.2447 48.9266 24.4109 49.6616C24.5061 50.0816 24.5926 50.5051 24.6829 50.9269C24.7179 51.0927 24.7273 51.2629 24.7105 51.4316C24.6984 51.5835 24.6488 51.7301 24.5663 51.8582C24.4515 52.0332 24.3112 52.0805 24.1138 52.0119C23.9481 51.9522 23.8018 51.8485 23.6906 51.7119C23.5897 51.5911 23.5072 51.4561 23.4456 51.3112C23.2471 50.8567 23.0905 50.3851 22.978 49.9021C22.7547 48.9389 22.6228 47.9641 22.6175 46.9747C22.6128 45.8649 22.7781 44.7609 23.1075 43.7011C23.1229 43.6511 23.1387 43.601 23.1509 43.5499C23.1555 43.5328 23.1539 43.5145 23.1463 43.4984C23.1388 43.4824 23.1258 43.4695 23.1096 43.4621C23.0746 43.4425 23.0365 43.4271 22.999 43.4103C21.8283 42.9056 20.7142 42.2987 19.6765 41.5553C19.6075 41.5073 19.5498 41.4457 19.4686 41.4272ZM31.2261 36.979C31.2181 36.8205 31.217 36.7039 31.2058 36.5881C31.1547 36.0505 30.9997 35.5475 30.6759 35.1093C30.2209 34.4923 29.6056 34.172 28.836 34.1668C28.391 34.1661 27.9525 34.2742 27.5588 34.4818C27.1765 34.6834 26.8337 34.9525 26.547 35.2759C26.2346 35.6231 25.9826 36.0201 25.8015 36.4505C25.4865 37.1782 25.3545 37.9314 25.4711 38.7203C25.5477 39.2376 25.735 39.7101 26.071 40.1157C26.4066 40.5339 26.8839 40.8145 27.4125 40.9043C27.9218 40.9942 28.4104 40.9158 28.8825 40.7135C29.2372 40.5618 29.5618 40.3477 29.8408 40.0814C30.7365 39.226 31.1838 38.1711 31.2261 36.979ZM37.7932 36.7648C37.8142 36.985 37.8257 37.2065 37.8583 37.4249C37.9466 38.0568 38.1822 38.6592 38.546 39.1833C38.8058 39.5657 39.1494 39.8839 39.5505 40.1136C40.463 40.6264 41.5154 40.4741 42.2424 39.7237C42.5952 39.3594 42.8223 38.9236 42.9602 38.4403C43.1534 37.7651 43.1597 37.083 43.0138 36.3991C42.8738 35.7439 42.6032 35.1496 42.1671 34.6372C41.8357 34.2483 41.4391 33.9473 40.9491 33.7884C40.2547 33.5634 39.6013 33.6575 39.0038 34.0796C38.4739 34.4541 38.1362 34.9704 37.9615 35.5888C37.8543 35.9718 37.7977 36.3671 37.7932 36.7648Z" fill="#313131"/>
<path d="M31.2261 36.979C31.1838 38.1711 30.7361 39.226 29.8398 40.0814C29.5607 40.3477 29.2361 40.5618 28.8815 40.7135C28.4104 40.9158 27.9218 40.9935 27.4115 40.9043C26.8828 40.8145 26.4055 40.5339 26.0699 40.1157C25.7339 39.7101 25.5467 39.2376 25.47 38.7203C25.3535 37.9314 25.4868 37.1782 25.8004 36.4505C25.9816 36.0201 26.2335 35.6231 26.5459 35.2759C26.8326 34.9525 27.1754 34.6834 27.5578 34.4818C27.9515 34.2742 28.3899 34.1661 28.8349 34.1668C29.6049 34.172 30.2188 34.4923 30.6749 35.1093C30.9986 35.5475 31.1537 36.0505 31.2048 36.5881C31.217 36.7039 31.2181 36.8205 31.2261 36.979ZM29.7687 36.958C29.7687 36.894 29.7729 36.8296 29.7687 36.7662C29.7442 36.4712 29.6721 36.1915 29.4887 35.9514C29.3053 35.7113 29.0687 35.6032 28.774 35.6263C28.664 35.6355 28.5558 35.6602 28.4527 35.6998C28.2243 35.7893 28.0145 35.9207 27.8343 36.0872C27.6308 36.2788 27.4542 36.4971 27.3093 36.7361C27.1019 37.0682 26.967 37.4403 26.9134 37.8281C26.8777 38.053 26.8767 38.282 26.9106 38.5071C26.9372 38.7158 27.0089 38.9162 27.1206 39.0944C27.3289 39.4094 27.6201 39.5368 27.9921 39.4745C28.2634 39.4257 28.5163 39.3041 28.724 39.1228C29.3956 38.5589 29.726 37.8267 29.7687 36.958Z" fill="#ECF6FF"/>
<path d="M37.7932 36.7648C37.7977 36.3671 37.8543 35.9718 37.9615 35.5888C38.1365 34.9704 38.4739 34.4541 39.0038 34.0796C39.6013 33.6575 40.2547 33.5634 40.9491 33.7884C41.4391 33.9473 41.8357 34.2483 42.1671 34.6372C42.6032 35.1496 42.8745 35.7439 43.0138 36.3991C43.1597 37.083 43.1538 37.7641 42.9602 38.4403C42.8223 38.9236 42.5952 39.3594 42.2424 39.7237C41.5154 40.4741 40.463 40.6264 39.5505 40.1136C39.1494 39.8839 38.8058 39.5657 38.546 39.1833C38.1822 38.6592 37.9466 38.0568 37.8583 37.4249C37.8257 37.2055 37.8142 36.985 37.7932 36.7648ZM39.2576 36.6822C39.2576 37.0602 39.3031 37.3532 39.3934 37.6384C39.4838 37.9409 39.6316 38.2231 39.8288 38.4697C39.9709 38.6447 40.135 38.7913 40.3419 38.8827C40.6383 39.0139 40.9099 38.9723 41.1518 38.7532C41.2551 38.6585 41.3415 38.5468 41.4073 38.4231C41.4957 38.2586 41.5606 38.0825 41.5998 37.8999C41.6924 37.4706 41.6818 37.0254 41.5686 36.601C41.4849 36.2479 41.3261 35.917 41.1031 35.6308C40.9484 35.4373 40.7675 35.2756 40.5323 35.1832C40.1732 35.0432 39.8701 35.1884 39.701 35.4082C39.6152 35.5185 39.5412 35.6374 39.4802 35.7631C39.3297 36.0771 39.2488 36.4096 39.2576 36.6822Z" fill="#ECF6FF"/>
<path d="M29.7687 36.958C29.726 37.8267 29.3956 38.5589 28.7229 39.1228C28.5153 39.3041 28.2624 39.4257 27.9911 39.4745C27.619 39.5368 27.3278 39.408 27.1196 39.0944C27.0078 38.9162 26.9362 38.7158 26.9096 38.5071C26.8757 38.282 26.8766 38.053 26.9124 37.8281C26.966 37.4403 27.1009 37.0682 27.3082 36.7361C27.4531 36.4971 27.6297 36.2788 27.8332 36.0872C28.0136 35.9209 28.2235 35.7898 28.452 35.7005C28.5551 35.6609 28.6633 35.6362 28.7733 35.627C29.0684 35.6039 29.3085 35.7166 29.488 35.9521C29.6676 36.1877 29.7432 36.4719 29.768 36.7669C29.7729 36.8296 29.7687 36.894 29.7687 36.958Z" fill="#313131"/>
<path d="M39.2576 36.6822C39.2488 36.4096 39.3297 36.0771 39.4802 35.7631C39.5412 35.6374 39.6152 35.5185 39.701 35.4082C39.8701 35.1884 40.1732 35.0425 40.5323 35.1832C40.7675 35.2756 40.9484 35.4373 41.1031 35.6308C41.3261 35.917 41.4849 36.2479 41.5686 36.601C41.6818 37.0254 41.6924 37.4706 41.5998 37.8999C41.5606 38.0825 41.4957 38.2586 41.4073 38.4231C41.3415 38.5468 41.2551 38.6585 41.1518 38.7532C40.9099 38.9723 40.6383 39.0139 40.3419 38.8827C40.135 38.7913 39.9709 38.6429 39.8288 38.4697C39.6316 38.2231 39.4838 37.9409 39.3934 37.6384C39.3031 37.3532 39.259 37.0602 39.2576 36.6822Z" fill="#313131"/>
</svg>
