<svg width="70" height="70" viewBox="0 0 70 70" fill="none" xmlns="http://www.w3.org/2000/svg">
<circle cx="35" cy="35" r="35" fill="#307BF6"/>
<path d="M42.7843 53.776C42.7514 53.8719 42.7216 53.9454 42.7006 54.021C42.2418 55.6824 41.4802 57.1819 40.2982 58.4485C39.1457 59.6837 37.7544 60.5166 36.0874 60.8516C34.7416 61.1221 33.4183 61.0101 32.1233 60.5625C30.4611 59.9881 29.1031 58.9777 27.9642 57.6533C26.9142 56.4311 26.1561 55.0444 25.6283 53.5261C25.2864 52.5412 25.0718 51.5286 24.9427 50.4961C24.9364 50.4464 24.9259 50.3971 24.9122 50.3191C24.782 50.3891 24.6707 50.4457 24.5622 50.5059C22.5704 51.6077 20.4434 51.9728 18.1922 51.6833C16.6189 51.4827 15.11 50.9344 13.7749 50.0782C12.609 49.342 11.604 48.3777 10.8202 47.2432C10.1044 46.2086 9.59972 45.0831 9.33897 43.8542C8.90427 41.806 9.15417 39.84 10.1156 37.977C10.726 36.794 11.5797 35.8102 12.6416 35.0073C13.7035 34.2044 14.8833 33.658 16.171 33.3363C16.2106 33.3266 16.2498 33.315 16.2882 33.3013C16.3026 33.2961 16.3138 33.2818 16.3481 33.2538C16.2249 33.1488 16.1087 33.0473 15.9918 32.9475C14.9783 32.0883 14.191 30.9936 13.6989 29.7593C12.9482 27.8977 12.8677 25.9934 13.3801 24.0656C13.7301 22.7538 14.3538 21.5778 15.2225 20.5285C15.8935 19.7194 16.6941 19.0272 17.5916 18.4803C18.7148 17.7922 19.9366 17.3781 21.2617 17.2773C22.4626 17.186 23.6372 17.2889 24.7799 17.683C25.6804 17.9915 26.5199 18.4552 27.2604 19.0532C27.3223 19.1029 27.385 19.1519 27.4809 19.2282C27.4882 19.1281 27.4977 19.0682 27.497 19.0084C27.4784 17.4477 27.7574 15.9452 28.3937 14.5165C29.0331 13.0815 29.9505 11.8565 31.1937 10.8842C32.0221 10.235 32.9286 9.72921 33.9307 9.40406C35.5309 8.88746 37.1419 8.90425 38.7579 9.33615C40.0462 9.68055 41.1932 10.2997 42.2138 11.1481C43.1871 11.9606 43.9975 12.9504 44.6018 14.065C45.2173 15.1865 45.6277 16.4089 45.8139 17.6746C45.8394 17.8457 45.9028 17.8667 46.054 17.825C47.476 17.4341 48.9138 17.3984 50.3705 17.6039C51.2193 17.7232 52.0421 17.9255 52.8338 18.2436C54.7203 19.0007 56.3853 20.092 57.7688 21.591C59.2066 23.1485 60.2293 24.9388 60.7235 27.0091C61.1712 28.884 61.1327 30.7457 60.4785 32.5741C59.8576 34.3069 58.7754 35.6918 57.2603 36.7324C56.3975 37.3249 55.4494 37.739 54.4358 38.0018C54.3759 38.0176 54.3175 38.0386 54.2181 38.0701C54.3252 38.159 54.4018 38.2251 54.4813 38.2881C55.3492 38.9726 56.0526 39.8431 56.5396 40.8355C57.3772 42.5326 57.6061 44.3169 57.3166 46.1796C57.0716 47.7616 56.4882 49.2067 55.5943 50.5308C54.4064 52.2899 52.8517 53.6167 50.8966 54.448C49.219 55.1609 47.4753 55.3867 45.6753 55.0216C44.7007 54.8251 43.7746 54.4382 42.9498 53.8831C42.9019 53.8488 42.8532 53.8198 42.7843 53.776ZM40.3343 41.0259C40.3542 42.2022 40.6115 43.2819 41.2828 44.2357C41.7752 44.9357 42.4133 45.4523 43.2585 45.6441C44.5679 45.9412 45.6263 45.4691 46.4911 44.4978C47.1239 43.7877 47.4914 42.9386 47.6615 42.0128C47.9849 40.2541 47.7266 38.6179 46.4901 37.2445C45.7376 36.409 44.7905 36.0124 43.653 36.1913C42.7563 36.3313 42.0566 36.8181 41.5019 37.5153C40.6801 38.5492 40.3623 39.754 40.3339 41.0259H40.3343ZM32.2034 41.3041C32.1667 39.9758 31.8223 38.7036 30.8899 37.6459C30.2501 36.9207 29.4549 36.4716 28.47 36.452C27.2467 36.4275 26.3563 37.0519 25.664 37.9945C25.244 38.565 24.999 39.2219 24.8727 39.9195C24.5227 41.834 24.9077 43.5612 26.2506 45.0099C26.8456 45.6518 27.6048 46.0186 28.4966 46.0319C29.689 46.0497 30.5784 45.4754 31.2511 44.5381C31.9304 43.5896 32.1807 42.5042 32.2031 41.3041H32.2034Z" fill="#313131"/>
<path d="M40.3339 41.0259C40.3623 39.754 40.6801 38.5493 41.5015 37.5168C42.0563 36.8196 42.7559 36.3338 43.6526 36.1927C44.7901 36.0139 45.7372 36.4104 46.4897 37.2459C47.7263 38.6193 47.9846 40.2559 47.6612 42.0143C47.4911 42.9386 47.1236 43.7877 46.4908 44.4993C45.6259 45.4702 44.5658 45.9427 43.2582 45.6455C42.4129 45.4537 41.7749 44.9361 41.2824 44.2371C40.6111 43.282 40.3539 42.2022 40.3339 41.0259ZM46.7389 41.5274C46.6836 41.1809 46.6563 40.8481 46.5744 40.5292C46.3767 39.7592 45.964 39.1247 45.2444 38.7502C44.2994 38.2602 43.3754 38.383 42.5515 39.0127C41.3706 39.9157 40.9643 41.1701 41.0889 42.6142C41.1333 43.1318 41.5953 43.4969 42.107 43.4755C42.6079 43.4549 43.0072 43.0555 43.0377 42.54C43.0457 42.4066 43.0275 42.2722 43.0293 42.1385C43.0373 41.4847 43.2554 40.9303 43.8073 40.5432C44.0376 40.3815 44.2795 40.4067 44.4636 40.6167C44.6477 40.8267 44.7261 41.0966 44.7268 41.3759C44.7268 41.5964 44.6918 41.8169 44.6865 42.0377C44.6715 42.5543 44.9833 42.9701 45.4513 43.0688C45.6814 43.1212 45.9228 43.0856 46.128 42.969C46.3332 42.8525 46.4873 42.6633 46.5601 42.4388C46.6619 42.1469 46.6829 41.827 46.7386 41.5274H46.7389Z" fill="#ECF6FF"/>
<path d="M32.2031 41.3041C32.1807 42.5042 31.9304 43.5896 31.2507 44.537C30.578 45.4743 29.6887 46.0487 28.4962 46.0308C27.6044 46.0175 26.846 45.6507 26.2503 45.0088C24.9063 43.5602 24.5237 41.8329 24.8723 39.9184C24.999 39.2219 25.2447 38.565 25.6637 37.9934C26.356 37.0509 27.2464 36.4265 28.4696 36.451C29.4552 36.4706 30.2497 36.9196 30.8895 37.6448C31.8219 38.7036 32.1663 39.9758 32.2031 41.3041ZM25.8131 41.7941C25.8481 42.0709 25.8558 42.3541 25.9276 42.6222C26.0382 43.0355 26.3084 43.3173 26.7515 43.3778C27.1522 43.4324 27.4725 43.2812 27.6965 42.9428C27.8585 42.6954 27.8715 42.4178 27.8365 42.1336C27.7941 41.807 27.785 41.4843 27.9215 41.1714C28.1343 40.6832 28.5365 40.6024 28.9141 40.9828C29.1969 41.2673 29.3919 41.6072 29.4636 42.002C29.4968 42.2142 29.5068 42.4295 29.4934 42.6439C29.472 43.1755 29.7415 43.6078 30.1881 43.731C30.8507 43.9141 31.432 43.4825 31.4761 42.7629C31.5157 42.1143 31.4303 41.4809 31.1772 40.8792C30.7488 39.8607 30.0719 39.0921 28.9565 38.8299C28.0465 38.6161 27.259 38.8831 26.63 39.5723C26.056 40.197 25.8366 40.9572 25.8131 41.7937V41.7941Z" fill="#ECF6FF"/>
<path d="M46.7386 41.5274C46.6829 41.827 46.6619 42.1469 46.5604 42.4374C46.4877 42.6619 46.3335 42.851 46.1283 42.9676C45.9231 43.0842 45.6817 43.1198 45.4516 43.0674C44.9837 42.9687 44.6718 42.5529 44.6869 42.0363C44.6935 41.8154 44.7282 41.595 44.7271 41.3745C44.7271 41.0945 44.6519 40.8295 44.4639 40.6153C44.276 40.4011 44.038 40.3801 43.8077 40.5418C43.2557 40.9289 43.0377 41.4833 43.0296 42.1371C43.0279 42.2708 43.0461 42.4052 43.038 42.5385C43.0076 43.0555 42.6082 43.4534 42.1074 43.4741C41.5957 43.4954 41.1337 43.1304 41.0892 42.6127C40.9646 41.1686 41.371 39.9143 42.5519 39.0113C43.3758 38.3813 44.3019 38.2574 45.2448 38.7488C45.9637 39.1233 46.3763 39.7575 46.5748 40.5278C46.656 40.8481 46.6833 41.1809 46.7386 41.5274Z" fill="#313131"/>
<path d="M25.8131 41.7937C25.8366 40.9572 26.056 40.1971 26.6269 39.572C27.2569 38.8828 28.0433 38.6158 28.9533 38.8296C30.0688 39.0918 30.7457 39.8603 31.1741 40.8788C31.4271 41.4805 31.5125 42.114 31.473 42.7625C31.4289 43.4821 30.8475 43.9137 30.185 43.7306C29.7384 43.6074 29.4689 43.1752 29.4902 42.6435C29.5037 42.4291 29.4937 42.2139 29.4605 42.0016C29.3887 41.6068 29.1938 41.2666 28.911 40.9824C28.5333 40.602 28.1312 40.6829 27.9184 41.1711C27.7819 41.484 27.791 41.8067 27.8333 42.1332C27.8704 42.4178 27.8571 42.695 27.6933 42.9424C27.4707 43.2809 27.1505 43.4325 26.7483 43.3775C26.3052 43.317 26.035 43.0352 25.9244 42.6218C25.8558 42.3548 25.8492 42.0695 25.8131 41.7937Z" fill="#313131"/>
</svg>
