<svg width="70" height="70" viewBox="0 0 70 70" fill="none" xmlns="http://www.w3.org/2000/svg">
<circle cx="35" cy="35" r="35" fill="#ECF6FF"/>
<path d="M18.184 37.0894C18.066 36.7009 17.9421 36.3138 17.8305 35.9232C17.3731 34.3254 17.0721 32.6869 16.9317 31.0309C16.7493 28.8742 16.8403 26.7332 17.2901 24.6133C17.7703 22.3495 18.612 20.2414 20.0526 18.4064C21.3504 16.7533 22.972 15.5539 25.0153 14.9764C26.528 14.549 28.0536 14.5448 29.5821 14.8906C31.4122 15.3047 33.0296 16.158 34.5087 17.2934C34.6193 17.3788 34.7309 17.4635 34.8352 17.5566C34.9308 17.6423 35.0081 17.6399 35.1082 17.5566C35.7451 17.0272 36.4288 16.5569 37.1508 16.1513C38.9008 15.1675 40.7632 14.5914 42.7907 14.6526C44.8977 14.716 46.7478 15.4576 48.3557 16.8093C49.9636 18.161 51.0451 19.8725 51.8148 21.8017C52.4325 23.3494 52.7948 24.9601 52.9736 26.6139C53.1078 27.837 53.1397 29.0692 53.0688 30.2976C52.9475 32.4239 52.5633 34.5269 51.925 36.5588C51.8725 36.7254 51.8179 36.8913 51.7651 37.0582C51.7623 37.0677 51.7682 37.0803 51.7731 37.11C52.1343 37.1912 52.5029 37.2728 52.8704 37.3571C54.6774 37.7733 56.4295 38.3483 58.0854 39.1901C59.0615 39.686 59.9754 40.2772 60.7454 41.0682C61.4622 41.8067 61.9886 42.6516 62.1478 43.691C62.2959 44.6581 62.0869 45.558 61.6274 46.4053C60.9725 47.6121 59.9897 48.5154 58.8946 49.3085C57.6227 50.2294 56.2391 50.9518 54.7961 51.5594C53.8406 51.9619 52.8571 52.2997 51.9093 52.7183C49.663 53.7095 47.3082 54.3038 44.8974 54.7056C43.1309 55.0003 41.3519 55.1756 39.5641 55.2774C37.1641 55.4146 34.7621 55.3849 32.3607 55.3555C30.6644 55.3319 28.9704 55.2198 27.2857 55.0199C24.7388 54.7224 22.2237 54.2652 19.7989 53.4077C18.9372 53.1032 18.1087 52.7078 17.2512 52.3889C16.0535 51.9448 14.867 51.4764 13.7253 50.9017C12.1293 50.0967 10.6191 49.1696 9.38114 47.8568C8.78824 47.2267 8.29859 46.5292 8.00844 45.706C7.49464 44.249 7.76344 42.9158 8.66819 41.6947C9.43819 40.6552 10.4731 39.9338 11.597 39.3322C13.3305 38.404 15.181 37.7946 17.092 37.3547C17.4385 37.2749 17.7857 37.1986 18.1322 37.1198C18.1507 37.1119 18.1681 37.1017 18.184 37.0894ZM34.319 30.3729C34.3153 28.9506 34.1282 27.5347 33.7621 26.1603C33.2396 24.2076 32.4321 22.3929 31.1403 20.8189C30.3304 19.8309 29.3773 19.0175 28.1653 18.5653C26.7159 18.0245 25.3366 18.1603 24.0671 19.0791C23.0749 19.7969 22.4526 20.7913 22.0042 21.9074C21.44 23.3123 21.2157 24.7848 21.2279 26.2866C21.2349 27.1284 21.3217 27.9729 21.4236 28.8101C21.5758 30.0656 21.9311 31.279 22.3952 32.4501C22.8892 33.7057 23.5812 34.8742 24.4448 35.9109C25.2316 36.8535 26.1437 37.6441 27.3032 38.0956C28.8485 38.6973 30.2992 38.5258 31.6205 37.4985C32.5704 36.76 33.1664 35.7681 33.5899 34.6635C34.1251 33.2656 34.3127 31.8096 34.3204 30.3729H34.319ZM48.9878 26.6699C48.9878 25.042 48.8286 23.739 48.4145 22.4758C48.0414 21.3376 47.4975 20.296 46.611 19.4658C45.6982 18.6094 44.6219 18.1799 43.364 18.2681C42.314 18.3416 41.3956 18.7683 40.5619 19.3881C39.2253 20.3825 38.2915 21.703 37.5621 23.1755C36.6573 25.0021 36.1362 26.9397 35.9584 28.9708C35.8184 30.5741 35.8936 32.1617 36.3178 33.721C36.6832 35.0636 37.2523 36.3015 38.3041 37.2532C39.6722 38.4915 41.235 38.7582 42.9465 38.0799C44.091 37.6266 45.001 36.8482 45.7689 35.9053C46.7415 34.7171 47.4988 33.368 48.0064 31.9188C48.6389 30.1188 48.9791 28.2739 48.9892 26.6699H48.9878ZM35.9293 50.1755C36.0693 50.1437 36.2135 50.1181 36.3525 50.0782C38.0425 49.5903 39.7323 49.1011 41.4219 48.6106C42.0428 48.4311 42.6658 48.2575 43.287 48.0783C43.672 47.967 43.917 47.6989 43.9412 47.3678C43.9867 46.7623 43.4533 46.3787 42.8317 46.5597C40.6057 47.2081 38.3793 47.8545 36.1526 48.499C35.9573 48.5561 35.7568 48.6065 35.5741 48.6922C35.4146 48.768 35.286 48.8963 35.2099 49.0556C35.1337 49.2149 35.1147 49.3955 35.1558 49.5672C35.2458 49.9246 35.5471 50.1569 35.9307 50.1755H35.9293Z" fill="#307BF6"/>
<path d="M35.9307 50.1755C35.5457 50.1555 35.2458 49.9246 35.1572 49.5676C35.1161 49.3959 35.1351 49.2152 35.2113 49.0559C35.2874 48.8966 35.416 48.7683 35.5755 48.6926C35.7582 48.6068 35.9587 48.5564 36.154 48.4994C38.38 47.8523 40.6064 47.2059 42.8331 46.56C43.4547 46.379 43.9881 46.7626 43.9426 47.3681C43.9177 47.6992 43.6741 47.9674 43.2884 48.0787C42.6672 48.2579 42.0442 48.4314 41.4233 48.611C39.7332 49.0996 38.0434 49.5888 36.3539 50.0785C36.2149 50.1181 36.0718 50.1437 35.9307 50.1755Z" fill="#313131"/>
<path d="M28.7697 29.2777C29.9132 29.3127 30.973 29.6662 31.813 30.5398C32.4251 31.1768 32.7265 31.9398 32.6397 32.8309C32.6219 33.0099 32.5712 33.1841 32.4902 33.3447C32.4174 33.4826 32.3023 33.5937 32.162 33.6617C32.0216 33.7297 31.8631 33.7511 31.7097 33.7227C31.556 33.6991 31.4135 33.6284 31.3018 33.5202C31.1901 33.412 31.1148 33.2718 31.0864 33.119C31.0632 33.0167 31.0582 32.9111 31.0717 32.8071C31.1623 32.2324 30.9268 31.8002 30.5005 31.4421C29.5873 30.6774 27.9945 30.6406 27.0782 31.3651C26.5549 31.7788 26.4209 32.3003 26.6582 32.9184C26.7225 33.08 26.7554 33.2523 26.7551 33.4263C26.7478 33.7413 26.514 34.0055 26.2193 34.0878C26.0603 34.1311 25.8917 34.1234 25.7374 34.0655C25.5831 34.0076 25.4509 33.9026 25.3597 33.7654C25.1378 33.4413 25.0268 33.0724 24.9887 32.6853C24.8875 31.6542 25.2855 30.8272 26.0653 30.1783C26.8321 29.542 27.7414 29.2931 28.7697 29.2777Z" fill="#313131"/>
<path d="M41.2259 29.2844C42.4033 29.3075 43.4637 29.6386 44.2589 30.5514C45.0195 31.4243 45.1858 32.4211 44.7329 33.4984C44.6658 33.6531 44.5695 33.7934 44.4493 33.9117C44.3327 34.0239 44.1825 34.0949 44.0218 34.1138C43.8611 34.1328 43.6985 34.0987 43.559 34.0167C43.4215 33.9376 43.3124 33.8174 43.2469 33.673C43.1815 33.5285 43.1631 33.3672 43.1943 33.2117C43.2219 33.0867 43.2618 32.9646 43.3133 32.8474C43.5103 32.3682 43.4102 31.9423 43.0763 31.5678C42.6741 31.1163 42.1422 30.921 41.558 30.8653C40.7352 30.7869 39.9788 30.9647 39.3492 31.5303C38.9806 31.8607 38.8014 32.2695 38.8693 32.7798C38.9271 33.2107 38.7335 33.5533 38.3965 33.6807C37.9226 33.8592 37.4326 33.5757 37.3349 33.0507C37.1886 32.2573 37.3699 31.5303 37.8466 30.886C38.5638 29.9165 39.5669 29.4555 40.7376 29.311C40.8426 29.298 40.9476 29.2931 41.0526 29.2875C41.1093 29.2819 41.1664 29.2844 41.2259 29.2844Z" fill="#313131"/>
</svg>
