<svg width="70" height="70" viewBox="0 0 70 70" fill="none" xmlns="http://www.w3.org/2000/svg">
<circle cx="35" cy="35" r="35" fill="#307BF6"/>
<path d="M24.1053 39.4256C24.0892 39.3906 24.0797 39.3637 24.0657 39.3392C23.5628 38.4488 23.1648 37.5104 22.8029 36.556C22.2573 35.1161 21.8051 33.6464 21.4029 32.1603C21.0721 30.9337 20.7838 29.697 20.5381 28.4503C20.3771 27.6268 20.2357 26.7997 20.1352 25.9653C20.0652 25.392 19.9994 24.8184 20.0015 24.2405C20.0061 22.7831 20.0173 21.3254 20.0264 19.868C20.0264 19.7105 20.0306 19.553 20.0344 19.3958C20.0498 18.7721 20.0593 18.1484 20.0841 17.5251C20.1107 16.8671 20.1457 16.2093 20.1891 15.5518C20.236 14.8542 20.3015 14.1577 20.3914 13.4637C20.5101 12.5442 20.6658 11.6314 20.9119 10.7361C21.0546 10.2008 21.2419 9.67845 21.4719 9.17444C21.6913 8.70159 21.9552 8.25709 22.2954 7.85949C22.9048 7.14724 23.672 6.72129 24.6012 6.59284C24.9036 6.55479 25.2108 6.5933 25.4944 6.70484C25.7615 6.80764 26.0119 6.94915 26.2378 7.12484C26.5652 7.37907 26.8616 7.67087 27.1209 7.99424C27.5127 8.47994 27.8594 9.00046 28.1565 9.54929C28.6598 10.4593 29.0644 11.4137 29.4141 12.392C29.8258 13.5572 30.1648 14.7468 30.4291 15.9539C30.6239 16.8303 30.7838 17.713 30.9089 18.602C30.9831 19.133 31.043 19.6657 31.0993 20.1991C31.2253 21.3891 31.2722 22.5819 31.2845 23.7775C31.2915 24.4656 31.31 25.1533 31.2967 25.8425C31.2827 26.5827 31.2617 27.323 31.2096 28.0618C31.1809 28.4689 31.1606 28.8763 31.1249 29.2826C31.0782 29.8111 31.0251 30.3388 30.9656 30.8657C30.9131 31.3287 30.8501 31.7907 30.7878 32.2527C30.6926 32.9573 30.5715 33.658 30.4378 34.3559C30.2709 35.2204 30.0752 36.0775 29.8362 36.9249C29.7854 37.1044 29.7312 37.2822 29.6773 37.4611C29.6661 37.4996 29.6591 37.5395 29.6465 37.5931C29.6839 37.5931 29.7109 37.593 29.7371 37.5885C30.204 37.5185 30.6699 37.4429 31.1371 37.382C31.5242 37.3316 31.9131 37.2948 32.3019 37.2609C32.7142 37.2259 33.1272 37.1961 33.5402 37.1702C33.837 37.1517 34.1352 37.1352 34.4313 37.1321C35.1831 37.1247 35.9363 37.117 36.6874 37.1254C37.247 37.1365 37.8055 37.1785 38.3604 37.2514C38.4703 37.2651 38.5802 37.2805 38.6901 37.2913C38.7412 37.2962 38.7927 37.2913 38.855 37.2913C38.8473 37.2528 38.8438 37.2213 38.834 37.1884C38.4882 36.0391 38.21 34.8704 38.001 33.6884C37.8774 33.0063 37.7696 32.321 37.6692 31.635C37.5813 31.0354 37.5064 30.4338 37.4385 29.8318C37.3776 29.2872 37.329 28.7415 37.2845 28.1955C37.2369 27.6089 37.1988 27.0213 37.1599 26.434C37.1428 26.1722 37.1323 25.909 37.1221 25.6479C37.0717 24.3529 37.0637 23.06 37.0906 21.7657C37.1046 21.1007 37.1256 20.4357 37.1561 19.7728C37.1872 19.1211 37.231 18.4694 37.2803 17.8184C37.3223 17.2664 37.3713 16.7148 37.4326 16.1646C37.602 14.6323 37.8431 13.1147 38.232 11.6223C38.4581 10.7585 38.7339 9.91154 39.107 9.09849C39.3803 8.50349 39.702 7.93649 40.116 7.42619C40.4031 7.06411 40.7456 6.74977 41.131 6.49484C41.7649 6.08429 42.461 5.91909 43.2118 5.96984C43.5846 5.99086 43.9534 6.05859 44.3094 6.17144C44.9845 6.39299 45.5505 6.78114 46.0244 7.30579C46.4031 7.72579 46.7002 8.19619 46.9473 8.70124C47.269 9.35854 47.4982 10.0487 47.6781 10.7564C47.8475 11.435 47.9784 12.1225 48.0701 12.8158C48.1671 13.5267 48.2332 14.24 48.2801 14.9557C48.3631 16.2717 48.3781 17.5888 48.3501 18.9065C48.3372 19.4896 48.3256 20.0724 48.2997 20.6548C48.2668 21.3828 48.2206 22.1097 48.1786 22.8374C48.1562 23.2224 48.1408 23.6074 48.1377 23.9903C48.1324 24.6787 48.0901 25.3651 48.0397 26.0514C47.993 26.6968 47.9292 27.3405 47.8482 27.9824C47.6746 29.371 47.4357 30.7482 47.1314 32.1141C46.8626 33.3266 46.531 34.5243 46.1381 35.7023C45.8494 36.5591 45.5249 37.4016 45.1231 38.2129C45.0069 38.4478 44.8781 38.6763 44.7553 38.9083C44.7343 38.9479 44.7157 38.9892 44.6944 39.0329C44.7581 39.0907 44.8312 39.1148 44.8977 39.1481C45.7556 39.5711 46.5742 40.0695 47.3439 40.6373C48.5241 41.5124 49.5517 42.5375 50.3889 43.7475C51.3259 45.0977 51.9758 46.626 52.2981 48.2376C52.4318 48.9005 52.5162 49.5723 52.5505 50.2477C52.5886 50.9523 52.5813 51.6587 52.5284 52.3624C52.4301 53.6498 52.106 54.9098 51.5712 56.085C50.9174 57.5326 50.0056 58.7978 48.8625 59.8965C47.1339 61.5579 45.0976 62.6842 42.8037 63.3569C42.0146 63.5874 41.2083 63.754 40.3925 63.8553C39.7271 63.9379 39.0575 63.9823 38.387 63.9883C37.932 63.9932 37.477 64.0195 37.022 64.0233C36.3983 64.0291 35.7746 64.0282 35.1509 64.0205C34.4978 64.0114 33.8454 63.9817 33.1948 63.926C32.6372 63.8784 32.0797 63.8322 31.5239 63.7689C30.7889 63.6856 30.0574 63.569 29.3311 63.4259C28.2952 63.2254 27.2738 62.9565 26.2735 62.6209C25.0996 62.2233 23.9705 61.727 22.9062 61.0886C21.9923 60.5405 21.1485 59.9014 20.3991 59.1412C19.2242 57.9487 18.3712 56.5627 17.89 54.9541C17.6994 54.3173 17.573 53.6631 17.5127 53.0011C17.4625 52.4728 17.4488 51.9416 17.4717 51.4114C17.4889 51.0506 17.4941 50.6883 17.5242 50.3285C17.5613 49.8816 17.6072 49.4346 17.6688 48.9905C17.7727 48.2398 17.9324 47.498 18.1465 46.7711C18.4839 45.6238 18.9564 44.5371 19.5997 43.527C20.4705 42.1591 21.5909 41.0367 22.9342 40.132C23.2632 39.9104 23.6023 39.7053 23.9492 39.5135C24.0017 39.489 24.05 39.4585 24.1053 39.4256ZM28.6234 53.8866C28.6346 53.6448 28.6364 53.4281 28.5972 53.2157C28.4563 52.443 28.1017 51.7252 27.5734 51.144C27.3467 50.8847 27.0737 50.6698 26.7684 50.5102C26.3617 50.3019 25.9347 50.2228 25.4818 50.3082C25.3789 50.3275 25.2764 50.3467 25.1731 50.3649C24.6873 50.4507 24.2957 50.6946 23.9831 51.0723C23.8202 51.2707 23.6863 51.4913 23.5855 51.7275C23.3153 52.3522 23.2044 53.0078 23.2226 53.6875C23.2251 53.7456 23.2323 53.8034 23.2443 53.8604C23.303 54.1522 23.4136 54.4311 23.5708 54.6839C23.9651 55.3486 24.516 55.9068 25.1756 56.3097C25.3934 56.4462 25.6289 56.5522 25.8756 56.6247C26.0782 56.6828 26.2844 56.7206 26.4961 56.702C26.6711 56.6866 26.8437 56.667 27.0173 56.6467C27.0575 56.6422 27.0981 56.6362 27.138 56.6282C27.6389 56.5281 28.0032 56.2456 28.2433 55.7976C28.4015 55.5015 28.4883 55.1827 28.5447 54.8526C28.5959 54.5331 28.6222 54.2102 28.6234 53.8866ZM35.6402 58.1237C35.6511 58.1555 35.6597 58.188 35.6658 58.221C35.6938 58.5434 35.6756 58.8612 35.5748 59.1713C35.5364 59.2938 35.4783 59.4093 35.4029 59.5132C35.2861 59.6758 35.1133 59.7894 34.9178 59.8324C34.7695 59.8648 34.6164 59.8696 34.4663 59.8464C34.2822 59.8182 34.1015 59.7713 33.927 59.7064C33.4335 59.5314 32.9389 59.3564 32.4339 59.2164C32.2323 59.1608 32.0272 59.1177 31.8221 59.0764C31.7652 59.0655 31.7066 59.0667 31.6502 59.0799C31.6271 59.0841 31.6051 59.0932 31.5858 59.1067C31.5665 59.1201 31.5504 59.1376 31.5385 59.1579C31.5266 59.1781 31.5192 59.2008 31.5169 59.2242C31.5145 59.2475 31.5173 59.2712 31.5249 59.2934C31.5375 59.3383 31.5531 59.3823 31.5718 59.425C31.9141 60.2552 32.5011 60.8383 33.3425 61.1551C33.9725 61.392 34.6182 61.4001 35.2713 61.279C35.5806 61.2219 35.8842 61.1379 36.1789 61.028C36.2365 61.0009 36.3022 60.9964 36.363 61.0154C36.6797 61.1253 37.0094 61.1656 37.343 61.1834C37.9605 61.2184 38.5799 61.1617 39.1808 61.0151C39.4705 60.9476 39.7498 60.8417 40.0114 60.7001C40.1765 60.6124 40.3251 60.4967 40.4506 60.3581C40.6069 60.178 40.6944 59.9483 40.6975 59.7099C40.7006 59.4715 40.6192 59.2396 40.4678 59.0554C40.3446 58.9077 40.1878 58.8479 39.9998 58.906C39.9218 58.9289 39.8465 58.9601 39.7751 58.9991C39.6798 59.0554 39.5876 59.1166 39.4986 59.1825C39.3803 59.2675 39.2676 59.3603 39.1486 59.4425C39.0335 59.5209 38.9141 59.5941 38.7923 59.662C38.6542 59.7399 38.4947 59.7716 38.3373 59.7523C38.1342 59.7341 37.9328 59.7001 37.735 59.6504C37.577 59.6092 37.4254 59.5464 37.2845 59.4639C37.1578 59.3908 37.0475 59.2925 36.9605 59.1751C36.8734 59.0576 36.8114 58.9235 36.7784 58.781C36.715 58.5185 36.713 58.245 36.7725 57.9816C36.8334 57.9564 36.8918 57.9316 36.9506 57.9078C37.2169 57.8033 37.4639 57.655 37.6814 57.4692C37.8381 57.3381 37.9687 57.1786 38.0664 56.9992C38.2248 56.6977 38.2248 56.3968 38.0664 56.0965C37.98 55.9375 37.8671 55.7944 37.7325 55.6734C37.5781 55.5308 37.405 55.41 37.218 55.3143C36.6699 55.0343 36.0924 54.9128 35.4768 54.9912C34.9945 55.0476 34.5337 55.2223 34.1352 55.4998C33.9365 55.6341 33.7663 55.8063 33.6344 56.0066C33.4031 56.3671 33.4031 56.7287 33.6344 57.0916C33.7534 57.272 33.9037 57.4297 34.0782 57.5574C34.3496 57.7599 34.6552 57.9119 34.9805 58.0061C35.1952 58.0701 35.4166 58.1095 35.6402 58.1237ZM42.8404 53.6675C42.8368 53.9416 42.8632 54.2153 42.9192 54.4837C43.0242 54.9513 43.273 55.3153 43.6843 55.5642C43.7835 55.625 43.8863 55.68 43.9919 55.729C44.2954 55.8634 44.6121 55.9656 44.9369 56.0342C44.977 56.0418 45.0176 56.047 45.0584 56.0496C45.4031 56.0811 45.7496 56.0132 46.0569 55.854C46.9022 55.427 47.4804 54.7599 47.8045 53.8733C47.8986 53.6147 47.9345 53.3385 47.9095 53.0645C47.8948 52.8961 47.8776 52.7274 47.8472 52.5615C47.7773 52.1585 47.6273 51.7737 47.4062 51.4296C47.0562 50.8924 46.5735 50.541 45.9467 50.3971C45.7427 50.349 45.5362 50.3123 45.3282 50.2872C45.1834 50.2723 45.0374 50.2745 44.8932 50.2939C44.5288 50.3404 44.2198 50.5088 43.9517 50.7559C43.7168 50.9752 43.5218 51.2336 43.3752 51.5196C43.0228 52.1806 42.839 52.9184 42.8404 53.6675Z" fill="#ECF6FF"/>
<path d="M28.6234 53.8866C28.6215 54.21 28.5945 54.5327 28.5426 54.8519C28.4859 55.1809 28.3994 55.4998 28.2412 55.7969C28.0011 56.2449 27.6368 56.5274 27.1359 56.6275C27.096 56.6355 27.0554 56.6415 27.0152 56.646C26.8402 56.6649 26.668 56.6859 26.494 56.7013C26.284 56.7199 26.0761 56.6821 25.8735 56.624C25.6268 56.5515 25.3913 56.4455 25.1735 56.309C24.5139 55.9061 23.963 55.3479 23.5687 54.6832C23.4115 54.4304 23.3009 54.1515 23.2422 53.8597C23.2303 53.8027 23.223 53.7449 23.2205 53.6868C23.2023 53.0081 23.3132 52.3526 23.5834 51.7267C23.6842 51.4906 23.8181 51.27 23.981 51.0716C24.2932 50.6939 24.6849 50.45 25.171 50.3642C25.2743 50.346 25.3768 50.3268 25.4797 50.3075C25.9326 50.2221 26.3596 50.3012 26.7663 50.5095C27.0716 50.6691 27.3446 50.884 27.5713 51.1433C28.0996 51.7245 28.4542 52.4423 28.5951 53.215C28.6381 53.4281 28.6346 53.6448 28.6234 53.8866Z" fill="#313131"/>
<path d="M35.6402 58.1237C35.4147 58.1094 35.1916 58.0693 34.9752 58.0044C34.65 57.9101 34.3444 57.7581 34.0729 57.5557C33.8985 57.428 33.7482 57.2702 33.6291 57.0898C33.3986 56.7286 33.3986 56.3669 33.6291 56.0048C33.7611 55.8046 33.9313 55.6323 34.13 55.498C34.5284 55.2206 34.9893 55.0459 35.4715 54.9895C36.0872 54.9111 36.6647 55.0315 37.2128 55.3125C37.3998 55.4082 37.5729 55.5291 37.7273 55.6716C37.8618 55.7927 37.9747 55.9358 38.0612 56.0948C38.2212 56.3958 38.2212 56.6966 38.0612 56.9974C37.9634 57.1768 37.8328 57.3363 37.6762 57.4675C37.4587 57.6533 37.2117 57.8015 36.9454 57.906C36.8866 57.9298 36.8281 57.9547 36.7672 57.9799C36.7077 58.2432 36.7098 58.5168 36.7732 58.7793C36.8064 58.9223 36.8689 59.057 36.9566 59.1748C37.0444 59.2926 37.1555 59.391 37.2831 59.4639C37.424 59.5464 37.5756 59.6092 37.7336 59.6504C37.9314 59.7 38.1328 59.7341 38.3359 59.7523C38.4933 59.7716 38.6528 59.7399 38.7909 59.662C38.9127 59.5941 39.0321 59.522 39.1472 59.4425C39.2676 59.3603 39.3803 59.2675 39.4972 59.1825C39.5862 59.1166 39.6784 59.0554 39.7737 58.9991C39.8451 58.9601 39.9204 58.9289 39.9984 58.906C40.1871 58.8479 40.3432 58.906 40.4664 59.0554C40.6178 59.2396 40.6992 59.4714 40.6961 59.7099C40.693 59.9483 40.6055 60.178 40.4492 60.3581C40.3237 60.4967 40.1751 60.6124 40.01 60.7001C39.7484 60.8417 39.4691 60.9476 39.1794 61.0151C38.5785 61.1617 37.9591 61.2184 37.3416 61.1834C37.0094 61.1656 36.6797 61.1253 36.3616 61.0154C36.3008 60.9964 36.2351 61.0009 36.1775 61.028C35.8828 61.1379 35.5792 61.2219 35.2699 61.279C34.6168 61.3987 33.9693 61.392 33.3411 61.1551C32.5011 60.8401 31.9127 60.2552 31.5704 59.425C31.5517 59.3823 31.5361 59.3383 31.5235 59.2934C31.5159 59.2712 31.5131 59.2475 31.5155 59.2241C31.5178 59.2008 31.5252 59.1781 31.5371 59.1579C31.549 59.1376 31.5652 59.1201 31.5844 59.1067C31.6037 59.0932 31.6257 59.0841 31.6488 59.0799C31.7052 59.0667 31.7638 59.0655 31.8207 59.0764C32.0258 59.1191 32.2309 59.1622 32.4325 59.2164C32.9375 59.3564 33.4321 59.529 33.9256 59.7064C34.1001 59.7713 34.2808 59.8182 34.4649 59.8464C34.615 59.8696 34.7681 59.8648 34.9164 59.8324C35.1119 59.7894 35.2847 59.6758 35.4015 59.5132C35.477 59.4093 35.535 59.2938 35.5734 59.1713C35.6742 58.8612 35.6924 58.5434 35.6644 58.221C35.6587 58.188 35.6507 58.1555 35.6402 58.1237Z" fill="#313131"/>
<path d="M42.8404 53.6675C42.8393 52.9183 43.0232 52.1805 43.3759 51.5196C43.5225 51.2336 43.7175 50.9752 43.9524 50.7559C44.2205 50.5088 44.5295 50.3404 44.8939 50.2939C45.0381 50.2745 45.1841 50.2723 45.3289 50.2872C45.537 50.3123 45.7434 50.349 45.9474 50.3971C46.5742 50.541 47.0572 50.8924 47.4069 51.4296C47.628 51.7737 47.778 52.1585 47.8479 52.5615C47.8783 52.7274 47.8955 52.8961 47.9102 53.0645C47.9352 53.3385 47.8993 53.6147 47.8052 53.8733C47.4811 54.7599 46.9029 55.427 46.0576 55.854C45.7503 56.0132 45.4038 56.0811 45.0591 56.0496C45.0183 56.047 44.9777 56.0418 44.9376 56.0342C44.6128 55.9656 44.2961 55.8634 43.9926 55.729C43.887 55.68 43.7843 55.625 43.685 55.5642C43.2737 55.3153 43.0238 54.9513 42.9199 54.4837C42.8637 54.2154 42.8371 53.9417 42.8404 53.6675Z" fill="#313131"/>
</svg>
