<svg width="70" height="70" viewBox="0 0 70 70" fill="none" xmlns="http://www.w3.org/2000/svg">
<circle cx="35" cy="35" r="35" fill="#ECF6FF"/>
<path d="M45.0367 56.9039C42.8985 56.8868 40.7905 56.6421 38.7199 56.1084C36.8229 55.6184 35.0186 54.9072 33.3792 53.8169C33.1125 53.6395 32.8647 53.4337 32.597 53.259C32.492 53.189 32.3552 53.1341 32.2327 53.1337C30.2944 53.1337 28.3826 52.9129 26.5035 52.4355C23.868 51.7663 21.4243 50.6708 19.1885 49.1185C17.492 47.9485 15.9799 46.5314 14.7022 44.9143C12.9935 42.7443 11.7951 40.3248 11.156 37.6319C10.8302 36.2588 10.6482 34.8669 10.6951 33.4581C10.7388 32.14 10.9023 30.8331 11.2551 29.5567C11.295 29.4118 11.2771 29.3096 11.1725 29.1948C10.1851 28.1098 9.59011 26.8316 9.42981 25.3773C9.12846 22.6386 10.0749 20.3653 12.1413 18.5765C13.7205 17.209 15.5881 16.6165 17.6751 16.7624C18.8862 16.8452 20.0527 17.2524 21.0522 17.9412C21.1677 18.02 21.2623 18.028 21.39 17.9706C23.4337 17.0564 25.5729 16.4964 27.7982 16.2612C30.2955 15.9943 32.8201 16.1553 35.2633 16.7372C35.9314 16.8958 36.5902 17.0967 37.2478 17.2972C37.4169 17.3487 37.4967 17.313 37.5891 17.1754C38.2473 16.1889 39.0714 15.3238 40.0247 14.6183C41.0831 13.8375 42.2486 13.2999 43.5632 13.1273C45.926 12.8169 48.0246 14.0562 48.9182 16.2819C49.4687 17.6542 49.5324 19.0714 49.2902 20.5109C49.0536 21.9193 48.5332 23.2231 47.7831 24.4355C47.6998 24.5702 47.6981 24.6595 47.7954 24.7904C49.4572 27.0272 50.5982 29.4986 51.1379 32.2398C51.3661 33.3837 51.4741 34.5482 51.4602 35.7146C51.447 36.8867 51.3061 38.054 51.0402 39.1957C51.0052 39.3493 51.0441 39.3966 51.1907 39.4326C52.8291 39.8337 54.402 40.4088 55.873 41.2418C57.1995 41.9925 58.3874 42.9109 59.2957 44.1531C60.087 45.2353 60.5557 46.4344 60.5557 47.7906C60.5557 48.7286 60.3236 49.6106 59.8938 50.445C59.205 51.7785 58.1725 52.797 56.9577 53.6468C55.6035 54.5943 54.115 55.2628 52.5477 55.765C50.7277 56.3474 48.8632 56.6813 46.961 56.8129C46.318 56.8567 45.6768 56.8728 45.0367 56.9039ZM50.4053 44.5398C49.3903 44.5363 48.3816 44.6403 47.3757 44.7754C45.8007 44.9854 44.2772 45.3704 42.8198 46.0102C42.1033 46.3252 41.4425 46.7228 40.8874 47.2772C40.4867 47.6772 40.1937 48.1455 40.1465 48.7258C40.0898 49.4153 40.388 49.961 40.899 50.3939C41.074 50.5416 41.3085 50.6172 41.4887 50.7604C41.7988 51.0054 42.159 51.1317 42.5254 51.2479C43.658 51.6063 44.8274 51.725 46.0065 51.7607C47.1372 51.7891 48.2682 51.7218 49.3875 51.5594C50.9975 51.334 52.5725 50.9711 54.0649 50.304C54.8671 49.9449 55.6189 49.5067 56.2104 48.834C57.0504 47.876 56.9412 46.623 55.9462 45.8359C55.3806 45.3882 54.7264 45.1359 54.0422 44.9518C52.8511 44.6308 51.6331 44.55 50.4053 44.5398ZM28.8051 42.1196C30.0823 42.114 31.1445 41.8665 32.1067 41.2712C33.0223 40.7042 33.6928 39.9366 33.9203 38.8534C34.0383 38.2916 34.0317 37.725 33.7902 37.1902C33.6407 36.8598 33.3663 36.6781 32.9978 36.6879C32.6422 36.6974 32.3775 36.8843 32.2732 37.2196C32.2154 37.4197 32.2068 37.6307 32.2481 37.8349C32.3881 38.538 32.1287 39.0805 31.6181 39.5282C31.0077 40.0619 30.2737 40.3115 29.4803 40.3888C28.3603 40.4977 27.3036 40.3132 26.3782 39.6325C25.7927 39.2013 25.4206 38.649 25.5154 37.8751C25.5212 37.8113 25.5202 37.747 25.5127 37.6833C25.5023 37.5609 25.4653 37.4422 25.4041 37.3356C25.343 37.2291 25.2592 37.1372 25.1586 37.0666C25.0581 36.9959 24.9433 36.9482 24.8223 36.9267C24.7014 36.9053 24.5771 36.9106 24.4585 36.9424C24.0707 37.0439 23.8306 37.3918 23.804 37.8727C23.734 39.1148 24.253 40.0917 25.1886 40.8585C26.2795 41.7528 27.5665 42.1003 28.8051 42.1196ZM43.6727 39.8537C43.7714 39.8484 43.958 39.8435 44.1438 39.8278C45.1763 39.7399 46.1518 39.4722 47.0138 38.8779C47.837 38.3112 48.4079 37.5734 48.5052 36.5437C48.5591 35.9722 48.4516 35.4237 48.1468 34.9337C47.8192 34.4087 47.1034 34.387 46.7436 34.8774C46.5161 35.1875 46.5336 35.5235 46.7002 35.8532C46.8728 36.1969 46.8493 36.5266 46.6652 36.8549C46.4811 37.1832 46.1987 37.424 45.87 37.5955C44.5117 38.3053 43.105 38.3259 41.6893 37.8111C40.8871 37.5195 40.2357 37.0551 39.9984 36.144C39.8658 35.6344 39.2851 35.4356 38.834 35.6659C38.4626 35.856 38.2985 36.27 38.4112 36.7303C38.6068 37.5297 39.0608 38.1614 39.7132 38.6413C40.8626 39.4862 42.173 39.84 43.6727 39.8537Z" fill="#307BF6"/>
<path d="M50.4053 44.5398C51.6303 44.55 52.8511 44.6308 54.0422 44.9514C54.7264 45.1359 55.3806 45.3879 55.9462 45.8355C56.9412 46.6227 57.0518 47.8757 56.2104 48.8336C55.6189 49.5067 54.8671 49.9449 54.0649 50.3036C52.5736 50.9707 50.9982 51.3337 49.3875 51.5591C48.2682 51.7214 47.1372 51.7887 46.0065 51.7603C44.8274 51.7253 43.658 51.606 42.5254 51.2476C42.159 51.1314 41.7988 51.0064 41.4887 50.76C41.3085 50.6169 41.0736 50.5413 40.899 50.3936C40.388 49.9606 40.0898 49.4136 40.1465 48.7255C40.1937 48.1452 40.4867 47.6755 40.8874 47.2768C41.4425 46.7224 42.1033 46.3245 42.8198 46.0098C44.2772 45.3697 45.8018 44.9861 47.3757 44.775C48.3816 44.6403 49.3889 44.5363 50.4053 44.5398Z" fill="#313131"/>
</svg>
