<svg width="70" height="70" viewBox="0 0 70 70" fill="none" xmlns="http://www.w3.org/2000/svg">
<circle cx="35" cy="35" r="35" fill="#ECF6FF"/>
<path d="M25.7207 19.5452C25.6976 19.338 25.6693 19.1361 25.6532 18.9334C25.5188 17.2286 26.0081 15.7071 27.0287 14.3509C28.0321 13.017 29.3537 12.0951 30.8689 11.4326C31.7729 11.0371 32.74 10.8726 33.6934 10.6479C34.7346 10.4029 35.7825 10.2786 36.8461 10.3329C39.5761 10.4729 42.1353 11.1708 44.4082 12.7461C45.7785 13.6957 46.889 14.8811 47.5953 16.4078C48.2355 17.7921 48.4059 19.2323 48.0591 20.7237C48.0206 20.8882 48.0486 20.9375 48.2204 20.9708C52.2776 21.7586 55.0496 24.0942 56.4738 27.9648C57.312 30.2426 57.256 32.5533 56.3856 34.8248C55.8606 36.1979 55.0251 37.3627 53.9562 38.3724C53.6227 38.6874 53.3423 39.0563 52.9244 39.2737C52.1121 39.6968 51.2952 40.1196 50.4076 40.3566C49.7394 40.5347 49.0538 40.6506 48.3723 40.7734C46.8341 41.051 45.2871 41.2634 43.7299 41.4034C40.945 41.6505 38.1551 41.7184 35.3608 41.6484C33.244 41.5956 31.1331 41.4563 29.0296 41.212C26.8327 40.9565 24.6546 40.6005 22.5238 39.9887C21.4168 39.6706 20.3458 39.2688 19.3563 38.6629C19.0763 38.4918 18.7449 38.4078 18.4404 38.2779C16.4937 37.4397 14.9771 36.1223 13.9915 34.2326C13.113 32.5481 12.8516 30.7529 13.1487 28.8843C13.5778 26.1858 14.9544 24.0326 17.0253 22.2987C18.0942 21.4034 19.2979 20.7415 20.6048 20.2515C22.1941 19.6565 23.829 19.436 25.516 19.562C25.5681 19.5659 25.621 19.5662 25.6728 19.5662C25.6829 19.5666 25.6934 19.5578 25.7207 19.5452ZM46.1145 33.666C46.105 32.6251 45.9745 31.7238 45.656 30.8544C45.3638 30.054 44.949 29.3295 44.2878 28.7754C43.4254 28.0527 42.4573 27.8241 41.385 28.2347C40.6388 28.5203 40.0945 29.0582 39.6619 29.7134C38.9826 30.7417 38.6742 31.8925 38.5769 33.1067C38.5484 33.4023 38.5484 33.7 38.5769 33.9957C38.6277 34.443 38.9759 34.738 39.391 34.7352C39.8061 34.7324 40.1239 34.4423 40.1918 34.0002C40.2109 33.8376 40.2209 33.674 40.2216 33.5102C40.2496 32.7521 40.3822 32.0154 40.6811 31.315C40.889 30.8278 41.1627 30.3833 41.5739 30.0372C42.1094 29.586 42.7247 29.5822 43.227 30.0722C43.4732 30.3109 43.6815 30.5858 43.8448 30.8873C44.3736 31.8785 44.5014 32.9523 44.4216 34.0604C44.41 34.2225 44.3935 34.3877 44.411 34.548C44.4565 34.9589 44.817 35.2641 45.23 35.262C45.6805 35.2592 46.013 34.9326 46.0676 34.4188C46.098 34.1308 46.104 33.8389 46.1145 33.666ZM32.4225 33.7213C32.3634 32.8298 32.2125 31.959 31.8975 31.1225C31.6074 30.3494 31.214 29.6375 30.5738 29.0925C29.7989 28.4345 28.9253 28.2151 27.952 28.5784C27.3003 28.8213 26.8232 29.2906 26.4354 29.8524C25.8656 30.6787 25.5531 31.6087 25.3805 32.5883C25.3315 32.8683 25.2955 33.1564 25.3137 33.4367C25.3357 33.7752 25.6122 34.0387 25.9363 34.1112C26.2671 34.185 26.6132 34.0671 26.7889 33.772C26.8866 33.6082 26.9268 33.4063 26.973 33.2169C27.0871 32.7476 27.1627 32.2674 27.3041 31.8071C27.4732 31.2566 27.7476 30.7543 28.1886 30.3634C28.6212 29.9784 29.086 29.9784 29.499 30.3784C29.6877 30.5602 29.8524 30.7655 29.989 30.9892C30.5038 31.8453 30.6869 32.7966 30.7467 33.779C30.7515 33.9304 30.7694 34.0812 30.8003 34.2295C30.841 34.4105 30.9427 34.5721 31.0884 34.6871C31.234 34.8021 31.4148 34.8636 31.6004 34.8612C31.7859 34.8577 31.9646 34.7907 32.1066 34.6713C32.2487 34.552 32.3455 34.3875 32.3809 34.2053C32.4138 34.0492 32.4096 33.8833 32.4225 33.7213Z" fill="#313131"/>
<path d="M35.3548 54.0346C35.3615 55.2141 35.2022 56.3096 34.8134 57.368C34.5467 58.0928 34.1865 58.7641 33.5618 59.2503C32.7158 59.9083 31.6511 59.806 30.914 59.0269C30.3635 58.4442 30.0604 57.739 29.864 56.9819C29.3446 54.9932 29.4566 53.0322 30.1738 51.1096C30.43 50.4233 30.8146 49.8146 31.4128 49.3652C31.7694 49.0996 32.2073 48.9663 32.6514 48.9882C33.0956 49.0101 33.5183 49.1858 33.847 49.4853C34.4693 50.0453 34.8015 50.768 35.0272 51.5503C35.2567 52.358 35.3671 53.1949 35.3548 54.0346Z" fill="#307BF6"/>
<path d="M44.6931 52.7115C44.6931 54.1077 44.5609 55.2438 44.1517 56.3337C43.9634 56.8349 43.7142 57.3039 43.2935 57.6535C42.5631 58.2601 41.6153 58.1183 40.9814 57.3455C40.5373 56.8041 40.3245 56.1692 40.167 55.5094C39.8222 54.0674 39.7938 52.6104 40.0367 51.1519C40.1494 50.474 40.3195 49.8055 40.6349 49.185C40.8134 48.835 41.0307 48.5087 41.3464 48.2665C42.0636 47.7156 42.9635 47.836 43.5553 48.5465C44.0012 49.0806 44.2301 49.7128 44.3974 50.3722C44.6119 51.2171 44.7001 52.0791 44.6931 52.7115Z" fill="#307BF6"/>
<path d="M47.6874 46.1855C47.7003 45.1355 47.938 44.1523 48.5488 43.2805C48.8438 42.8605 49.2221 42.5388 49.7142 42.3705C50.4842 42.1104 51.3218 42.3813 51.872 43.0537C52.3991 43.6977 52.6542 44.4519 52.7536 45.2632C52.8733 46.239 52.7767 47.1942 52.4036 48.1112C52.1772 48.6712 51.8643 49.171 51.3687 49.5329C50.4898 50.1751 49.3653 50.0229 48.6625 49.1801C48.1025 48.507 47.8414 47.715 47.7339 46.8624C47.7066 46.6398 47.7028 46.4119 47.6874 46.1855Z" fill="#307BF6"/>
<path d="M24.6949 45.3399C24.6777 46.4949 24.4768 47.5014 23.8748 48.3936C23.5448 48.8836 23.1188 49.2564 22.5186 49.3624C21.8364 49.4828 21.2936 49.206 20.869 48.6974C20.4235 48.1633 20.2537 47.5113 20.1778 46.8386C20.0602 45.7935 20.1942 44.7792 20.6279 43.8146C20.8729 43.2672 21.2257 42.8027 21.7479 42.4846C22.0774 42.2846 22.4664 42.2059 22.8477 42.2619C23.2291 42.318 23.5789 42.5052 23.837 42.7915C24.319 43.3165 24.5325 43.9553 24.635 44.6402C24.6732 44.9017 24.6809 45.1708 24.6949 45.3399Z" fill="#307BF6"/>
</svg>
