<svg width="70" height="70" viewBox="0 0 70 70" fill="none" xmlns="http://www.w3.org/2000/svg">
<circle cx="35" cy="35" r="35" fill="#307BF6"/>
<path d="M33.5794 44.8432C33.5794 44.7617 33.5825 44.7155 33.5794 44.6703C33.5062 43.7753 33.4811 42.8769 33.5045 41.9792C33.532 40.889 33.6373 39.8022 33.8195 38.727C34.0087 37.5937 34.2896 36.4776 34.6595 35.3897C34.741 35.1528 34.8261 34.9165 34.9174 34.6834C34.9674 34.5585 34.9815 34.4222 34.9584 34.2897C34.7757 33.1732 34.6308 32.0518 34.5237 30.9255C34.4488 30.1481 34.3882 29.369 34.3333 28.5899C34.2339 27.1822 34.1877 25.7724 34.1831 24.3609C34.1796 23.2531 34.1908 22.1454 34.243 21.0387C34.2878 20.0835 34.3511 19.1298 34.4488 18.1785C34.5653 17.041 34.7214 15.9094 34.9678 14.7919C35.0904 14.2157 35.2524 13.6486 35.4529 13.0947C35.5692 12.7708 35.7152 12.4583 35.889 12.1613C36.0402 11.91 36.2152 11.6776 36.4438 11.4907C36.7339 11.2534 37.0619 11.1204 37.4427 11.1407C37.75 11.1561 38.0198 11.2719 38.2645 11.4522C38.4823 11.6196 38.6714 11.8212 38.8245 12.0493C39.0128 12.3174 39.1598 12.6093 39.3026 12.9029C39.795 13.9179 40.0999 14.9925 40.3501 16.0855C40.6651 17.4564 40.8863 18.8431 41.0617 20.2379C41.1931 21.2795 41.2981 22.3234 41.3767 23.3697C41.4362 24.1547 41.4876 24.9398 41.5167 25.7266C41.5323 26.1342 41.5487 26.542 41.5657 26.9498C41.5678 27.0006 41.5573 27.0548 41.5944 27.0989C41.6591 27.1189 41.7095 27.0814 41.7631 27.0639C42.1857 26.9116 42.6198 26.7934 43.0612 26.7104C44.331 26.4773 45.5812 26.5669 46.8101 26.9537C47.2323 27.0885 47.6437 27.2551 48.0407 27.4521C48.0967 27.4797 48.1485 27.5221 48.229 27.5137C48.2382 27.4883 48.2453 27.4622 48.25 27.4356C48.2523 27.3949 48.2523 27.3542 48.25 27.3135C48.2369 26.141 48.3285 24.9697 48.5237 23.8135C48.7143 22.6809 48.9652 21.5593 49.2755 20.4535C49.5597 19.4245 49.8841 18.4084 50.2488 17.4053C50.5214 16.6424 50.8346 15.8947 51.1872 15.1653C51.3916 14.7396 51.6255 14.3286 51.8872 13.9354C52.0798 13.643 52.3045 13.373 52.5571 13.1304C52.7346 12.9609 52.9349 12.817 53.1521 12.7027C53.8654 12.3366 54.6221 12.45 55.1978 13.0097C55.4136 13.2229 55.5951 13.4682 55.7358 13.737C55.9189 14.089 56.0646 14.4592 56.1705 14.8416C56.3252 15.3918 56.4404 15.9522 56.5152 16.5188C56.6465 17.4779 56.72 18.444 56.7354 19.4119C56.7452 19.919 56.7554 20.4269 56.7498 20.9333C56.7393 21.8433 56.7063 22.7533 56.6332 23.6588C56.5632 24.5362 56.4932 25.4137 56.4025 26.2894C56.3052 27.2463 56.188 28.2011 56.0777 29.1566C55.9913 29.9094 55.9027 30.6616 55.8153 31.4148C55.7375 32.098 55.6621 32.7816 55.5888 33.4658C55.5342 33.9761 55.4838 34.4864 55.4327 34.997C55.3431 35.9019 55.2543 36.8069 55.1663 37.712C55.1551 37.8282 55.1464 37.9444 55.1352 38.062C55.1268 38.1901 55.1367 38.3188 55.1646 38.4442C55.2626 38.9657 55.3546 39.4882 55.4096 40.016C55.4537 40.4276 55.4957 40.8392 55.5279 41.2519C55.5843 41.9792 55.5944 42.7079 55.5786 43.4369C55.5522 44.7314 55.4168 46.0214 55.1737 47.2932C54.9494 48.4799 54.6214 49.6446 54.1937 50.774C54.1678 50.8389 54.1504 50.9069 54.1419 50.9763C54.0744 51.5793 53.8269 52.1057 53.4653 52.5863C53.1699 52.9697 52.8291 53.3159 52.4503 53.6174C51.9103 54.057 51.3244 54.4269 50.7147 54.7608C50.0075 55.1422 49.2781 55.4809 48.5303 55.7751C47.3481 56.2423 46.14 56.6413 44.912 56.97C43.116 57.4545 41.2948 57.84 39.4566 58.125C38.535 58.271 37.6103 58.3921 36.6832 58.496C35.8257 58.5923 34.9661 58.663 34.1051 58.7235C32.3068 58.8495 30.5065 58.8909 28.7042 58.8478C27.5842 58.8228 26.467 58.7576 25.3526 58.6521C23.9407 58.5167 22.5407 58.307 21.1596 57.9822C20.1877 57.7533 19.2346 57.4695 18.3134 57.0761C18.2221 57.0369 18.1335 56.9921 18.0418 56.955C17.9337 56.9116 17.8252 56.8678 17.7139 56.8353C17.5675 56.7948 17.4295 56.7284 17.3065 56.6393C17.0485 56.4489 16.7899 56.2592 16.5365 56.0646C16.2457 55.8393 15.9821 55.5809 15.7511 55.2946C15.463 54.9428 15.1645 54.5991 14.8897 54.2372C14.3464 53.5274 13.9171 52.7372 13.6175 51.895C13.3476 51.1475 13.2026 50.3607 13.1884 49.5661C13.1704 48.4761 13.4238 47.3988 13.9258 46.4312C14.3661 45.5747 14.9632 44.8425 15.6863 44.2108C16.6975 43.327 17.8588 42.7089 19.1237 42.2753C20.0689 41.9553 21.0467 41.7415 22.0392 41.6379C23.0777 41.5258 24.1247 41.5183 25.1647 41.6155C26.9921 41.7791 28.78 42.2431 30.4563 42.9889C31.519 43.4579 32.522 44.0517 33.4443 44.7578C33.4765 44.7841 33.5153 44.804 33.5794 44.8432ZM23.0745 51.9398C23.8439 51.9434 24.6126 51.8923 25.3747 51.7869C26.452 51.6385 27.5076 51.3998 28.5268 51.0169C29.0889 50.8051 29.6422 50.5759 30.1399 50.228C30.4987 49.977 30.856 49.7264 31.1626 49.4114C31.4776 49.0866 31.7408 48.7251 31.8997 48.2967C32.1027 47.7486 32.1041 47.2015 31.884 46.6583C31.7628 46.3668 31.589 46.1001 31.3712 45.8715C31.0702 45.5481 30.716 45.2947 30.3303 45.0833C29.728 44.7529 29.0833 44.5345 28.4179 44.3749C27.6399 44.1934 26.8469 44.0835 26.0488 44.0466C25.1461 43.9999 24.241 44.031 23.3436 44.1397C22.5328 44.2343 21.7309 44.3942 20.9458 44.6178C20.2435 44.8134 19.5613 45.075 18.9084 45.3994C18.36 45.6769 17.843 46.0014 17.388 46.4179C17.0781 46.6937 16.8183 47.0211 16.6201 47.3856C16.4431 47.7092 16.3445 48.0698 16.3321 48.4384C16.3181 48.9788 16.4955 49.4569 16.8175 49.8853C17.0166 50.1448 17.2524 50.3739 17.5175 50.5654C17.6533 50.6658 17.7877 50.7687 17.9288 50.8615C18.0348 50.9333 18.1466 50.9962 18.263 51.0494C18.9673 51.3613 19.7064 51.5875 20.4645 51.7232C21.3258 51.8773 22.1996 51.9498 23.0745 51.9398ZM42.6853 37.9111C42.6896 37.274 42.5636 36.6428 42.315 36.0561C42.0889 35.5283 41.7739 35.0632 41.3242 34.6995C40.8412 34.3093 40.292 34.0923 39.6648 34.101C39.1027 34.1087 38.6043 34.3023 38.1598 34.639C37.7475 34.9505 37.4357 35.347 37.2012 35.8041C36.7878 36.6091 36.6454 37.4673 36.7231 38.3651C36.7294 38.4289 36.7396 38.4922 36.7535 38.5548C36.7774 38.6634 36.8233 38.7659 36.8883 38.8561C36.9618 38.9603 37.0614 39.0433 37.177 39.0969C37.2927 39.1504 37.4205 39.1726 37.5475 39.1612C37.6744 39.1498 37.7962 39.1052 37.9005 39.0318C38.0048 38.9585 38.0879 38.859 38.1416 38.7434C38.1918 38.6377 38.2184 38.5223 38.2197 38.4053C38.2197 38.3178 38.2158 38.2303 38.2106 38.1432C38.1881 37.8052 38.2166 37.4658 38.2949 37.1362C38.387 36.7579 38.5378 36.4068 38.7849 36.1023C38.9012 35.9557 39.0446 35.8328 39.2074 35.7404C39.5416 35.5556 39.8762 35.5563 40.2045 35.753C40.2941 35.8076 40.3778 35.8712 40.4544 35.9427C40.6502 36.1274 40.8063 36.3499 40.9133 36.5969C41.1443 37.1023 41.2188 37.6343 41.1712 38.1841C41.1579 38.3406 41.1268 38.4956 41.1012 38.6507C41.073 38.7759 41.0647 38.9047 41.0767 39.0325C41.1212 39.3549 41.3403 39.5995 41.6465 39.666C41.796 39.6975 41.9516 39.6818 42.0918 39.6212C42.2319 39.5605 42.3498 39.4578 42.4291 39.3272C42.4934 39.2226 42.5392 39.1078 42.5646 38.9877C42.6451 38.6345 42.6856 38.2734 42.6853 37.9111ZM51.5516 37.9003H51.5382C51.5382 37.8243 51.5418 37.7484 51.5382 37.6728C51.5033 37.0001 51.3429 36.3603 51.0252 35.7632C50.8128 35.3526 50.5191 34.9896 50.162 34.696C49.7823 34.3894 49.3549 34.1857 48.867 34.1217C48.2111 34.0349 47.6179 34.2029 47.082 34.5767C46.612 34.905 46.2718 35.3467 46.0229 35.8563C45.6355 36.6525 45.5028 37.496 45.5861 38.3742C45.6054 38.5765 45.6449 38.7777 45.6824 38.9779C45.7084 39.1344 45.7753 39.2812 45.8763 39.4035C46.0702 39.6317 46.3169 39.7266 46.6113 39.6594C46.9056 39.5922 47.0838 39.3969 47.1573 39.1064C47.1839 38.9924 47.187 38.8741 47.1664 38.7588C47.1549 38.6839 47.138 38.6097 47.124 38.5355C47.0231 38.0246 47.0438 37.497 47.1846 36.9955C47.2729 36.6678 47.4288 36.3622 47.6424 36.0985C47.7524 35.9619 47.8852 35.8455 48.0351 35.7544C48.3704 35.5553 48.7092 35.5535 49.048 35.7446C49.205 35.8348 49.3438 35.9535 49.4571 36.0946C49.6878 36.3818 49.8522 36.7165 49.9384 37.0746C50.031 37.431 50.0635 37.8003 50.0346 38.1673C50.0202 38.2949 50.0232 38.4238 50.0434 38.5506C50.1057 38.8729 50.3559 39.1158 50.6657 39.154C50.8233 39.1752 50.9836 39.1447 51.1225 39.0671C51.2613 38.9895 51.3712 38.8689 51.4357 38.7235C51.4852 38.6174 51.5149 38.5032 51.5232 38.3864C51.5312 38.2258 51.5403 38.062 51.5498 37.9003H51.5516Z" fill="#313131"/>
<path d="M42.6853 37.9111C42.6851 38.273 42.6443 38.6336 42.5635 38.9863C42.5381 39.1064 42.4923 39.2212 42.4281 39.3258C42.3488 39.4564 42.2309 39.5591 42.0907 39.6198C41.9505 39.6804 41.795 39.6961 41.6455 39.6646C41.3392 39.5981 41.1205 39.3535 41.0757 39.0311C41.0637 38.9033 41.072 38.7745 41.1002 38.6493C41.1275 38.4942 41.1586 38.3392 41.1702 38.1827C41.2178 37.6329 41.1432 37.1009 40.9122 36.5955C40.8053 36.3486 40.6492 36.126 40.4534 35.9413C40.3767 35.8698 40.293 35.8062 40.2035 35.7516C39.8752 35.5549 39.5406 35.5542 39.2063 35.739C39.0436 35.8314 38.9001 35.9543 38.7839 36.1009C38.5354 36.4054 38.3845 36.7565 38.2939 37.1348C38.2155 37.4644 38.1871 37.8038 38.2095 38.1418C38.2148 38.2289 38.2193 38.3168 38.2186 38.4039C38.2174 38.5209 38.1908 38.6363 38.1406 38.742C38.0869 38.8576 38.0037 38.9571 37.8994 39.0304C37.7951 39.1038 37.6734 39.1484 37.5464 39.1598C37.4194 39.1712 37.2917 39.149 37.176 39.0955C37.0603 39.0419 36.9607 38.9589 36.8872 38.8547C36.8222 38.7645 36.7763 38.662 36.7525 38.5534C36.7385 38.4908 36.7283 38.4275 36.722 38.3637C36.6443 37.4659 36.7868 36.6081 37.2001 35.8027C37.4346 35.3456 37.7465 34.9491 38.1588 34.6376C38.604 34.3009 39.1038 34.1073 39.6638 34.0996C40.291 34.0909 40.8401 34.3079 41.3231 34.6981C41.7729 35.0618 42.0879 35.5269 42.314 36.0547C42.5631 36.6417 42.6895 37.2735 42.6853 37.9111Z" fill="#ECF6FF"/>
<path d="M51.5498 37.9003C51.5396 38.063 51.5312 38.2258 51.5186 38.3885C51.5103 38.5053 51.4807 38.6195 51.4311 38.7256C51.3667 38.871 51.2568 38.9916 51.1179 39.0692C50.9791 39.1468 50.8188 39.1773 50.6611 39.1561C50.3514 39.1179 50.1011 38.8761 50.0388 38.5527C50.0186 38.4259 50.0157 38.297 50.0301 38.1694C50.059 37.8024 50.0264 37.4331 49.9338 37.0767C49.8476 36.7186 49.6833 36.3839 49.4526 36.0967C49.3392 35.9556 49.2004 35.8369 49.0434 35.7467C48.7046 35.5556 48.3658 35.5574 48.0305 35.7565C47.8807 35.8476 47.7478 35.964 47.6378 36.1006C47.4243 36.3643 47.2683 36.6699 47.18 36.9976C47.0393 37.4991 47.0185 38.0267 47.1195 38.5376C47.1335 38.6118 47.1503 38.686 47.1618 38.7609C47.1825 38.8762 47.1794 38.9945 47.1527 39.1085C47.0792 39.399 46.9021 39.5943 46.6067 39.6615C46.3113 39.7287 46.066 39.6338 45.8717 39.4056C45.7707 39.2833 45.7039 39.1365 45.6778 38.98C45.6404 38.7798 45.6008 38.5786 45.5816 38.3763C45.4983 37.4981 45.6309 36.6546 46.0184 35.8584C46.2672 35.347 46.6074 34.9071 47.0775 34.5788C47.6147 34.2036 48.208 34.0356 48.8625 34.1238C49.3497 34.1878 49.777 34.3915 50.1575 34.6981C50.5146 34.9917 50.8082 35.3547 51.0206 35.7653C51.3384 36.3624 51.4983 37.0022 51.5337 37.6749C51.5375 37.7505 51.5337 37.8264 51.5337 37.9024L51.5498 37.9003Z" fill="#ECF6FF"/>
</svg>
