<svg width="70" height="70" viewBox="0 0 70 70" fill="none" xmlns="http://www.w3.org/2000/svg">
<circle cx="35" cy="35" r="35" fill="#ECF6FF"/>
<path d="M22.2309 24.7961C22.5627 24.4647 22.8675 24.1371 23.1965 23.8354C24.3036 22.8204 25.5545 22.0479 26.9888 21.5772C27.588 21.3808 28.1998 21.2398 28.8235 21.1953C29.4125 21.153 30.0058 21.1603 30.598 21.2583C31.5678 21.42 32.4572 21.7662 33.258 22.3293C34.1599 22.9628 34.8564 23.7794 35.3643 24.7576C35.7941 25.5847 36.0604 26.4614 36.2099 27.3826C36.3215 28.0707 36.3415 28.7606 36.317 29.4518C36.3019 29.8795 36.2323 30.3051 36.1847 30.7535C36.226 30.7559 36.2806 30.7622 36.3348 30.7622C36.6789 30.7622 37.0229 30.7587 37.367 30.7622C38.102 30.7724 38.8352 30.7759 39.5688 30.8032C40.2951 30.8301 41.021 30.877 41.7462 30.9257C42.3828 30.9684 43.0198 31.0142 43.6544 31.0786C44.3057 31.1448 44.9557 31.227 45.6042 31.3163C46.6136 31.4563 47.6251 31.5833 48.6282 31.7587C50.9711 32.1685 53.2787 32.724 55.5204 33.529C56.9421 34.0396 58.3204 34.6462 59.5972 35.462C60.5548 36.0738 61.4386 36.7721 62.0871 37.7248C62.56 38.4188 62.8512 39.1787 62.8141 40.0285C62.7791 40.8723 62.4581 41.6259 61.9475 42.2888C61.6608 42.6608 61.3238 42.994 61.0109 43.3458C60.922 43.4455 60.8505 43.4473 60.7333 43.3629C59.4285 42.4231 58.1203 41.488 56.8088 40.5577C55.8645 39.885 54.9189 39.2138 53.972 38.5441C53.4859 38.2001 52.957 38.2291 52.5451 38.6561C51.5791 39.6519 50.6257 40.6595 49.6674 41.6623C49.2929 42.0543 48.9159 42.4438 48.5449 42.839C48.4546 42.9356 48.3972 42.9128 48.322 42.8253C47.2062 41.5257 46.0893 40.2271 44.9714 38.9298C44.8041 38.7359 44.6358 38.5413 44.4538 38.3614C44.0467 37.9586 43.4409 37.9488 43.0464 38.3663C42.6264 38.8105 42.2379 39.2837 41.8403 39.7485C41.1018 40.6118 40.3654 41.4767 39.6311 42.343C39.3746 42.6447 39.1152 42.9443 38.8643 43.2509C38.7593 43.3776 38.6865 43.3724 38.572 43.2572C37.3353 42.0131 36.0953 40.7713 34.8519 39.5318C34.637 39.3166 34.4032 39.1409 34.0878 39.1118C33.7378 39.0793 33.4498 39.2168 33.2072 39.4576C31.6721 40.9895 30.1376 42.522 28.6037 44.0552C28.4714 44.1872 28.3352 44.3153 28.2117 44.4546C27.9639 44.7346 27.8463 45.0545 27.9667 45.423C28.1669 46.0383 28.9281 46.2308 29.4398 45.7765C29.8794 45.3863 30.2882 44.9607 30.7051 44.5452C31.7551 43.5001 32.8016 42.4525 33.8446 41.4022C33.9608 41.285 34.0238 41.2923 34.1354 41.4047C35.3721 42.6493 36.6119 43.8907 37.8549 45.129C38.0491 45.3226 38.2486 45.514 38.5283 45.5816C39.0183 45.7016 39.3728 45.4811 39.6752 45.1266C40.6678 43.9599 41.6608 42.7932 42.6541 41.6266C42.9789 41.2451 43.3065 40.866 43.6246 40.4793C43.7296 40.3522 43.7954 40.3673 43.8952 40.4838C44.8397 41.5849 45.7866 42.6839 46.7358 43.7808C47.0249 44.1158 47.3028 44.4619 47.6073 44.7829C48.1018 45.3047 48.6667 45.3138 49.1858 44.8126C49.5008 44.5092 49.7948 44.1854 50.0958 43.8676C50.8042 43.1256 51.5118 42.3833 52.2188 41.6406C52.5765 41.265 52.9364 40.8912 53.2888 40.5108C53.3847 40.4058 53.454 40.4086 53.5688 40.4898C55.0894 41.5785 56.6125 42.6643 58.1381 43.7472C58.499 44.0039 58.8599 44.2606 59.2206 44.5172C59.2574 44.5474 59.2925 44.5797 59.3256 44.6138C59.236 44.6754 59.1594 44.7339 59.0771 44.7832C57.7265 45.5973 56.2949 46.2371 54.8176 46.7824C53.2608 47.3531 51.6695 47.8244 50.0531 48.1936C48.9331 48.4526 47.8008 48.6745 46.6689 48.8845C45.816 49.0427 44.9539 49.1617 44.0968 49.2863C43.5756 49.3619 43.0513 49.4169 42.5281 49.4781C41.9464 49.5464 41.3654 49.6181 40.7826 49.6752C40.3843 49.714 39.9832 49.728 39.5835 49.7578C39.0792 49.7956 38.5755 49.8428 38.0708 49.8768C37.7341 49.8995 37.3967 49.9118 37.0593 49.9195C36.2848 49.938 35.5099 49.9608 34.7353 49.9639C33.5686 49.9691 32.4034 49.9653 31.2395 49.9527C30.6445 49.9457 30.0523 49.9177 29.4601 49.8799C28.799 49.8386 28.1392 49.7774 27.4791 49.7238C26.9818 49.6839 26.4837 49.6493 25.9874 49.5999C25.5779 49.559 25.1705 49.4998 24.7624 49.4484C24.3424 49.3952 23.9224 49.3434 23.5049 49.287C23.0289 49.2219 22.5518 49.1614 22.0786 49.077C21.3146 48.944 20.5463 48.8254 19.7931 48.6451C18.5086 48.3378 17.2259 48.0151 15.9575 47.6483C14.2957 47.1657 12.6857 46.5357 11.1863 45.6624C10.5356 45.2834 9.93221 44.8224 9.30956 44.3961C9.05616 44.2211 8.94205 43.9394 8.7737 43.6982C8.12935 42.7725 7.74612 41.741 7.50077 40.6476C7.3009 39.7829 7.19435 38.8992 7.18296 38.0118C7.17911 37.3891 7.15462 36.7644 7.19382 36.1442C7.23792 35.4389 7.31455 34.7333 7.4269 34.0358C7.61468 32.8527 7.89246 31.6857 8.25781 30.5449C8.91616 28.503 9.79257 26.5629 10.992 24.7769C11.6532 23.7923 12.392 22.8729 13.2688 22.0707C14.2047 21.2132 15.2396 20.5177 16.4849 20.1779C18.1201 19.732 19.7865 20.3091 20.8004 21.6479C21.477 22.5414 21.911 23.5379 22.1742 24.6159C22.1847 24.6677 22.2046 24.716 22.2309 24.7961ZM32.7515 28.8617C32.7057 28.4575 32.6815 28.049 32.6094 27.6493C32.446 26.7428 32.104 25.9137 31.4338 25.2557C30.7212 24.5557 29.8731 24.2711 28.8886 24.507C28.1067 24.6943 27.5099 25.172 27.0336 25.802C26.2765 26.8023 25.958 27.9608 25.8541 29.1897C25.8408 29.3243 25.8582 29.4601 25.9048 29.5871C25.9514 29.714 26.0261 29.8288 26.1232 29.9229C26.4057 30.2029 26.7441 30.2859 27.119 30.1406C27.4938 29.9954 27.679 29.708 27.7269 29.3153C27.7752 28.9349 27.812 28.5495 27.9019 28.1785C28.0468 27.5944 28.3118 27.0624 28.7486 26.6336C29.2407 26.151 29.7583 26.1436 30.1808 26.6105C30.2505 26.6889 30.3134 26.7731 30.3687 26.8622C30.7149 27.4106 30.8388 28.0235 30.8745 28.6594C30.9049 29.2005 30.7982 29.7252 30.6848 30.2509C30.543 30.9096 30.99 31.4454 31.6298 31.4087C32.0498 31.3845 32.3781 31.0765 32.502 30.5774C32.6448 30.0158 32.7285 29.4408 32.7515 28.8617ZM19.7704 29.5173C19.7354 28.7413 19.6622 27.9944 19.4477 27.2678C19.2027 26.4453 18.8453 25.6879 18.1992 25.0978C17.6273 24.5763 16.9623 24.3152 16.1808 24.4293C15.4059 24.5427 14.8098 24.9669 14.3293 25.5584C13.5663 26.4978 13.1743 27.6014 12.9821 28.7784C12.8771 29.4256 13.3353 29.918 13.9677 29.8764C14.3419 29.8519 14.6712 29.5659 14.778 29.1603C14.8536 28.8729 14.9078 28.58 14.988 28.2944C15.1661 27.6588 15.4293 27.0631 15.8941 26.5794C16.3589 26.0957 16.7604 26.1338 17.1489 26.6756C17.6088 27.3168 17.781 28.0574 17.8671 28.8229C17.9059 29.1697 17.8919 29.5229 17.9399 29.868C18.0323 30.533 18.796 30.8546 19.3493 30.4749C19.6986 30.239 19.7627 29.8788 19.7704 29.5173Z" fill="#307BF6"/>
</svg>
