<svg width="70" height="70" viewBox="0 0 70 70" fill="none" xmlns="http://www.w3.org/2000/svg">
<circle cx="35" cy="35" r="35" fill="#307BF6"/>
<path d="M46.1942 30.9252C46.1921 33.4757 45.7294 36.4812 44.7813 39.4128C44.6794 39.7278 44.6812 40.0736 44.6091 40.3991C44.4589 41.076 44.2958 41.7497 44.1303 42.4228C43.8783 43.4473 43.6216 44.4707 43.3603 45.493C43.3228 45.6389 43.3456 45.7341 43.4772 45.8146C43.8296 46.0306 44.1772 46.2549 44.5272 46.4744C44.9311 46.7271 45.3007 47.0204 45.5719 47.4162C45.9324 47.9412 45.9867 48.5303 45.8834 49.1435C45.7648 49.8459 45.4953 50.4973 45.2083 51.1427C45.1278 51.3236 45.0539 51.5077 44.9738 51.689C44.6042 52.5234 44.7592 53.2843 45.349 53.9448C46.351 55.0676 47.5512 55.9023 48.9781 56.4217C50.2652 56.8909 51.5776 57.287 52.9093 57.6082C53.0889 57.6516 53.2786 57.6523 53.4623 57.6782C53.6114 57.7003 53.7693 57.7069 53.9047 57.7643C54.3678 57.96 54.4714 58.5256 54.1067 58.8724C53.9663 59.0036 53.8092 59.1155 53.6394 59.2053C52.6279 59.7464 51.5765 60.1891 50.4513 60.4303C49.2389 60.6917 48.066 60.4905 46.9075 60.1086C45.4666 59.6337 44.2206 58.8301 43.0575 57.877C42.2319 57.2001 41.3775 56.5628 40.436 56.0514C38.966 55.2534 37.3945 54.9797 35.7492 55.2177C34.7646 55.3598 33.7892 55.574 32.8162 55.7865C31.3794 56.1015 29.9381 56.2359 28.4762 56.0038C27.4699 55.8439 26.5351 55.4757 25.6191 55.0434C23.5359 54.0603 22.061 52.4615 21.003 50.4553C20.3467 49.2103 19.8497 47.8947 19.4245 46.5538C19.3527 46.3277 19.3387 46.0845 19.2803 45.8538C19.2131 45.5889 19.1326 45.3271 19.0468 45.0674C18.7773 44.254 18.5166 43.4374 18.2257 42.6317C18.0157 42.0518 17.7536 41.4914 17.5334 40.9167C16.6766 38.6767 16.1551 36.3566 15.9164 33.9717C15.6836 31.6781 15.7205 29.3651 16.0263 27.0801C16.4596 23.8601 17.3815 20.7948 18.9401 17.9343C19.9855 16.0152 21.2791 14.2859 22.9164 12.8274C24.6353 11.2962 26.5827 10.1863 28.8496 9.69739C31.1404 9.20284 33.3716 9.42299 35.5346 10.3274C37.7746 11.2633 39.5911 12.7585 41.114 14.6264C42.9763 16.9105 44.2227 19.5142 45.0553 22.3264C45.8344 24.9567 46.1942 27.6524 46.1942 30.9252ZM39.9751 21.156C39.9499 20.9656 39.924 20.5803 39.8435 20.2065C39.6335 19.2289 39.1883 18.3777 38.3833 17.7565C37.8044 17.3092 37.1499 17.0754 36.4089 17.2091C35.9049 17.3001 35.4905 17.5797 35.1377 17.9339C33.8665 19.2093 33.1539 20.7486 33.05 22.548C32.9716 23.9053 33.6537 24.8629 34.9452 25.2839C35.4352 25.4439 35.9438 25.5002 36.4569 25.5289C37.5611 25.5926 38.405 25.1212 39.0532 24.2616C39.7014 23.402 39.9586 22.4139 39.9751 21.1571V21.156ZM28.6536 22.626L28.7047 22.6176C28.6305 22.1752 28.5784 21.7279 28.4769 21.2922C28.318 20.6111 28.0376 19.9751 27.6883 19.3672C27.3173 18.7218 26.8672 18.1422 26.2806 17.683C25.8739 17.3638 25.4175 17.1482 24.8834 17.1727C24.0476 17.2108 23.37 17.5892 22.8454 18.2164C21.8563 19.3987 21.5703 20.7822 21.8188 22.2764C21.9847 23.2704 22.4107 24.1489 23.1838 24.8314C23.6189 25.2164 24.1197 25.4705 24.6976 25.516C25.4308 25.5734 26.1571 25.4971 26.8553 25.25C27.4731 25.0312 27.9907 24.6812 28.3253 24.095C28.5871 23.6379 28.6736 23.1447 28.6536 22.6253V22.626Z" fill="#ECF6FF"/>
<path d="M39.9751 21.1571C39.9586 22.4139 39.7014 23.4023 39.0532 24.2623C38.405 25.1222 37.5611 25.5923 36.4569 25.5297C35.9438 25.4999 35.4359 25.4436 34.9452 25.2847C33.6537 24.8647 32.9716 23.906 33.05 22.5487C33.155 20.7493 33.8665 19.21 35.1377 17.9346C35.4905 17.5804 35.9049 17.3008 36.4089 17.2098C37.1499 17.0761 37.8044 17.3099 38.3833 17.7572C39.1883 18.3798 39.6331 19.231 39.8435 20.2072C39.924 20.5813 39.9499 20.9667 39.9751 21.1571Z" fill="#313131"/>
<path d="M28.6536 22.6253C28.6736 23.1447 28.5871 23.6379 28.3246 24.0954C27.9893 24.6809 27.4717 25.0309 26.8546 25.2504C26.1564 25.4975 25.4301 25.5737 24.6969 25.5163C24.119 25.4708 23.6182 25.2171 23.1831 24.8317C22.4114 24.1478 21.9854 23.2693 21.8181 22.2767C21.5696 20.7836 21.8556 19.4001 22.8447 18.2167C23.3697 17.5895 24.0469 17.2112 24.8827 17.173C25.4168 17.1485 25.8732 17.3641 26.2799 17.6833C26.8665 18.1439 27.3166 18.7221 27.6876 19.3675C28.0376 19.9748 28.3176 20.6107 28.4762 21.2925C28.5777 21.7283 28.6298 22.1756 28.704 22.618L28.6536 22.6253Z" fill="#313131"/>
</svg>
