<svg width="70" height="70" viewBox="0 0 70 70" fill="none" xmlns="http://www.w3.org/2000/svg">
<circle cx="35" cy="35" r="35" fill="#ECF6FF"/>
<path d="M46.0056 33.2919C46.1428 33.3938 46.2775 33.4995 46.4179 33.5968C46.7627 33.8364 47.1091 34.0736 47.457 34.3083C47.496 34.328 47.5372 34.3426 47.5799 34.3517C47.6124 34.4196 47.6275 34.5078 47.68 34.5519C47.9834 34.8064 48.3019 35.0419 48.6036 35.2988C49.9886 36.4773 51.2332 37.7807 52.2513 39.2986C53.0213 40.4466 53.5586 41.6989 54.0321 42.9859C54.1021 43.1791 54.1847 43.3684 54.2614 43.5595C54.2522 44.5275 54.1467 45.4922 53.9464 46.4393C53.6853 47.6755 53.2744 48.8543 52.5509 49.9043C51.6819 51.1643 50.4961 52.0148 49.0824 52.5685C47.6824 53.1173 46.2177 53.3893 44.7323 53.5685C43.3704 53.733 42.0023 53.7827 40.6327 53.8159C40.3177 53.8236 40.0027 53.9209 39.6933 53.9993C37.1653 54.6559 34.5963 55.1435 32.0035 55.4588C30.453 55.6493 28.8936 55.758 27.3317 55.7847C25.5204 55.8109 23.7186 55.7238 21.9417 55.3482C21.2103 55.1976 20.4958 54.974 19.8091 54.6808C19.093 54.3707 18.3584 54.1012 17.6556 53.7638C16.7582 53.3326 15.9601 52.7428 15.2174 52.0799C13.1902 50.269 11.8067 48.0255 10.8228 45.5174C10.1743 43.8601 9.72916 42.1303 9.49704 40.3658C9.37839 39.4715 9.25625 38.572 9.2342 37.6729C9.2083 36.6145 9.25975 35.5515 9.3315 34.4942C9.42253 33.1091 9.65485 31.737 10.0248 30.3992C10.2775 29.4892 10.5905 28.5984 10.8974 27.7063C10.9692 27.498 10.974 27.3255 10.8998 27.1225C10.3459 25.6177 9.87184 24.0848 9.47954 22.5301C9.21529 21.4717 8.9941 20.4039 8.9311 19.3101C8.9017 18.8037 8.89609 18.2951 9.034 17.7985C9.1334 17.4408 9.27375 17.1013 9.5415 16.8342C9.95835 16.4188 10.4655 16.3138 11.0259 16.444C11.5782 16.5721 12.0429 16.8717 12.4808 17.2175C13.3827 17.9294 14.1468 18.7771 14.8734 19.6612C15.1434 19.9895 15.4086 20.3219 15.669 20.6583C15.7477 20.7598 15.803 20.7693 15.9077 20.6877C17.0431 19.8005 18.2849 19.1071 19.6632 18.6756C21.7425 18.0249 23.8247 17.985 25.9019 18.6868C26.0699 18.7435 26.1588 18.7197 26.2554 18.5667C26.9117 17.5279 27.6582 16.5595 28.5654 15.7254C29.1912 15.15 29.8688 14.6436 30.691 14.379C32.2138 13.889 33.4493 14.5092 33.9792 16.0212C34.2806 16.8811 34.3114 17.7712 34.2344 18.6651C34.0723 20.5463 33.4994 22.3152 32.7266 24.0257C32.7073 24.0684 32.687 24.1104 32.6671 24.1524C32.4511 24.6095 32.4525 24.6074 32.6884 25.0578C33.4619 26.5306 34.0254 28.0836 34.4528 29.6887C34.5158 29.9249 34.5791 30.1619 34.6278 30.4013C34.6554 30.5336 34.7167 30.5689 34.8462 30.5542C35.5525 30.4741 36.2584 30.3866 36.9668 30.3278C37.7795 30.2606 38.5975 30.1878 39.3909 30.4678C39.5285 30.5168 39.6107 30.4678 39.6709 30.3505C39.6573 30.4034 39.6433 30.4555 39.6272 30.5168C39.707 30.5423 39.7672 30.5598 39.8281 30.5812C40.688 30.8909 41.5574 31.1762 42.4051 31.5164C43.5864 31.9892 44.7043 32.5923 45.7903 33.2552C45.8481 33.2919 45.9331 33.2814 46.0056 33.2919ZM17.7539 35.1984C17.9062 35.1798 18.099 35.1683 18.2866 35.1312C19.7598 34.8393 20.8766 33.7245 21.1815 32.2489C21.298 31.684 21.3351 31.1156 21.1832 30.5525C21.025 29.9652 20.3695 29.7405 19.9299 30.1164C19.6572 30.3498 19.6404 30.6652 19.6604 30.9977C19.6765 31.2689 19.6866 31.5465 19.6485 31.8142C19.5123 32.7697 18.7798 33.4837 17.8225 33.5894C16.916 33.6895 16.1845 33.3206 15.5863 32.6679C15.2148 32.2607 14.966 31.7568 14.8685 31.2143C14.7901 30.8052 14.5475 30.5518 14.222 30.4993C13.6022 30.3988 13.1661 30.9021 13.3085 31.5538C13.5518 32.6651 14.1073 33.5863 15.005 34.288C15.8006 34.9086 16.7015 35.2197 17.7539 35.1984ZM28.2333 32.3956C28.4083 32.3868 28.5353 32.3858 28.6627 32.3732C29.8506 32.2552 30.7893 31.7257 31.4137 30.6897C31.8089 30.0334 31.9216 29.3065 31.9037 28.5547C31.8967 28.2803 31.8502 28.0094 31.6811 27.7759C31.6156 27.6844 31.531 27.6083 31.4331 27.5527C31.3353 27.4971 31.2266 27.4634 31.1144 27.454C31.0023 27.4446 30.8894 27.4597 30.7837 27.4981C30.678 27.5366 30.5818 27.5976 30.502 27.6769C30.257 27.9236 30.2255 28.2285 30.2713 28.5536C30.3613 29.1875 30.2461 29.766 29.7775 30.2305C29.2175 30.7852 28.5234 30.8979 27.7846 30.7555C26.653 30.5367 25.8225 29.8847 25.2317 28.9082C25.162 28.7873 25.0759 28.6767 24.9758 28.5795C24.8907 28.4989 24.7881 28.4391 24.676 28.4048C24.5639 28.3705 24.4454 28.3626 24.3298 28.3818C24.2141 28.4009 24.1045 28.4466 24.0094 28.5152C23.9144 28.5838 23.8365 28.6735 23.782 28.7773C23.7132 28.8975 23.6783 29.0342 23.6811 29.1727C23.6839 29.3112 23.7242 29.4463 23.7977 29.5637C24.0011 29.9018 24.2086 30.2452 24.4662 30.5409C25.47 31.6949 26.7314 32.3424 28.2333 32.3956Z" fill="#307BF6"/>
<path d="M54.2614 43.5595C54.1847 43.3684 54.1032 43.1791 54.0321 42.9859C53.5586 41.6989 53.0217 40.4466 52.2513 39.2986C51.2332 37.7807 49.9886 36.4773 48.6036 35.2988C48.3019 35.0423 47.9834 34.8064 47.68 34.5519C47.6275 34.5078 47.6124 34.4196 47.5799 34.3517L47.6992 34.1417C47.7022 34.1411 47.7051 34.1402 47.708 34.1393L47.7034 34.1298C48.0072 33.7186 48.2946 33.294 48.618 32.8982C49.7611 31.4982 50.9525 30.1412 52.2268 28.8588C53.756 27.3188 55.3292 25.8285 57.1412 24.6175C57.6116 24.3025 58.1016 24.0201 58.6563 23.8724C59.6461 23.6092 60.3948 24.0173 60.6944 24.9924C60.91 25.6948 60.9093 26.419 60.8736 27.1421C60.777 29.1049 60.3836 31.0124 59.7721 32.8761C58.9874 35.261 57.929 37.522 56.6505 39.6791C56.0117 40.7564 55.3296 41.8078 54.6691 42.8721C54.5288 43.0982 54.3972 43.3303 54.2614 43.5595Z" fill="#313131"/>
<path d="M46.0574 33.3343C45.9849 33.3234 45.8999 33.3343 45.8425 33.2993C44.7575 32.6367 43.6375 32.0333 42.4576 31.5608C41.6096 31.2213 40.7402 30.935 39.8806 30.6256C39.8207 30.6039 39.7591 30.5864 39.6793 30.5612L39.7234 30.3946C40.0608 29.718 40.3985 29.0422 40.7363 28.3674L40.8315 28.1725L41.4661 26.9345L41.4965 26.8736L41.7415 26.4214C41.7439 26.4205 41.7463 26.4195 41.7485 26.4183V26.4099L41.9172 26.1061C41.9196 26.1053 41.922 26.1044 41.9242 26.1033V26.0949L42.4076 25.3018L42.4149 25.2997V25.2909L42.5486 25.0925H42.5556V25.0837L42.6512 24.9528C42.6542 24.9522 42.6573 24.9514 42.6603 24.9504L42.6582 24.9409L42.9959 24.6014H43.0064V24.592L43.1139 24.5241L43.4068 24.4191C43.5202 24.4191 43.6336 24.4191 43.7463 24.4191L44.0386 24.5241L44.1457 24.5909V24.5997H44.1558L44.3532 24.8002V24.8093H44.3616L44.426 24.9003V24.9101L44.4355 24.9122C44.4575 24.9472 44.4799 24.984 44.5016 25.0197C44.6398 25.3967 44.7781 25.774 44.9167 26.1516C44.9307 26.2065 44.9451 26.2615 44.9594 26.3157C45.0509 26.68 45.1424 27.0449 45.2338 27.4105C45.2454 27.4595 45.2566 27.5085 45.2688 27.5572L45.2636 27.5635L45.2709 27.5684C45.2828 27.6174 45.2951 27.666 45.3059 27.714C45.3168 27.7619 45.3283 27.8155 45.3409 27.8666C45.3535 27.9177 45.363 27.9635 45.3738 28.0115L45.3679 28.0178L45.3749 28.0234C45.3871 28.0717 45.399 28.1203 45.4099 28.1683C45.4207 28.2162 45.4323 28.2701 45.4431 28.3212C45.454 28.3723 45.468 28.4304 45.4799 28.4843L45.5149 28.673L45.5464 28.8179L45.5418 28.8238L45.5495 28.8287L45.5768 28.9659C45.5751 28.9691 45.5712 28.9733 45.5723 28.9757C45.575 28.9825 45.5784 28.9889 45.5824 28.995C45.5926 29.0436 45.6031 29.0919 45.6132 29.1402C45.6111 29.1434 45.6069 29.1476 45.608 29.15C45.611 29.1569 45.6145 29.1636 45.6185 29.17C45.6286 29.2186 45.6384 29.2669 45.6486 29.3152C45.6468 29.3184 45.6423 29.3226 45.6433 29.325C45.6463 29.3319 45.6498 29.3386 45.6538 29.345C45.664 29.3933 45.6738 29.4416 45.6839 29.4895C45.6818 29.4927 45.6776 29.4972 45.6787 29.4997C45.6817 29.5066 45.6852 29.5132 45.6892 29.5196C45.699 29.5683 45.7084 29.6169 45.7182 29.6652C45.7161 29.6684 45.7119 29.6726 45.713 29.675C45.7157 29.682 45.7191 29.6886 45.7231 29.695L45.7581 29.8731C45.7557 29.8763 45.7511 29.8808 45.7518 29.8833C45.7548 29.8906 45.7584 29.8976 45.7627 29.9043L45.791 30.0485C45.7889 30.0516 45.784 30.0562 45.7851 30.0586C45.7881 30.0657 45.7916 30.0726 45.7956 30.0793L45.8239 30.2301C45.8267 30.2476 45.8295 30.2651 45.832 30.284C45.8414 30.3358 45.8505 30.389 45.86 30.4391C45.8624 30.4569 45.8652 30.4741 45.868 30.4937L45.8953 30.6487C45.8978 30.6669 45.8999 30.6837 45.9023 30.7033C45.9125 30.7649 45.9223 30.8265 45.9321 30.8874C45.9296 30.8906 45.9247 30.8948 45.9254 30.8972C45.9282 30.9048 45.9316 30.9122 45.9356 30.9193L45.965 31.1037C45.9675 31.1217 45.97 31.1399 45.9723 31.1583C45.9814 31.222 45.9907 31.2854 46 31.3484L46.0063 31.4033C46.0154 31.4681 46.0241 31.5325 46.0332 31.5965L46.0416 31.6791C46.0504 31.7453 46.0591 31.8114 46.0679 31.8769C46.0707 31.9038 46.0731 31.9315 46.0759 31.9588C46.0855 32.0372 46.0951 32.1154 46.1046 32.1936C46.1074 32.2307 46.1106 32.2685 46.1134 32.3067C46.1218 32.3767 46.1302 32.4432 46.1382 32.5107C46.1417 32.5583 46.1452 32.6066 46.1487 32.6549C46.1582 32.7599 46.1676 32.8628 46.1771 32.9657C46.1771 33.0007 46.1788 33.0382 46.1799 33.0749L46.0574 33.3343Z" fill="#313131"/>
<path d="M47.7034 34.1302L47.708 34.1396C47.7051 34.1406 47.7022 34.1414 47.6992 34.1421L47.6968 34.134L47.7034 34.1302Z" fill="#307BF6"/>
</svg>
