<svg width="70" height="70" viewBox="0 0 70 70" fill="none" xmlns="http://www.w3.org/2000/svg">
<circle cx="35" cy="35" r="35" fill="#ECF6FF"/>
<path d="M41.6708 55.987C41.3407 56.2631 41.0208 56.5519 40.6792 56.8126C38.9275 58.1517 37.0091 59.179 34.9091 59.8576C33.489 60.3205 32.0156 60.6004 30.5247 60.6906C28.4107 60.817 26.3471 60.5611 24.3374 59.8947C22.4611 59.2765 20.7172 58.3126 19.1955 57.0527C17.1305 55.3479 15.5769 53.2556 14.4887 50.8154C13.6893 49.0166 13.1781 47.1032 12.9739 45.1454C12.7854 43.4168 12.8197 41.6712 13.0761 39.9514C13.0975 39.8096 13.0411 39.7568 12.9239 39.7064C11.5939 39.1369 10.4739 38.2948 9.60482 37.1342C8.67732 35.8959 8.16982 34.5012 8.20482 32.9503C8.25557 30.7138 9.24956 28.9456 11.0234 27.6149C12.338 26.629 13.8388 26.1362 15.4747 26.0399C16.9541 25.9485 18.4326 26.2331 19.7723 26.8673C19.8145 26.8874 19.8577 26.9051 19.9018 26.9205C19.9269 26.9235 19.9523 26.9235 19.9774 26.9205C19.9487 26.805 19.9242 26.6948 19.8938 26.5866C19.5369 25.322 19.3769 24.01 19.4192 22.6967C19.4678 21.247 19.7387 19.8488 20.4342 18.5577C20.8654 17.7572 21.4327 17.0754 22.2398 16.6327C23.4708 15.9589 24.6965 16.0618 25.8914 16.7335C26.9354 17.3204 27.689 18.2013 28.3064 19.2083C28.467 19.4697 28.6119 19.741 28.7838 20.0431C28.8321 19.923 28.8702 19.8355 28.9028 19.7459C29.552 17.9721 30.3626 16.2767 31.3766 14.681C32.17 13.4319 33.0681 12.2661 34.1566 11.2567C34.9966 10.4779 35.9091 9.80835 37.0175 9.4552C37.9181 9.16855 38.8085 9.157 39.667 9.6029C40.3838 9.9746 40.8665 10.5689 41.2151 11.2829C41.6575 12.1891 41.8367 13.1603 41.9035 14.155C42.0211 15.9113 41.7744 17.6316 41.3687 19.335C41.0081 20.8256 40.5162 22.2814 39.8987 23.6852C39.8483 23.8003 39.8577 23.8535 39.975 23.9148C41.4413 24.6802 42.7793 25.6698 43.9405 26.8477C45.5085 28.4332 46.7111 30.2641 47.5773 32.3179C48.2043 33.8077 48.6362 35.3724 48.8622 36.9729C49.123 38.8165 49.1313 40.6871 48.8867 42.533C48.5838 44.873 47.8942 47.1464 46.8462 49.2603C46.5662 49.8291 46.2355 50.3737 45.9285 50.9291C45.8849 50.9754 45.8438 51.0241 45.8053 51.0747C45.5253 51.4828 45.2397 51.886 44.974 52.3025C44.1981 53.5195 43.2979 54.6178 42.1041 55.4564C41.9242 55.5827 41.8136 55.8081 41.6708 55.987ZM31.2474 48.3752C31.2474 49.8641 31.5974 51.2294 32.3828 52.1944C33.3425 53.3704 34.8031 53.8352 36.2433 53.3585C37.3147 53.0036 38.1228 52.2997 38.7633 51.3929C39.6103 50.1938 40.0454 48.848 40.1126 47.3878C40.1696 46.1506 39.9435 44.9728 39.2705 43.9081C38.3321 42.4266 36.7424 41.8326 35.1223 42.3615C34.1773 42.6702 33.4314 43.2732 32.8228 44.0383C31.839 45.2736 31.2859 46.7965 31.2474 48.3752Z" fill="#307BF6"/>
<path d="M41.6708 55.987C41.8136 55.8081 41.9241 55.5834 42.104 55.4571C43.2979 54.6171 44.1981 53.5202 44.974 52.3032C45.2397 51.8867 45.5267 51.4836 45.8053 51.0755C45.8438 51.0248 45.8849 50.9762 45.9285 50.9298C46.0199 50.9415 46.1118 50.9483 46.2039 50.9501C48.7736 50.8825 51.3431 50.8132 53.9123 50.7423C54.6386 50.7213 55.3662 50.6323 56.0897 50.6624C57.475 50.7198 58.8631 50.7965 60.2221 51.102C60.5704 51.1804 60.9253 51.2956 61.2343 51.4699C61.9581 51.8784 61.9903 52.7649 61.2875 53.2094C60.9141 53.4449 60.4853 53.614 60.0604 53.7428C58.5834 54.1904 57.0599 54.4179 55.5346 54.6237C51.1624 55.2142 46.7643 55.4638 42.3578 55.5912C42.2826 55.5899 42.208 55.6039 42.1384 55.6323C42.0688 55.6607 42.0057 55.7029 41.9529 55.7563C41.8629 55.838 41.7687 55.915 41.6708 55.987Z" fill="#313131"/>
<path d="M38.4973 49.5095C38.4655 50.3719 38.2366 51.2865 37.5922 52.0537C37.2772 52.4271 36.887 52.6837 36.3816 52.7082C35.6917 52.7432 35.0474 52.2465 34.8122 51.4951C34.5063 50.5175 34.6172 49.561 34.9784 48.6209C35.2024 48.0385 35.5542 47.5516 36.0984 47.2331C36.7802 46.8334 37.573 47.0196 38.0297 47.6668C38.3941 48.1848 38.4938 48.7759 38.4973 49.5095Z" fill="#313131"/>
</svg>
