<svg width="70" height="70" viewBox="0 0 70 70" fill="none" xmlns="http://www.w3.org/2000/svg">
<circle cx="35" cy="35" r="35" fill="#307BF6"/>
<path d="M60.377 25.2819C60.342 27.3515 59.8952 29.3935 59.0628 31.2886C58.426 32.7489 57.572 34.1045 56.5298 35.3094C55.5168 36.486 54.3192 37.49 52.984 38.2823C52.8734 38.3478 52.831 38.4181 52.8412 38.5476C52.9227 39.5742 52.9035 40.5979 52.7428 41.6168C52.7078 41.8506 52.7078 41.8495 52.9462 41.8863C54.0053 42.0487 55.0189 42.349 55.925 42.9363C57.3628 43.8676 58.1748 45.1567 58.1048 46.9161C58.0698 47.754 57.7898 48.5237 57.3698 49.244C56.7164 50.364 55.805 51.2351 54.7319 51.9442C52.6392 53.3267 50.3348 54.0026 47.833 54.0236C46.7049 54.0398 45.5835 53.8482 44.5248 53.4583C44.4239 53.425 44.314 53.4317 44.2179 53.4772C43.3598 53.9596 42.4713 54.3857 41.5579 54.7526C40.2072 55.2874 38.8016 55.6713 37.3666 55.8971C35.5737 56.1851 33.7489 56.2161 31.9472 55.9892C30.3057 55.7792 28.722 55.3592 27.2082 54.6942C25.9145 54.1298 24.7058 53.3877 23.6172 52.4892C22.3952 51.4817 21.3584 50.2687 20.5533 48.9048C19.7772 47.5855 19.2438 46.1377 18.9783 44.6303C18.9517 44.4826 18.8824 44.4112 18.7487 44.3608C17.2787 43.8085 15.9795 42.9842 14.8133 41.9388C12.9198 40.2406 11.5548 38.1822 10.6179 35.8267C9.84425 33.894 9.45147 31.83 9.46111 29.7483C9.46846 27.9342 9.78276 26.1741 10.5087 24.5021C11.2545 22.7847 12.3353 21.3206 13.8774 20.2367C15.8682 18.8367 18.0823 18.3789 20.4763 18.753C22.1724 19.0183 23.6963 19.698 25.1065 20.6633C26.2839 21.4711 27.2992 22.4483 28.1886 23.5592C29.0202 24.5974 29.7167 25.7369 30.2616 26.9504C30.3316 27.1044 30.4016 27.1254 30.5542 27.075C31.1972 26.8674 31.8391 26.6529 32.4911 26.4782C33.7597 26.138 35.0634 25.9461 36.3761 25.9063C36.6089 25.899 36.842 25.8811 37.0761 25.8832C37.2123 25.8832 37.2658 25.8325 37.3012 25.7019C37.4902 25.0054 37.6697 24.3051 37.8909 23.618C38.1954 22.673 38.6312 21.7823 39.1296 20.923C40.0455 19.3459 41.197 17.9659 42.6047 16.8039C44.0247 15.6321 45.6049 14.7532 47.3878 14.2709C49.6086 13.6703 51.808 13.7221 53.9573 14.5919C55.5068 15.2187 56.7951 16.2043 57.8423 17.507C58.6694 18.5368 59.3037 19.7074 59.7148 20.9626C60.1789 22.3643 60.3819 23.8074 60.377 25.2819ZM43.2354 43.742C43.2354 44.5515 43.3516 45.2099 43.5795 45.8458C43.7121 46.2161 43.9351 46.5238 44.3425 46.6225C45.0827 46.8024 45.6924 46.206 45.5486 45.4468C45.5136 45.2585 45.4436 45.0769 45.397 44.8907C45.2063 44.1322 45.1769 43.3773 45.5003 42.6458C45.8471 41.8604 46.5258 41.5559 47.2853 42.034C47.7662 42.3367 48.099 42.7721 48.3087 43.2852C48.4622 43.6746 48.5793 44.0773 48.6587 44.4882C48.8137 45.248 49.5715 45.6358 50.1913 45.2414C50.5795 44.9943 50.7163 44.6114 50.6442 44.1805C50.5679 43.7231 50.4671 43.2625 50.3093 42.8278C49.9054 41.7169 49.2295 40.8132 48.1834 40.2154C46.6434 39.3355 44.7908 39.8356 43.8927 41.3683C43.4739 42.0901 43.2476 42.9075 43.2354 43.742ZM33.5698 47.1744C33.6171 47.5244 33.6279 47.8856 33.721 48.2244C33.8285 48.6154 34.133 48.8425 34.5383 48.8894C34.9436 48.9363 35.2617 48.7652 35.4833 48.4208C35.645 48.1709 35.652 47.8926 35.6366 47.6109C35.6044 47.0131 35.645 46.4209 35.8018 45.8423C35.9106 45.4402 36.0646 45.0587 36.3366 44.7342C36.6302 44.3842 37.0037 44.317 37.354 44.5876C37.5661 44.7498 37.7551 44.9402 37.9158 45.1535C38.4282 45.8493 38.6858 46.648 38.8125 47.4961C38.8383 47.7039 38.8878 47.9081 38.9598 48.1047C39.0202 48.2589 39.1191 48.395 39.2472 48.4999C39.3752 48.6049 39.5281 48.6752 39.6911 48.7041C39.8542 48.7329 40.0219 48.7194 40.1782 48.6649C40.3345 48.6103 40.4742 48.5165 40.5838 48.3924C40.8498 48.1005 40.8845 47.7484 40.8334 47.3774C40.7074 46.458 40.4613 45.5742 40.0364 44.7465C39.6308 43.9565 39.1051 43.2656 38.3246 42.8092C37.6116 42.3924 36.857 42.2601 36.059 42.5467C35.2005 42.8551 34.6461 43.4865 34.2492 44.2761C33.7903 45.1843 33.6307 46.1629 33.5698 47.1744ZM52.3228 48.9517C52.312 49.4526 52.676 49.762 53.1677 49.6556C53.3305 49.6206 53.503 49.5726 53.6392 49.4823C53.929 49.2898 54.203 49.0725 54.4736 48.8523C54.7851 48.6 55.0784 48.3256 55.3923 48.0764C56.0062 47.5892 55.8956 46.6764 55.1729 46.3631C54.735 46.1741 54.3329 46.2914 53.9769 46.5686C53.4719 46.9609 53.054 47.4373 52.6991 47.9686C52.4992 48.2703 52.3326 48.5807 52.3228 48.9517Z" fill="#ECF6FF"/>
<path d="M43.2354 43.742C43.2475 42.9075 43.4737 42.0902 43.8924 41.3683C44.7905 39.8356 46.6427 39.3355 48.183 40.2154C49.2292 40.8132 49.905 41.7169 50.3089 42.8278C50.4668 43.2625 50.5676 43.7231 50.6439 44.1805C50.7139 44.61 50.5791 44.9943 50.191 45.2414C49.5711 45.6358 48.8134 45.248 48.6583 44.4882C48.579 44.0773 48.4618 43.6746 48.3083 43.2852C48.0983 42.7721 47.7658 42.3367 47.2849 42.034C46.5247 41.5559 45.8461 41.859 45.4999 42.6458C45.1765 43.3773 45.2059 44.1322 45.3967 44.8907C45.4439 45.0769 45.5125 45.2585 45.5482 45.4468C45.6921 46.206 45.0824 46.8024 44.3421 46.6225C43.9347 46.5238 43.7121 46.2161 43.5791 45.8458C43.3516 45.2099 43.2368 44.5515 43.2354 43.742Z" fill="#313131"/>
<path d="M33.5698 47.1744C33.6325 46.1629 33.7921 45.1843 34.2495 44.275C34.6464 43.4854 35.2008 42.854 36.0594 42.5457C36.8574 42.259 37.612 42.3913 38.3249 42.8082C39.1054 43.2632 39.6311 43.9555 40.0368 44.7454C40.4617 45.5732 40.7077 46.4569 40.8337 47.3764C40.8848 47.7484 40.8502 48.1005 40.5842 48.3914C40.4746 48.5155 40.335 48.6095 40.1787 48.6642C40.0224 48.7189 39.8547 48.7325 39.6916 48.7037C39.5285 48.6749 39.3756 48.6047 39.2474 48.4998C39.1193 48.395 39.0203 48.2589 38.9598 48.1047C38.8882 47.9079 38.8393 47.7036 38.8139 47.4957C38.6879 46.6477 38.4289 45.8507 37.9172 45.1532C37.7565 44.9399 37.5675 44.7495 37.3554 44.5872C37.0054 44.3167 36.6316 44.3846 36.338 44.7339C36.066 45.0583 35.912 45.4398 35.8032 45.842C35.6464 46.4216 35.6058 47.0127 35.638 47.6105C35.6534 47.8923 35.6464 48.1705 35.4847 48.4204C35.2614 48.7648 34.946 48.937 34.5397 48.8891C34.1333 48.8411 33.8299 48.6147 33.7224 48.2241C33.6262 47.8856 33.6153 47.5251 33.5698 47.1744Z" fill="#313131"/>
</svg>
