<svg width="70" height="70" viewBox="0 0 70 70" fill="none" xmlns="http://www.w3.org/2000/svg">
<circle cx="35" cy="35" r="35" fill="#307BF6"/>
<path d="M30.7998 27.8991C30.6752 27.6191 30.5593 27.3549 30.4389 27.0913C30.0119 26.1572 29.6129 25.2132 29.3756 24.2087C29.0533 22.8437 28.9882 21.465 29.1201 20.0734C29.1929 19.3034 29.3074 18.5436 29.6035 17.8251C29.6873 17.6139 29.8029 17.4168 29.9461 17.2405C30.3903 16.7099 31.0794 16.6742 31.5516 17.18C31.7944 17.4467 31.9983 17.7463 32.1574 18.0701C32.8357 19.4242 33.3313 20.8497 33.7499 22.3029C34.1881 23.824 34.4653 25.3787 34.7072 26.9408C34.7814 27.4185 34.781 27.4213 35.264 27.4308C35.404 27.4329 35.544 27.4077 35.684 27.4087C35.8342 27.4087 35.894 27.3478 35.9182 27.1987C36.0659 26.3076 36.2066 25.4137 36.3826 24.5289C36.8324 22.2665 37.5212 20.0804 38.5404 18.0063C38.6761 17.7291 38.8487 17.4715 39.0535 17.2405C39.5949 16.6354 40.3793 16.7071 40.8322 17.3805C41.074 17.74 41.1993 18.147 41.2991 18.5618C41.5917 19.7798 41.6463 21.016 41.5791 22.2627C41.4877 23.9826 40.947 25.5737 40.2162 27.113C40.0951 27.3685 39.9855 27.6296 39.8704 27.8883L39.9015 27.9358C39.9789 27.9183 40.0646 27.9173 40.1318 27.8812C41.5318 27.1357 42.963 26.455 44.419 25.8253C44.8341 25.6412 45.2892 25.5651 45.7416 25.6041C48.6526 25.8334 51.5639 26.07 54.4783 26.2467C57.2066 26.4123 59.9383 26.5054 62.6683 26.6345C62.825 26.6408 62.9798 26.6707 63.1275 26.7231C63.305 26.7886 63.3407 26.939 63.2231 27.0878C63.146 27.1823 63.0553 27.2649 62.9539 27.3328C60.7636 28.8402 58.9454 30.7211 57.3914 32.8673C55.9669 34.835 54.8101 36.9546 53.807 39.1624C52.7346 41.5221 51.847 43.9518 51.0452 46.4141C50.4901 48.1214 49.9602 49.8374 49.4254 51.5507C49.3158 51.9007 49.2276 52.2573 49.1247 52.6094C49.0155 52.9815 48.7877 53.1418 48.4055 53.0802C48.2105 53.0482 48.0222 52.984 47.8483 52.8901C45.6652 51.7071 43.4852 50.5189 41.3082 49.3254C41.2575 49.293 41.199 49.2748 41.1389 49.2728C41.0788 49.2709 41.0193 49.2852 40.9666 49.3142C39.2603 50.1192 37.4711 50.3876 35.599 50.1514C35.3207 50.1164 35.0302 50.1559 34.7474 50.1836C32.4987 50.4034 30.4305 49.885 28.5339 48.667C28.4173 48.5921 28.3323 48.597 28.2168 48.6635C26.0155 49.9214 23.813 51.1769 21.6091 52.4299C21.2647 52.6259 20.9196 52.8215 20.5675 53.0032C20.4233 53.0785 20.2685 53.1316 20.1083 53.1607C19.7898 53.2153 19.5868 53.0704 19.5284 52.7522C19.436 52.2479 19.3621 51.7404 19.2722 51.2357C18.8315 48.7626 18.4245 46.2825 17.9373 43.8185C17.2842 40.5145 16.3119 37.3057 14.8611 34.2544C13.4442 31.2689 11.5982 28.5066 9.38187 26.0553C8.66787 25.2643 7.90032 24.5216 7.16217 23.7519C7.01018 23.5917 6.87071 23.4201 6.74497 23.2385C6.68649 23.1445 6.64823 23.0394 6.63263 22.9298C6.59763 22.7467 6.68442 22.6197 6.86607 22.5798C6.98017 22.5567 7.09662 22.5475 7.21293 22.5521C9.04833 22.6032 10.8851 22.6291 12.7188 22.7177C14.9238 22.8244 17.1288 22.9774 19.3338 23.1258C20.5259 23.2063 21.7138 23.3389 22.9073 23.4086C23.5555 23.4464 24.1088 23.6536 24.6314 24.033C26.465 25.3658 28.3134 26.6787 30.154 28.002C30.2492 28.0703 30.3325 28.0982 30.4421 28.0468C30.5516 27.9953 30.6668 27.9533 30.7998 27.8991ZM34.7198 34.1042C34.6718 33.4042 34.5346 32.7294 34.1997 32.1068C33.941 31.6262 33.5931 31.2318 33.0576 31.0568C32.3538 30.8275 31.749 31.0494 31.2184 31.5177C30.6629 32.0077 30.3115 32.6377 30.0522 33.3192C29.9322 33.6216 29.8473 33.9368 29.7991 34.2586C29.7564 34.5736 29.9699 34.8473 30.2541 34.9533C30.3919 35.0049 30.5424 35.0117 30.6842 34.9727C30.826 34.9336 30.9518 34.8508 31.0437 34.736C31.1267 34.6355 31.1837 34.5081 31.2324 34.386C31.3489 34.1004 31.4399 33.8039 31.568 33.5239C31.7357 33.1568 31.9432 32.8113 32.274 32.5614C32.4857 32.4015 32.6362 32.4067 32.7776 32.6248C32.9136 32.8271 33.0182 33.0488 33.0877 33.2824C33.1766 33.6062 33.2186 33.9439 33.2666 34.2778C33.3303 34.7237 33.6407 35.0198 34.0411 34.9992C34.4674 34.9754 34.7446 34.6114 34.7212 34.1042H34.7198ZM35.9423 34.1221C35.9423 34.1805 35.9374 34.239 35.9423 34.2971C35.9815 34.6929 36.2598 34.9792 36.6203 34.9971C36.9864 35.0156 37.2919 34.7685 37.3724 34.3776C37.4029 34.2299 37.3966 34.0734 37.4351 33.9282C37.5355 33.5474 37.6153 33.1547 37.7711 32.7959C37.9555 32.3714 38.1911 32.3507 38.5215 32.6717C38.8015 32.9436 38.995 33.2772 39.1452 33.6331C39.2715 33.9334 39.3639 34.2481 39.4952 34.5463C39.7143 35.0461 40.3387 35.1493 40.6915 34.7528C40.8885 34.5312 40.9102 34.2652 40.8367 33.9961C40.7654 33.7379 40.6786 33.4841 40.577 33.2362C40.3019 32.5604 39.9411 31.9395 39.3758 31.4586C38.4616 30.6805 37.2916 30.8422 36.6241 31.8387C36.1628 32.5299 36.0029 33.3115 35.9437 34.1221H35.9423Z" fill="#313131"/>
<path d="M34.7212 34.1042C34.7446 34.6114 34.4674 34.9754 34.0411 34.9974C33.6407 35.0181 33.3303 34.722 33.2666 34.2761C33.2186 33.9422 33.1766 33.6044 33.0877 33.2807C33.0182 33.0471 32.9136 32.8253 32.7776 32.623C32.6376 32.405 32.4857 32.3997 32.274 32.5597C31.9432 32.8096 31.7357 33.1547 31.568 33.5222C31.4399 33.8022 31.3489 34.0986 31.2324 34.3842C31.1823 34.5071 31.1274 34.6345 31.0437 34.7342C30.9518 34.849 30.826 34.9319 30.6842 34.9709C30.5424 35.01 30.3919 35.0032 30.2541 34.9516C29.9699 34.8466 29.7564 34.5726 29.7991 34.2569C29.8478 33.9354 29.9332 33.6205 30.0536 33.3185C30.3129 32.6378 30.6643 32.007 31.2198 31.517C31.7504 31.0487 32.3552 30.8268 33.059 31.0561C33.5945 31.2311 33.9424 31.6255 34.2011 32.1061C34.536 32.7294 34.6732 33.4056 34.7212 34.1042Z" fill="#ECF6FF"/>
<path d="M35.9437 34.1221C36.0029 33.3115 36.1628 32.53 36.6259 31.8391C37.2933 30.8426 38.4634 30.6809 39.3776 31.4589C39.9428 31.9398 40.3037 32.5607 40.5788 33.2366C40.6804 33.4845 40.7671 33.7382 40.8385 33.9964C40.912 34.2656 40.8903 34.5316 40.6932 34.7531C40.3404 35.1497 39.716 35.0464 39.4969 34.5466C39.366 34.2485 39.2736 33.9338 39.1469 33.6335C38.9968 33.2776 38.8043 32.944 38.5232 32.672C38.1918 32.3511 37.9573 32.3718 37.7728 32.7963C37.6171 33.1551 37.5373 33.5477 37.4368 33.9285C37.3983 34.0738 37.4046 34.2303 37.3742 34.378C37.2937 34.7689 36.9892 35.016 36.622 34.9974C36.2615 34.9789 35.9833 34.6926 35.9441 34.2974C35.9388 34.239 35.9437 34.1805 35.9437 34.1221Z" fill="#ECF6FF"/>
</svg>
