<svg width="70" height="70" viewBox="0 0 70 70" fill="none" xmlns="http://www.w3.org/2000/svg">
<circle cx="35" cy="35" r="35" fill="#ECF6FF"/>
<path d="M34.9543 56.8716C31.2828 56.8667 27.6953 56.3333 24.2142 55.1465C21.7876 54.3191 19.5095 53.1984 17.4511 51.6566C15.7501 50.3823 14.2889 48.8832 13.2014 47.044C12.0429 45.084 11.4469 42.9752 11.5606 40.6869C11.646 38.9681 12.1385 37.3637 12.9606 35.8569C14.1156 33.738 15.7564 32.0542 17.6888 30.6391C19.3835 29.3984 21.2315 28.4404 23.1838 27.6785C23.4508 27.5735 23.4529 27.633 23.3514 27.3257C22.5114 24.7849 21.6738 22.2439 20.8384 19.7027C20.7908 19.5578 20.7425 19.5053 20.5731 19.5238C19.7171 19.6175 18.8581 19.3754 18.177 18.8486C17.4958 18.3217 17.0457 17.5511 16.9212 16.699C16.6836 15.0725 17.8263 13.5364 19.4951 13.1951C21.2826 12.829 23.034 14.0393 23.3931 15.6567C23.658 16.8488 23.3325 17.8715 22.439 18.7017C22.3046 18.8266 22.2881 18.925 22.3434 19.0916C23.2056 21.6858 24.0624 24.2817 24.9138 26.8794C24.9621 27.0271 25.0255 27.0345 25.1546 26.9942C26.5588 26.5617 27.9915 26.2276 29.4421 25.9943C30.7259 25.7843 32.0167 25.6261 33.317 25.5942C34.5108 25.5652 35.7072 25.555 36.9 25.6009C38.8666 25.6772 40.8091 25.9642 42.7271 26.4094C42.864 26.4412 42.9224 26.4164 42.9672 26.2795C43.7605 23.8592 44.5585 21.4401 45.3612 19.0223C45.3997 18.9061 45.3857 18.8326 45.2912 18.7496C43.4341 17.1277 44.055 14.2276 46.3857 13.3334C47.6457 12.85 49.487 13.27 50.3246 14.6564C51.2629 16.2097 50.7166 18.2222 49.1115 19.1094C48.4868 19.4615 47.766 19.6049 47.0542 19.5186C46.9408 19.5056 46.8991 19.5417 46.8666 19.6407C46.0903 21.9995 45.3119 24.3574 44.5314 26.7146C44.4859 26.8511 44.5387 26.8861 44.6525 26.919C45.7168 27.2273 46.7633 27.584 47.7766 28.0372C49.5444 28.8265 51.2311 29.7557 52.7651 30.945C54.7132 32.456 56.3246 34.2497 57.3792 36.502C58.1726 38.1967 58.5394 39.9799 58.4204 41.8517C58.2969 43.7953 57.67 45.5778 56.6473 47.226C55.4958 49.081 53.9733 50.586 52.2111 51.8544C50.242 53.2733 48.0835 54.3229 45.7942 55.1125C43.5258 55.8951 41.1952 56.3981 38.8106 56.6595C37.5302 56.8026 36.2427 56.8735 34.9543 56.8716ZM39.5596 42.4607C39.5754 42.3963 39.6069 42.3316 39.6044 42.2679C39.5757 41.4601 39.5582 40.6516 39.505 39.8455C39.4257 38.6843 39.2244 37.5346 38.9044 36.4155C38.6069 35.3634 38.2212 34.3474 37.5881 33.4437C37.4768 33.2848 37.3361 33.1465 37.2087 32.9985C37.2034 32.9911 37.1978 32.9838 37.1922 32.9768C37.1639 32.9285 37.1446 32.8718 37.1054 32.8343C36.9126 32.6572 36.726 32.471 36.516 32.3163C35.8958 31.8589 35.2 31.6807 34.4366 31.8214C33.8248 31.9345 33.324 32.2624 32.8932 32.6936C32.3528 33.2337 31.9377 33.8668 31.6248 34.5616C31.2032 35.5091 30.8937 36.5026 30.7025 37.5219C30.574 38.189 30.4837 38.8641 30.3941 39.5379C30.3591 39.7941 30.3756 40.0566 30.3686 40.3163C30.3686 40.3366 30.3658 40.3572 30.3647 40.3775C30.3483 40.4185 30.3199 40.4587 30.3178 40.5C30.3028 40.8021 30.279 41.1048 30.2828 41.4069C30.2944 42.0642 30.3011 42.7225 30.3483 43.3777C30.3977 44.0613 30.4631 44.7459 30.573 45.4214C30.775 46.6597 31.0889 47.8714 31.6104 49.018C32.0073 49.8909 32.5015 50.6952 33.2684 51.2979C34.2729 52.0878 35.4863 52.1302 36.5328 51.3812C37.1772 50.9199 37.6297 50.2962 38.0028 49.6088C38.6167 48.4762 38.9951 47.2585 39.2145 45.9975C39.3741 45.0833 39.4595 44.1558 39.5645 43.2325C39.5901 43.0102 39.5607 42.7817 39.5568 42.5563L39.5596 42.4607ZM28.9896 41.2305C28.9948 38.6405 28.8023 36.9398 28.2822 35.284C27.9672 34.2847 27.5021 33.3751 26.7251 32.6513C25.8651 31.8501 24.7301 31.7413 23.7291 32.3545C23.2023 32.6779 22.7932 33.121 22.447 33.625C21.7043 34.7072 21.257 35.9196 20.9382 37.1792C20.3155 39.6292 20.1654 42.1111 20.4531 44.6199C20.584 45.7581 20.8192 46.8746 21.2563 47.9393C21.5801 48.7282 21.9913 49.4611 22.6493 50.0284C23.4764 50.7414 24.5015 50.8548 25.4602 50.3354C25.9152 50.0904 26.2795 49.7404 26.5994 49.3428C27.2168 48.5745 27.6365 47.6978 27.9644 46.7762C28.6935 44.7042 28.9808 42.5594 28.9896 41.2305ZM49.7593 41.8276C49.7243 41.361 49.6802 40.4934 49.5843 39.632C49.3985 37.9846 49.0152 36.3847 48.3222 34.8703C47.9558 34.0698 47.5011 33.3275 46.8414 32.7279C45.6794 31.6716 44.2612 31.7042 43.1664 32.8242C42.5171 33.4892 42.1048 34.2942 41.821 35.1692C41.3495 36.621 41.1332 38.1165 41.086 39.6383C41.0488 40.722 41.0941 41.807 41.2214 42.8839C41.4248 44.5523 41.7881 46.1795 42.4877 47.717C42.8647 48.5451 43.3277 49.3176 44.0249 49.9238C44.615 50.4376 45.2849 50.7403 46.0899 50.6395C46.7595 50.5555 47.2894 50.2108 47.7349 49.7246C48.3579 49.0446 48.7391 48.228 49.0254 47.3642C49.5738 45.6972 49.7355 43.9731 49.7576 41.8276H49.7593Z" fill="#307BF6"/>
<path d="M36.5058 44.9769C36.4967 45.568 36.4422 46.1529 36.2549 46.7178C36.1415 47.0594 35.9791 47.3726 35.7106 47.6218C35.2514 48.0478 34.5906 48.0663 34.1517 47.6218C33.9477 47.4073 33.7849 47.1571 33.6715 46.8837C33.2977 46.0034 33.2617 45.0731 33.3401 44.1348C33.3877 43.5678 33.493 43.0123 33.7986 42.5185C33.882 42.3782 33.9825 42.2489 34.0978 42.1335C34.5672 41.6806 35.2504 41.6904 35.7162 42.1461C35.9647 42.3886 36.1138 42.6903 36.223 43.0134C36.439 43.65 36.5041 44.3091 36.5058 44.9769Z" fill="#313131"/>
<path d="M22.9279 44.8467C22.9531 43.8432 23.0637 42.9493 23.4529 42.1167C23.5642 41.8766 23.6979 41.6344 23.8747 41.4394C24.407 40.8472 25.2512 40.9144 25.6677 41.5955C25.8346 41.8752 25.9468 42.184 25.9985 42.5055C26.1943 43.7022 26.0725 44.9294 25.6453 46.0643C25.5421 46.3427 25.3949 46.6026 25.2092 46.8343C24.6951 47.4685 23.8582 47.4293 23.3759 46.7706C23.0959 46.3891 23.013 45.9432 22.9675 45.4879C22.9419 45.2418 22.9367 44.9972 22.9279 44.8467Z" fill="#313131"/>
<path d="M47.3037 45.4809C47.2337 45.9103 47.1966 46.3478 47.0885 46.7671C46.9618 47.2571 46.6646 47.6327 46.1291 47.7202C45.5936 47.8077 45.1869 47.5539 44.909 47.1325C44.6984 46.8118 44.5317 46.4643 44.4134 46.0993C44.1019 45.1379 43.9455 44.1491 44.0928 43.1369C44.1387 42.8219 44.2027 42.4996 44.3326 42.214C44.6885 41.4303 45.5824 41.2872 46.1967 41.8909C46.4732 42.1629 46.6426 42.5006 46.7791 42.8562C47.1021 43.6983 47.2393 44.5751 47.2589 45.4728L47.3037 45.4809Z" fill="#313131"/>
</svg>
