<svg width="70" height="70" viewBox="0 0 70 70" fill="none" xmlns="http://www.w3.org/2000/svg">
<circle cx="35" cy="35" r="35" fill="#307BF6"/>
<path d="M57.875 27.6852C59.6133 35.9133 63.3292 49.2358 34.4504 49.2358C9.4273 49.2358 10.9718 34.4081 10.9718 26.1626C10.9718 17.9172 21.8722 12.1738 32.6877 12.1738C43.5031 12.1738 54.9666 13.9189 57.875 27.6852Z" fill="#ECF6FF"/>
<path d="M28.0855 51.1748C28.0855 54.4944 25.928 57.1855 23.7863 57.1855C21.6446 57.1855 19.9085 54.4944 19.9085 51.1748C19.9085 47.8552 21.6446 36.439 23.7863 36.439C25.928 36.439 28.0855 47.8552 28.0855 51.1748Z" fill="#ECF6FF"/>
<path d="M36.5809 52.9199C36.2134 56.2191 34.2653 58.9306 32.1237 58.9306C29.982 58.9306 28.2458 56.2395 28.2458 52.9199C28.2458 49.6003 24.553 35.4697 26.6947 35.4697C28.8364 35.4697 37.5527 44.1948 36.5809 52.9199Z" fill="#ECF6FF"/>
<path d="M45.5022 53.3076C45.5022 56.6272 43.1844 59.3183 41.0427 59.3183C38.901 59.3183 36.5832 56.6272 36.5832 53.3076C36.5832 45.1643 33.4721 35.8573 35.6137 35.8573C37.7554 35.8573 45.5022 38.5718 45.5022 53.3076Z" fill="#ECF6FF"/>
<path d="M29.802 33.7251C30.7419 38.3421 28.5012 42.7355 25.1435 43.4191C21.7857 44.1027 17.0992 40.9372 16.1592 36.3202C15.2192 31.7032 17.5215 26.0707 20.8793 25.3871C24.2371 24.7035 28.862 29.1082 29.802 33.7251Z" fill="#313131"/>
<path d="M49.5738 34.8878C50.7128 40.4821 46.1454 44.2866 42.7876 44.9702C39.4298 45.6538 35.325 41.9066 34.3851 37.2897C33.4451 32.6727 34.8381 26.7444 40.0731 26.3566C46.4716 25.3871 48.6339 30.2709 49.5738 34.8878Z" fill="#313131"/>
<path d="M29.0121 49.4297C26.6837 48.7965 29.2155 44.0004 31.1533 43.8067C33.8533 43.5368 35.42 50.2051 34.2481 50.2051C31.6112 50.5153 33.0847 47.4908 31.3397 47.4908C30.1763 47.4908 31.151 50.0114 29.0121 49.4297Z" fill="#313131"/>
</svg>
