<svg width="70" height="70" viewBox="0 0 70 70" fill="none" xmlns="http://www.w3.org/2000/svg">
<circle cx="35" cy="35" r="35" fill="#ECF6FF"/>
<path d="M35.1097 54.7542C34.9606 54.968 34.8234 55.1686 34.6824 55.3667C33.4703 57.0694 32.0675 58.5867 30.3399 59.7805C29.3739 60.4487 28.3411 60.9807 27.1899 61.2561C26.2253 61.4875 25.2604 61.5186 24.3115 61.1861C23.111 60.7661 22.3295 59.9107 21.8668 58.748C21.4352 57.663 21.3568 56.5287 21.4251 55.3779C21.4821 54.4087 21.6634 53.4595 21.9186 52.5236C21.9304 52.459 21.9387 52.3938 21.9434 52.3283C21.7089 52.5114 21.5154 52.6657 21.3183 52.8155C19.7972 53.9705 18.1638 54.9124 16.3014 55.4055C15.1247 55.7167 13.934 55.8283 12.7426 55.5056C10.9174 55.0114 9.84183 53.8011 9.48238 51.9615C9.19118 50.4719 9.44984 49.0254 9.91429 47.6075C10.5702 45.6059 11.6254 43.8216 12.9162 42.1696C14.269 40.4385 15.8618 38.9615 17.6696 37.7151C17.8663 37.5797 18.0679 37.4502 18.2754 37.3322C18.3965 37.2622 18.4154 37.1922 18.3706 37.0641C17.984 35.9639 17.6852 34.8348 17.4771 33.6873C17.2983 32.7009 17.1829 31.704 17.1316 30.7029C17.0041 28.3183 17.2433 25.9284 17.8407 23.6164C18.5838 20.7307 19.8284 18.0818 21.6393 15.7106C23.3102 13.5227 25.3328 11.7364 27.7856 10.4669C28.4776 10.1089 29.2063 9.8215 29.9206 9.51175C30.6458 9.19675 31.4064 8.99585 32.183 8.86145C33.2806 8.67175 34.3859 8.54644 35.5024 8.56779C37.1479 8.59474 38.7789 8.88093 40.3352 9.41584C42.4923 10.1589 44.405 11.3114 46.0987 12.8347C47.8081 14.3715 49.1738 16.1733 50.2458 18.2022C51.496 20.5682 52.2573 23.0883 52.6006 25.7371C52.7583 26.9516 52.8168 28.1769 52.7756 29.4008C52.6965 31.764 52.2856 34.0685 51.5125 36.3043C51.4512 36.4817 51.4715 36.5664 51.6416 36.6602C52.6622 37.2237 53.5778 37.9367 54.4528 38.6997C55.8676 39.9293 57.1047 41.3494 58.1289 42.9193C59.1383 44.4687 59.9349 46.1151 60.3549 47.9267C60.6275 49.1024 60.7276 50.2868 60.4571 51.4775C60.0143 53.4291 58.6721 54.7083 56.6988 55.0475C55.5497 55.2459 54.422 55.1045 53.3132 54.7766C51.5832 54.2645 50.0582 53.3678 48.6372 52.2762C48.5081 52.1771 48.3835 52.0714 48.255 51.971C48.2172 51.9412 48.1738 51.9181 48.0909 51.866C48.1154 51.993 48.1259 52.0711 48.1462 52.146C48.4444 53.3209 48.6215 54.512 48.5816 55.7265C48.5441 56.8699 48.3366 57.977 47.7311 58.9713C47.0101 60.155 45.9517 60.819 44.5727 60.9663C43.4565 61.0853 42.4065 60.8263 41.3926 60.3874C40.1644 59.8572 39.0948 59.0868 38.1061 58.1947C37.0232 57.2171 36.0936 56.1076 35.2637 54.9113C35.2408 54.8776 35.2159 54.8452 35.1892 54.8144C35.1641 54.7925 35.1375 54.7724 35.1097 54.7542ZM25.736 35.4615C25.7742 35.6858 25.8029 36.0673 25.9068 36.4275C26.1606 37.307 26.6831 37.964 27.5921 38.2363C28.3509 38.4634 29.0747 38.3168 29.7495 37.9402C30.9745 37.2573 31.7242 36.1902 32.1459 34.8787C32.455 33.918 32.5131 32.946 32.1484 31.9818C31.6769 30.7351 30.5139 30.1219 29.2161 30.4176C28.4741 30.5867 27.8665 30.9776 27.3481 31.519C26.3352 32.5792 25.7952 33.8396 25.736 35.4615ZM37.3637 33.3405C37.3935 34.493 37.8145 35.62 38.6006 36.6088C39.1564 37.3088 39.8351 37.8415 40.708 38.097C41.8777 38.4389 42.9907 37.9944 43.5923 36.9357C43.8779 36.4331 43.9987 35.8822 44.0057 35.3096C44.0221 33.9862 43.5804 32.8179 42.7632 31.7896C42.1682 31.0416 41.4475 30.4778 40.4847 30.2713C39.3297 30.0235 38.2559 30.5279 37.727 31.5845C37.4673 32.1008 37.3683 32.652 37.3627 33.3405H37.3637Z" fill="#307BF6"/>
<path d="M30.8461 34.6656C30.7834 34.9477 30.7491 35.2403 30.6507 35.5094C30.5233 35.8594 30.1653 36.0488 29.8107 36.0075C29.4635 35.9669 29.1682 35.7117 29.1192 35.3645C29.095 35.1916 29.1265 35.0065 29.1576 34.8315C29.2063 34.5571 29.1709 34.3065 28.9875 34.093C28.8475 33.9292 28.6974 33.9477 28.6375 34.1518C28.592 34.3019 28.6026 34.4703 28.598 34.6306C28.598 34.6985 28.6288 34.7664 28.6411 34.8353C28.7223 35.2837 28.4797 35.6897 28.065 35.8027C27.8625 35.8583 27.6464 35.8331 27.4622 35.7324C27.278 35.6317 27.1401 35.4634 27.0776 35.263C26.8725 34.6481 26.8959 34.0349 27.1668 33.4406C27.3418 33.0587 27.6057 32.7546 27.9764 32.5512C28.7191 32.1435 29.6326 32.3339 30.2185 33.015C30.5986 33.4567 30.8086 34.0415 30.8461 34.6656Z" fill="#313131"/>
<path d="M38.9394 34.7818C38.9702 33.9068 39.2051 33.2705 39.7668 32.7906C40.6625 32.0259 41.9242 32.2516 42.5038 33.2757C42.8538 33.8928 42.8965 34.5494 42.6935 35.22C42.5535 35.6813 42.116 35.9221 41.6848 35.8006C41.2536 35.6792 41.0366 35.2683 41.1189 34.794C41.1495 34.5954 41.1542 34.3936 41.1329 34.1938C41.1262 34.1206 41.0342 34.0121 40.967 34.0006C40.8998 33.989 40.7951 34.0618 40.743 34.1269C40.5799 34.3292 40.5435 34.5672 40.597 34.8203C40.6236 34.9215 40.6427 35.0246 40.6544 35.1286C40.681 35.5469 40.4269 35.8986 40.0405 35.9903C39.6541 36.082 39.2443 35.8913 39.1029 35.5035C39.001 35.2291 38.9713 34.9298 38.9394 34.7818Z" fill="#313131"/>
</svg>
