<svg xmlns="http://www.w3.org/2000/svg" width="15" height="14" viewBox="0 0 15 14" fill="none">
  <path fill-rule="evenodd" clip-rule="evenodd" d="M14.22 7.15911C14.22 6.66275 14.1755 6.18548 14.0927 5.72729H7.5V8.43502H11.2673C11.105 9.31002 10.6118 10.0514 9.87045 10.5477V12.3041H12.1327C13.4564 11.0855 14.22 9.29093 14.22 7.15911Z" fill="#4285F4"/>
  <path fill-rule="evenodd" clip-rule="evenodd" d="M7.49996 14C9.38996 14 10.9745 13.3732 12.1327 12.3041L9.87042 10.5477C9.2436 10.9677 8.44178 11.2159 7.49996 11.2159C5.67678 11.2159 4.1336 9.98456 3.58314 8.33002H1.24451V10.1437C2.39632 12.4314 4.7636 14 7.49996 14Z" fill="#34A853"/>
  <path fill-rule="evenodd" clip-rule="evenodd" d="M3.58318 8.33002C3.44318 7.91002 3.36364 7.46138 3.36364 7.00002C3.36364 6.53866 3.44318 6.09002 3.58318 5.67002V3.85638H1.24455C0.770454 4.80138 0.5 5.87048 0.5 7.00002C0.5 8.12957 0.770454 9.19866 1.24455 10.1437L3.58318 8.33002Z" fill="#FBBC05"/>
  <path fill-rule="evenodd" clip-rule="evenodd" d="M7.49996 2.78409C8.52769 2.78409 9.45042 3.13727 10.1759 3.83091L12.1836 1.82318C10.9713 0.693636 9.38678 0 7.49996 0C4.7636 0 2.39632 1.56864 1.24451 3.85636L3.58314 5.67C4.1336 4.01545 5.67678 2.78409 7.49996 2.78409Z" fill="#EA4335"/>
</svg>