<svg width="800" height="284" viewBox="0 0 800 284" fill="none" xmlns="http://www.w3.org/2000/svg">
<g clip-path="url(#clip0_4121_237)">
<g clip-path="url(#clip1_4121_237)">
<rect x="-4" y="-8" width="809" height="336" fill="black"/>
<path d="M-171 159.667V730.333H399.667H970.333V159.667V-411H399.667H-171V159.667ZM134.733 5.79999C154.467 10.8667 171.4 24.4667 179.533 41.6667C185 53.2667 186.333 60.6 186.333 79.8V95.6667L177.4 95.8C172.333 95.9333 166.2 96.0667 163.667 96.2L159 96.3333L158.6 81.6667C158.2 63.8 155.8 56.2 147.933 47.5333C135.533 33.8 117 29.9333 100.067 37.5333C91.2667 41.6667 87.6667 44.6 82.2 52.6C76.4667 60.8667 74.3333 71 74.3333 90.6V107.667H135.4C173.8 107.667 198.2 108.2 201.4 109.133C207.267 110.733 214.333 116.6 218.6 123.4C221.533 128.067 221.667 129.667 221.667 150.333V172.333L187 172.733L152.333 173L149.933 166.333C143.933 149.533 127.533 140.733 111 145.533C96.4667 149.8 86.6 163.667 88.0667 178.067C89 187 94.2 195.933 101 200.467C103.8 202.333 105.933 204.6 105.667 205.4C104.733 208.2 94.3333 253.267 94.3333 254.467C94.3333 255.133 98.2 255.667 103 255.667H111.667V267.667V279.8L76.7334 279.4C42.4667 279 41.5333 278.867 35 275.667C26.0667 271.267 17.5333 262.467 13.2667 253.267L9.66667 245.667V186.067V126.6L13.6667 120.733C18.6 113.8 27.9333 108.733 37.6667 107.933L44.7333 107.4L45.4 84.4667C45.8 68.2 46.6 59.5333 48.2 54.3333C53.4 37.9333 67.4 19.8 80.7334 12.6C95.5334 4.59998 118.733 1.66669 134.733 5.79999ZM339.133 55C345.533 57.6667 354.067 66.0667 358.067 73.5333C361.267 79.6667 361.667 81.6667 361.667 94.3333C361.667 107 361.267 109 358.067 115.133C349.4 131.533 341.8 136.333 325 136.333C313.133 136.2 308.067 134.6 303.133 129.133C298.733 124.333 297.933 125.667 298.867 136.467C299.4 142.067 299.4 150.2 298.867 154.467L297.933 162.333H288.733H279.533L279.933 119.933C280.067 96.7333 280.467 72.4667 280.733 65.9333L281.133 54.3333H290.467H299.667V58.3333V62.3333L305.4 58.3333C314.467 51.9333 328.2 50.6 339.133 55ZM423.667 61.6667V71.6667H416.6C407.933 71.6667 401.4 75 398.067 81.1334C395.933 85 395.667 89 395.667 109.933V134.333H386.333H377V94.3333V54.3333H385.667H394.333V59.6667V65L398.733 60.2C403.533 55 411 51.8 418.733 51.6667H423.667V61.6667ZM484.6 53.4C495.267 56.2 504.2 63.5333 509.267 74.0667C513.133 81.9333 513.667 84.2 513.667 94.3333C513.667 103.8 513.133 106.867 510.2 113.133C505.933 122.2 498.6 129.667 490.467 133.533C485.533 135.8 481.8 136.333 471.667 136.333C460.2 136.333 458.333 135.933 451.8 132.333C443.8 127.933 437.133 120.733 433.133 112.2C431 107.667 430.333 103.667 430.333 94.7333C430.333 84.6 430.867 81.9333 434.2 75C437.533 67.8 442.067 62.6 449.4 57C455.8 52.2 472.867 50.4667 484.6 53.4ZM583.667 55.2667C587 56.7333 591.667 59.9333 594.2 62.3333C598.733 66.8667 604.2 77.6667 603 79.6667C602.733 80.2 599.8 81.4 596.467 82.2C593.267 83 589.8 83.9333 588.6 84.3333C587.267 85 585.667 83.4 583.533 79.6667C577.933 69.8 567.133 66.6 556.2 71.5333C548.333 75.1334 544.867 80.7333 544.067 90.8667C543.133 101.667 545.133 107.667 551.667 113.533C561.133 122.067 572.867 121.667 581.8 112.467L587.267 106.733L594.867 109.133C599.133 110.333 602.867 111.8 603.267 112.067C604.333 113.133 599.667 121.4 595.133 126.067C587.267 134.467 582.067 136.333 566.333 136.333C550.333 136.2 544.733 134.2 535.8 124.867C527.133 115.933 524.467 108.867 524.467 95C524.733 73.6667 534.2 59.4 552.333 53.4C559.8 51 576.2 51.9333 583.667 55.2667ZM668.467 53.6667C676.733 56.0667 685.933 63.8 689.133 70.8667C692.867 79.1334 692.467 80.3333 685.4 82.0667C681.8 82.8667 677.933 83.9333 676.733 84.3333C675.133 85 674.333 84.6 674.333 83.6667C674.333 80.4667 667.4 72.7333 662.867 70.8667C660.467 69.8 656.467 69 654.067 69C648.733 69 640.2 73.6667 636.6 78.4667C630.867 86.3333 631.133 102.067 637.267 110.733C642.733 118.333 655.133 121.667 664.2 117.8C668.2 116.2 673.533 110.867 674.6 107.533C675.133 106.067 693 111.133 693 112.733C693 115.533 684.467 126.733 679.667 130.2C664.333 141.267 636.067 138.2 623.533 124.067C611.667 110.467 609.533 87 618.733 71.5333C628.6 55.1334 648.867 47.8 668.467 53.6667ZM591.667 190.6L591.8 223L607.4 206.6L623 190.333H633.4C639 190.333 643.667 190.867 643.667 191.4C643.667 191.933 640.067 195.933 635.533 200.333C631.133 204.733 624.467 211.667 620.867 215.8L614.333 223.267L630.733 245.133C639.8 257.133 647.533 267.8 648.2 268.6C648.867 269.933 646.467 270.333 637.4 270.333L625.667 270.2L619.667 261.933C616.333 257.4 611.4 250.333 608.6 246.333C601.133 235.8 601.533 235.933 596.333 241L591.667 245.533V257.933V270.333H582.333H573V214.333V158.333H582.333H591.667V190.6ZM765 176.333V189H776.333H787.667V197.667V206.333H776.333H765V227.533C765 254.2 765.267 254.867 779.533 254.867H789.133L788.733 263L788.333 271L776.733 271.4C767.267 271.667 764.067 271.267 760.067 269.133C748.2 263.133 746.333 257.8 746.333 229V206.333H739H731.667V197.667V189H739H746.333V176.333V163.667H755.667H765V176.333ZM222.067 216.733L221.667 245.667L217.267 254.6C212.067 265.267 203.667 273.133 193.533 277C187 279.4 183.133 279.667 157 279.667H127.667V267.667V255.667H136.333C141.133 255.667 145 255.133 145 254.467C145 253.933 142.6 243.133 139.667 230.467C136.733 217.933 134.333 206.6 134.333 205.267C134.333 203.933 136.2 201.8 138.333 200.467C140.6 199.133 143.933 195.8 145.933 192.867L149.4 187.667H185.933H222.6L222.067 216.733ZM333.933 190.467C337 191.933 341.133 195 343 197.267L346.333 201.267L352.467 195.8C360.067 189.133 365.667 187.267 376.333 187.933C387.133 188.6 396.2 193.933 401 202.333C404.2 208.2 404.333 209.133 404.733 239.267L405.267 270.333H395.933H386.467L386.067 243.133C385.667 217.933 385.4 215.533 382.867 212.067C376.867 204.067 367.667 203.133 359.533 209.933C352.467 215.933 351.667 219.667 351.667 246.333V270.333H342.467H333.133L332.733 243.133C332.333 212.067 331.667 209.933 321.267 206.6C316.2 204.867 315.133 205 309.8 207.667C300.467 212.067 299.667 215 299.667 244.867V270.333H289.667H279.667V230.333V190.333H287.667H295.667V195.267V200.2L300.067 195.933C308.867 187.4 322.867 185.133 333.933 190.467ZM471.933 189.533C477.933 191.667 483.667 196.2 487.8 202.2C490.733 206.467 491 208.333 491.667 230.2C492.333 253.267 492.333 253.667 495.4 254.067C498.067 254.467 498.333 255.267 498.333 262.333C498.333 269.4 498.067 270.067 495 270.867C489 272.333 481 270.2 478.067 266.333L475.4 262.6L466.6 267.267C458.067 271.667 457.267 271.933 445.4 271.4C434.067 271 432.867 270.733 428.067 266.867C417.133 257.933 414.733 246.067 421.8 234.733C427.933 225 432.867 223.133 454.733 222.6C472.867 222.067 473 221.933 473 219C473 209.133 466.333 204.333 453.933 205.267C447.267 205.8 445.4 206.467 442.867 209.4C440.067 212.6 438.867 213 431 213C421.133 213 421 212.6 425.133 204.067C428.2 197.8 436.2 191.4 443.8 189.267C450.333 187.267 466.2 187.533 471.933 189.533ZM559.4 197.267L559 206.867L552.867 206.6C545.133 206.067 538.2 208.867 534.467 214.067C531.8 217.8 531.667 219.667 531.667 244.2V270.467L522.067 270.067L512.333 269.667L511.933 229.933L511.667 190.333H520.733H529.8L529.267 195.267L528.733 200.333L533.8 195.4C540.2 189.267 543.8 187.8 552.733 187.8L559.8 187.667L559.4 197.267ZM704.333 190.2C711.8 193.533 717.8 199 721.933 206.067C724.867 211.133 725.667 214.2 726.067 223.933L726.6 235.667H698.067C682.333 235.667 669.133 236.067 668.6 236.467C667 238.067 670.733 245.133 675.667 249.533C684.467 257.4 693.667 257.267 706.333 249.267L712.333 245.4L718.067 249.4C721.133 251.667 723.667 254.067 723.667 255C723.667 257.4 714.2 265.8 708.067 268.867C700.467 272.6 680.333 272.867 672.2 269.133C664.467 265.533 657.4 258.867 653.267 251.133C649.933 245 649.667 243 649.667 229.667C649.667 216.333 649.933 214.333 653.267 208.2C657.533 200.067 665.8 192.6 673.533 189.8C681.533 187 697.8 187.133 704.333 190.2Z" fill="white"/>
<path d="M312.6 70.8668C302.2 74.7334 297.933 81.9334 298.067 95.2668C298.2 117.267 323.667 128.067 337.267 111.933C342.067 106.2 344.067 99.2667 343.4 91.0001C342.067 75.5334 326.867 65.6668 312.6 70.8668Z" fill="white"/>
<path d="M463 71.1334C456.467 74.7334 451.8 79.8 450.333 84.8667C444.867 104.6 458.2 122.467 476.067 119.133C487.533 117 494.333 107.933 494.333 94.8667C494.333 85.2667 490.467 76.7334 484.333 73C478.2 69.2667 468.067 68.3334 463 71.1334Z" fill="white"/>
<path d="M445.8 237C440.333 238.733 437 242.2 437 246.6C437 254.733 451.667 258.333 463.267 253.133C469.4 250.333 471 248.067 472.333 240.6L473.267 235.667L461.533 235.8C455 235.8 447.933 236.467 445.8 237Z" fill="white"/>
<path d="M680.333 205.533C676.333 207.267 669 214.733 669 217C669 217.667 668.6 219 668.2 220.2C667.533 222.067 669.667 222.333 687.667 222.333H707.933L707.133 218.6C704.333 207.133 691.267 200.733 680.333 205.533Z" fill="white"/>
</g>
</g>
<defs>
<clipPath id="clip0_4121_237">
<rect width="800" height="284" fill="white"/>
</clipPath>
<clipPath id="clip1_4121_237">
<rect width="1142" height="1142" fill="white" transform="translate(-171 -411)"/>
</clipPath>
</defs>
</svg>
