<svg width="838" height="367" viewBox="0 0 838 367" fill="none" xmlns="http://www.w3.org/2000/svg">
<g clip-path="url(#clip0_4121_237)">
<g clip-path="url(#clip1_4121_237)">
<path d="M-152 183.167V753.833H418.667H989.333V183.167V-387.5H418.667H-152V183.167ZM153.733 29.3C173.467 34.3667 190.4 47.9667 198.533 65.1667C204 76.7667 205.333 84.1 205.333 103.3V119.167L196.4 119.3C191.333 119.433 185.2 119.567 182.667 119.7L178 119.833L177.6 105.167C177.2 87.3 174.8 79.7 166.933 71.0333C154.533 57.3 136 53.4333 119.067 61.0333C110.267 65.1667 106.667 68.1 101.2 76.1C95.4667 84.3667 93.3333 94.5 93.3333 114.1V131.167H154.4C192.8 131.167 217.2 131.7 220.4 132.633C226.267 134.233 233.333 140.1 237.6 146.9C240.533 151.567 240.667 153.167 240.667 173.833V195.833L206 196.233L171.333 196.5L168.933 189.833C162.933 173.033 146.533 164.233 130 169.033C115.467 173.3 105.6 187.167 107.067 201.567C108 210.5 113.2 219.433 120 223.967C122.8 225.833 124.933 228.1 124.667 228.9C123.733 231.7 113.333 276.767 113.333 277.967C113.333 278.633 117.2 279.167 122 279.167H130.667V291.167V303.3L95.7333 302.9C61.4667 302.5 60.5333 302.367 54 299.167C45.0667 294.767 36.5333 285.967 32.2667 276.767L28.6667 269.167V209.567V150.1L32.6667 144.233C37.6 137.3 46.9333 132.233 56.6667 131.433L63.7333 130.9L64.4 107.967C64.8 91.7 65.6 83.0333 67.2 77.8333C72.4 61.4333 86.4 43.3 99.7333 36.1C114.533 28.1 137.733 25.1667 153.733 29.3ZM358.133 78.5C364.533 81.1667 373.067 89.5667 377.067 97.0333C380.267 103.167 380.667 105.167 380.667 117.833C380.667 130.5 380.267 132.5 377.067 138.633C368.4 155.033 360.8 159.833 344 159.833C332.133 159.7 327.067 158.1 322.133 152.633C317.733 147.833 316.933 149.167 317.867 159.967C318.4 165.567 318.4 173.7 317.867 177.967L316.933 185.833H307.733H298.533L298.933 143.433C299.067 120.233 299.467 95.9667 299.733 89.4333L300.133 77.8333H309.467H318.667V81.8333V85.8333L324.4 81.8333C333.467 75.4333 347.2 74.1 358.133 78.5ZM442.667 85.1667V95.1667H435.6C426.933 95.1667 420.4 98.5 417.067 104.633C414.933 108.5 414.667 112.5 414.667 133.433V157.833H405.333H396V117.833V77.8333H404.667H413.333V83.1667V88.5L417.733 83.7C422.533 78.5 430 75.3 437.733 75.1667H442.667V85.1667ZM503.6 76.9C514.267 79.7 523.2 87.0333 528.267 97.5667C532.133 105.433 532.667 107.7 532.667 117.833C532.667 127.3 532.133 130.367 529.2 136.633C524.933 145.7 517.6 153.167 509.467 157.033C504.533 159.3 500.8 159.833 490.667 159.833C479.2 159.833 477.333 159.433 470.8 155.833C462.8 151.433 456.133 144.233 452.133 135.7C450 131.167 449.333 127.167 449.333 118.233C449.333 108.1 449.867 105.433 453.2 98.5C456.533 91.3 461.067 86.1 468.4 80.5C474.8 75.7 491.867 73.9667 503.6 76.9ZM602.667 78.7667C606 80.2333 610.667 83.4333 613.2 85.8333C617.733 90.3667 623.2 101.167 622 103.167C621.733 103.7 618.8 104.9 615.467 105.7C612.267 106.5 608.8 107.433 607.6 107.833C606.267 108.5 604.667 106.9 602.533 103.167C596.933 93.3 586.133 90.1 575.2 95.0333C567.333 98.6333 563.867 104.233 563.067 114.367C562.133 125.167 564.133 131.167 570.667 137.033C580.133 145.567 591.867 145.167 600.8 135.967L606.267 130.233L613.867 132.633C618.133 133.833 621.867 135.3 622.267 135.567C623.333 136.633 618.667 144.9 614.133 149.567C606.267 157.967 601.067 159.833 585.333 159.833C569.333 159.7 563.733 157.7 554.8 148.367C546.133 139.433 543.467 132.367 543.467 118.5C543.733 97.1667 553.2 82.9 571.333 76.9C578.8 74.5 595.2 75.4333 602.667 78.7667ZM687.467 77.1667C695.733 79.5667 704.933 87.3 708.133 94.3667C711.867 102.633 711.467 103.833 704.4 105.567C700.8 106.367 696.933 107.433 695.733 107.833C694.133 108.5 693.333 108.1 693.333 107.167C693.333 103.967 686.4 96.2333 681.867 94.3667C679.467 93.3 675.467 92.5 673.067 92.5C667.733 92.5 659.2 97.1667 655.6 101.967C649.867 109.833 650.133 125.567 656.267 134.233C661.733 141.833 674.133 145.167 683.2 141.3C687.2 139.7 692.533 134.367 693.6 131.033C694.133 129.567 712 134.633 712 136.233C712 139.033 703.467 150.233 698.667 153.7C683.333 164.767 655.067 161.7 642.533 147.567C630.667 133.967 628.533 110.5 637.733 95.0333C647.6 78.6333 667.867 71.3 687.467 77.1667ZM610.667 214.1L610.8 246.5L626.4 230.1L642 213.833H652.4C658 213.833 662.667 214.367 662.667 214.9C662.667 215.433 659.067 219.433 654.533 223.833C650.133 228.233 643.467 235.167 639.867 239.3L633.333 246.767L649.733 268.633C658.8 280.633 666.533 291.3 667.2 292.1C667.867 293.433 665.467 293.833 656.4 293.833L644.667 293.7L638.667 285.433C635.333 280.9 630.4 273.833 627.6 269.833C620.133 259.3 620.533 259.433 615.333 264.5L610.667 269.033V281.433V293.833H601.333H592V237.833V181.833H601.333H610.667V214.1ZM784 199.833V212.5H795.333H806.667V221.167V229.833H795.333H784V251.033C784 277.7 784.267 278.367 798.533 278.367H808.133L807.733 286.5L807.333 294.5L795.733 294.9C786.267 295.167 783.067 294.767 779.067 292.633C767.2 286.633 765.333 281.3 765.333 252.5V229.833H758H750.667V221.167V212.5H758H765.333V199.833V187.167H774.667H784V199.833ZM241.067 240.233L240.667 269.167L236.267 278.1C231.067 288.767 222.667 296.633 212.533 300.5C206 302.9 202.133 303.167 176 303.167H146.667V291.167V279.167H155.333C160.133 279.167 164 278.633 164 277.967C164 277.433 161.6 266.633 158.667 253.967C155.733 241.433 153.333 230.1 153.333 228.767C153.333 227.433 155.2 225.3 157.333 223.967C159.6 222.633 162.933 219.3 164.933 216.367L168.4 211.167H204.933H241.6L241.067 240.233ZM352.933 213.967C356 215.433 360.133 218.5 362 220.767L365.333 224.767L371.467 219.3C379.067 212.633 384.667 210.767 395.333 211.433C406.133 212.1 415.2 217.433 420 225.833C423.2 231.7 423.333 232.633 423.733 262.767L424.267 293.833H414.933H405.467L405.067 266.633C404.667 241.433 404.4 239.033 401.867 235.567C395.867 227.567 386.667 226.633 378.533 233.433C371.467 239.433 370.667 243.167 370.667 269.833V293.833H361.467H352.133L351.733 266.633C351.333 235.567 350.667 233.433 340.267 230.1C335.2 228.367 334.133 228.5 328.8 231.167C319.467 235.567 318.667 238.5 318.667 268.367V293.833H308.667H298.667V253.833V213.833H306.667H314.667V218.767V223.7L319.067 219.433C327.867 210.9 341.867 208.633 352.933 213.967ZM490.933 213.033C496.933 215.167 502.667 219.7 506.8 225.7C509.733 229.967 510 231.833 510.667 253.7C511.333 276.767 511.333 277.167 514.4 277.567C517.067 277.967 517.333 278.767 517.333 285.833C517.333 292.9 517.067 293.567 514 294.367C508 295.833 500 293.7 497.067 289.833L494.4 286.1L485.6 290.767C477.067 295.167 476.267 295.433 464.4 294.9C453.067 294.5 451.867 294.233 447.067 290.367C436.133 281.433 433.733 269.567 440.8 258.233C446.933 248.5 451.867 246.633 473.733 246.1C491.867 245.567 492 245.433 492 242.5C492 232.633 485.333 227.833 472.933 228.767C466.267 229.3 464.4 229.967 461.867 232.9C459.067 236.1 457.867 236.5 450 236.5C440.133 236.5 440 236.1 444.133 227.567C447.2 221.3 455.2 214.9 462.8 212.767C469.333 210.767 485.2 211.033 490.933 213.033ZM578.4 220.767L578 230.367L571.867 230.1C564.133 229.567 557.2 232.367 553.467 237.567C550.8 241.3 550.667 243.167 550.667 267.7V293.967L541.067 293.567L531.333 293.167L530.933 253.433L530.667 213.833H539.733H548.8L548.267 218.767L547.733 223.833L552.8 218.9C559.2 212.767 562.8 211.3 571.733 211.3L578.8 211.167L578.4 220.767ZM723.333 213.7C730.8 217.033 736.8 222.5 740.933 229.567C743.867 234.633 744.667 237.7 745.067 247.433L745.6 259.167H717.067C701.333 259.167 688.133 259.567 687.6 259.967C686 261.567 689.733 268.633 694.667 273.033C703.467 280.9 712.667 280.767 725.333 272.767L731.333 268.9L737.067 272.9C740.133 275.167 742.667 277.567 742.667 278.5C742.667 280.9 733.2 289.3 727.067 292.367C719.467 296.1 699.333 296.367 691.2 292.633C683.467 289.033 676.4 282.367 672.267 274.633C668.933 268.5 668.667 266.5 668.667 253.167C668.667 239.833 668.933 237.833 672.267 231.7C676.533 223.567 684.8 216.1 692.533 213.3C700.533 210.5 716.8 210.633 723.333 213.7Z" fill="white"/>
<path d="M331.6 94.3668C321.2 98.2334 316.933 105.433 317.067 118.767C317.2 140.767 342.667 151.567 356.267 135.433C361.067 129.7 363.067 122.767 362.4 114.5C361.067 99.0334 345.867 89.1668 331.6 94.3668Z" fill="white"/>
<path d="M482 94.6334C475.467 98.2334 470.8 103.3 469.333 108.367C463.867 128.1 477.2 145.967 495.067 142.633C506.533 140.5 513.333 131.433 513.333 118.367C513.333 108.767 509.467 100.233 503.333 96.5C497.2 92.7667 487.067 91.8334 482 94.6334Z" fill="white"/>
<path d="M464.8 260.5C459.333 262.233 456 265.7 456 270.1C456 278.233 470.667 281.833 482.267 276.633C488.4 273.833 490 271.567 491.333 264.1L492.267 259.167L480.533 259.3C474 259.3 466.933 259.967 464.8 260.5Z" fill="white"/>
<path d="M699.333 229.033C695.333 230.767 688 238.233 688 240.5C688 241.167 687.6 242.5 687.2 243.7C686.533 245.567 688.667 245.833 706.667 245.833H726.933L726.133 242.1C723.333 230.633 710.267 224.233 699.333 229.033Z" fill="white"/>
</g>
</g>
<defs>
<clipPath id="clip0_4121_237">
<rect width="838" height="367" fill="white"/>
</clipPath>
<clipPath id="clip1_4121_237">
<rect width="1142" height="1142" fill="white" transform="translate(-152 -387.5)"/>
</clipPath>
</defs>
</svg>
