<svg xmlns="http://www.w3.org/2000/svg" width="20" height="20" viewBox="0 0 20 20" fill="none">
  <path d="M17.5 10C17.5 10.9849 17.306 11.9602 16.9291 12.8701C16.5522 13.7801 15.9997 14.6069 15.3033 15.3033C14.6069 15.9997 13.7801 16.5522 12.8701 16.9291C11.9602 17.306 10.9849 17.5 10 17.5C9.01509 17.5 8.03982 17.306 7.12987 16.9291C6.21993 16.5522 5.39314 15.9997 4.6967 15.3033C4.00026 14.6069 3.44781 13.7801 3.0709 12.8701C2.69399 11.9602 2.5 10.9849 2.5 10C2.5 8.01088 3.29018 6.10322 4.6967 4.6967C6.10322 3.29018 8.01088 2.5 10 2.5C11.9891 2.5 13.8968 3.29018 15.3033 4.6967C16.7098 6.10322 17.5 8.01088 17.5 10Z" stroke="#3D3D3D" stroke-width="1.5" stroke-linecap="round" stroke-linejoin="round"/>
  <path d="M15 5L12.0625 7.9375M12.0625 7.9375C13.1858 9.06167 13.1858 10.9392 12.0625 12.0625M12.0625 7.9375C10.9392 6.81417 9.06167 6.81417 7.9375 7.9375M5 15L7.9375 12.0625M7.9375 12.0625C6.81417 10.9392 6.81417 9.06167 7.9375 7.9375M7.9375 12.0625C9.06083 13.1858 10.9383 13.1858 12.0625 12.0625M5 5L7.9375 7.9375M15 15L12.0625 12.0625" stroke="#3D3D3D" stroke-width="1.5" stroke-linecap="round" stroke-linejoin="round"/>
</svg>